<?xml version="1.0" encoding="UTF-8" standalone="no"?>
<svg width="215.9mm" height="38.8056mm"
 viewBox="0 0 612 110"
 xmlns="http://www.w3.org/2000/svg" xmlns:xlink="http://www.w3.org/1999/xlink"  version="1.2" baseProfile="tiny">
<defs>
</defs>
<g fill="none" stroke="black" stroke-width="1" fill-rule="evenodd" stroke-linecap="square" stroke-linejoin="bevel" >

<g fill="#ffffff" fill-opacity="1" stroke="none" transform="matrix(1,0,0,1,0,0)"
font-family="Helvetica" font-size="12" font-weight="400" font-style="normal" 
>
<path vector-effect="non-scaling-stroke" fill-rule="evenodd" d="M0,0 L612,0 L612,110 L0,110 L0,0z "/>
</g>

<g fill="none" stroke="#000000" stroke-opacity="1" stroke-width="1" stroke-linecap="square" stroke-linejoin="bevel" transform="matrix(1,0,0,1,0,0)"
font-family="Helvetica" font-size="12" font-weight="400" font-style="normal" 
>
</g>

<g fill="none" stroke="#000000" stroke-opacity="1" stroke-width="1" stroke-linecap="square" stroke-linejoin="bevel" transform="matrix(1,0,0,1,0,0)"
font-family="Helvetica" font-size="12" font-weight="400" font-style="normal" 
clip-path="url(#clip4822)" >
<defs><clipPath id="clip4822"><path vector-effect="non-scaling-stroke" fill-rule="evenodd" d="M5,5 L607,5 L607,105.016 L5,105.016 L5,5z "/>
</clipPath></defs></g>

<g fill="none" stroke="#000000" stroke-opacity="1" stroke-width="1" stroke-linecap="square" stroke-linejoin="bevel" transform="matrix(0.952532,0,0,0.952532,-398.873,-105.494)"
font-family="Helvetica" font-size="12" font-weight="400" font-style="normal" 
clip-path="url(#clip4823)" >
<defs><clipPath id="clip4823"><path vector-effect="non-scaling-stroke" fill-rule="evenodd" d="M424,116 L1056,116 L1056,221 L424,221 L424,116z "/>
</clipPath></defs></g>

<g fill="#000000" fill-opacity="0" stroke="none" transform="matrix(0.952532,0,0,0.952532,-398.873,-105.494)"
font-family="Helvetica" font-size="12" font-weight="400" font-style="normal" 
clip-path="url(#clip4823)" >
<path vector-effect="non-scaling-stroke" fill-rule="evenodd" d="M424,116 L1056,116 L1056,221 L424,221 L424,116z "/>
</g>

<g fill="none" stroke="#000000" stroke-opacity="1" stroke-width="1" stroke-linecap="square" stroke-linejoin="bevel" transform="matrix(0.952532,0,0,0.952532,-398.873,-105.494)"
font-family="Helvetica" font-size="12" font-weight="400" font-style="normal" 
clip-path="url(#clip4823)" >
</g>

<g fill="none" stroke="#000000" stroke-opacity="1" stroke-width="1" stroke-linecap="square" stroke-linejoin="bevel" transform="matrix(0.952532,0,0,0.952532,10.7152,40.2437)"
font-family="Helvetica" font-size="12" font-weight="400" font-style="normal" 
clip-path="url(#clip4824)" >
<defs><clipPath id="clip4824"><path vector-effect="non-scaling-stroke" fill-rule="evenodd" d="M-6,-37 L626,-37 L626,68 L-6,68 L-6,-37z "/>
</clipPath></defs></g>

<g fill="#ffffff" fill-opacity="1" stroke="none" transform="matrix(0.952532,0,0,0.952532,10.7152,40.2437)"
font-family="Helvetica" font-size="12" font-weight="400" font-style="normal" 
clip-path="url(#clip4824)" >
<path vector-effect="none" fill-rule="nonzero" d="M7,0 L23,0 C26.866,0 30,3.13401 30,7 C30,10.866 26.866,14 23,14 L7,14 C3.13401,14 0,10.866 0,7 C0,3.13401 3.13401,0 7,0 z "/>
</g>

<g fill="none" stroke="#000000" stroke-opacity="1" stroke-width="1" stroke-linecap="square" stroke-linejoin="bevel" transform="matrix(0.952532,0,0,0.952532,10.7152,40.2437)"
font-family="Helvetica" font-size="12" font-weight="400" font-style="normal" 
clip-path="url(#clip4824)" >
</g>

<g fill="none" stroke="#000000" stroke-opacity="1" stroke-width="1" stroke-linecap="square" stroke-linejoin="bevel" transform="matrix(0.952532,0,0,0.952532,10.7152,40.2437)"
font-family="Helvetica" font-size="12" font-weight="400" font-style="normal" 
clip-path="url(#clip4824)" >
</g>

<g fill="none" stroke="#000000" stroke-opacity="1" stroke-width="1" stroke-linecap="square" stroke-linejoin="bevel" transform="matrix(0.952532,0,0,0.952532,10.7152,40.2437)"
font-family="Helvetica" font-size="12" font-weight="400" font-style="normal" 
clip-path="url(#clip4825)" >
<defs><clipPath id="clip4825"><path vector-effect="non-scaling-stroke" fill-rule="evenodd" d="M0,0 L30,0 L30,14 L0,14 L0,0z "/>
</clipPath></defs></g>

<g fill="none" stroke="#000000" stroke-opacity="1" stroke-width="1" stroke-linecap="square" stroke-linejoin="bevel" transform="matrix(0.952532,0,0,0.952532,25.0032,46.9114)"
font-family="Helvetica" font-size="7.5" font-weight="400" font-style="normal" 
clip-path="url(#clip4826)" >
<defs><clipPath id="clip4826"><path vector-effect="none" fill-rule="evenodd" d="M-15,-7 L15,-7 L15,7 L-15,7 L-15,-7z "/>
</clipPath></defs></g>

<g fill="none" stroke="#000000" stroke-opacity="1" stroke-width="1" stroke-linecap="square" stroke-linejoin="bevel" transform="matrix(1.27004,0,0,1.27004,25.0032,46.9114)"
font-family="Helvetica" font-size="7.5" font-weight="400" font-style="normal" 
clip-path="url(#clip4827)" >
<defs><clipPath id="clip4827"><path vector-effect="none" fill-rule="evenodd" d="M-11,-5 L12,-5 L12,6 L-11,6 L-11,-5z "/>
</clipPath></defs><text textLength="4" fill="#000000" fill-opacity="1" stroke="none" xml:space="preserve" x="-2.25" y="2.25" font-family="Helvetica" font-size="7.5" font-weight="400" font-style="normal" 
 >1</text>
</g>

<g fill="none" stroke="#000000" stroke-opacity="1" stroke-width="1" stroke-linecap="square" stroke-linejoin="bevel" transform="matrix(0.952532,0,0,0.952532,25.0032,46.9114)"
font-family="Helvetica" font-size="7.5" font-weight="400" font-style="normal" 
clip-path="url(#clip4828)" >
<defs><clipPath id="clip4828"><path vector-effect="none" fill-rule="evenodd" d="M-15,-7 L15,-7 L15,7 L-15,7 L-15,-7z "/>
</clipPath></defs></g>

<g fill="none" stroke="#000000" stroke-opacity="1" stroke-width="1" stroke-linecap="square" stroke-linejoin="bevel" transform="matrix(0.714399,0,0,0.714399,25.0032,46.9114)"
font-family="Helvetica" font-size="7.5" font-weight="400" font-style="normal" 
clip-path="url(#clip4829)" >
<defs><clipPath id="clip4829"><path vector-effect="none" fill-rule="evenodd" d="M-6,-37 L626,-37 L626,68 L-6,68 L-6,-37z "/>
</clipPath></defs></g>

<g fill="none" stroke="#000000" stroke-opacity="1" stroke-width="1" stroke-linecap="square" stroke-linejoin="bevel" transform="matrix(1,0,0,1,0,0)"
font-family="Helvetica" font-size="7.5" font-weight="400" font-style="normal" 
clip-path="url(#clip4829)" >
</g>

<g fill="none" stroke="#000000" stroke-opacity="1" stroke-width="1" stroke-linecap="square" stroke-linejoin="bevel" transform="matrix(0.952532,0,0,0.952532,10.7152,40.2437)"
font-family="Helvetica" font-size="12" font-weight="400" font-style="normal" 
clip-path="url(#clip4829)" >
</g>

<g fill="none" stroke="#000000" stroke-opacity="1" stroke-width="1" stroke-linecap="square" stroke-linejoin="bevel" transform="matrix(0.952532,0,0,0.952532,10.7152,40.2437)"
font-family="Helvetica" font-size="12" font-weight="400" font-style="normal" 
clip-path="url(#clip4829)" >
</g>

<g fill="none" stroke="#000000" stroke-opacity="1" stroke-width="1" stroke-linecap="butt" stroke-linejoin="miter" stroke-miterlimit="2" transform="matrix(0.952532,0,0,0.952532,10.7152,40.2437)"
font-family="Helvetica" font-size="12" font-weight="400" font-style="normal" 
clip-path="url(#clip4829)" >
<path vector-effect="none" fill-rule="nonzero" d="M7,0 L23,0 C26.866,0 30,3.13401 30,7 C30,10.866 26.866,14 23,14 L7,14 C3.13401,14 0,10.866 0,7 C0,3.13401 3.13401,0 7,0 z "/>
</g>

<g fill="none" stroke="#000000" stroke-opacity="1" stroke-width="1" stroke-linecap="square" stroke-linejoin="bevel" transform="matrix(0.952532,0,0,0.952532,10.7152,40.2437)"
font-family="Helvetica" font-size="12" font-weight="400" font-style="normal" 
clip-path="url(#clip4829)" >
</g>

<g fill="none" stroke="#000000" stroke-opacity="1" stroke-width="1" stroke-linecap="square" stroke-linejoin="bevel" transform="matrix(0.952532,0,0,0.952532,25.0032,55.4842)"
font-family="Helvetica" font-size="12" font-weight="400" font-style="normal" 
clip-path="url(#clip4830)" >
<defs><clipPath id="clip4830"><path vector-effect="non-scaling-stroke" fill-rule="evenodd" d="M-21,-53 L611,-53 L611,52 L-21,52 L-21,-53z "/>
</clipPath></defs></g>

<g fill="none" stroke="none" transform="matrix(0.952532,0,0,0.952532,25.0032,55.4842)"
font-family="Helvetica" font-size="12" font-weight="400" font-style="normal" 
clip-path="url(#clip4830)" >
<path vector-effect="none" fill-rule="evenodd" d="M-7.625,0 L7.625,0 L7.625,15 L-7.625,15 L-7.625,0z "/>
</g>

<g fill="none" stroke="#000000" stroke-opacity="1" stroke-width="1" stroke-linecap="square" stroke-linejoin="bevel" transform="matrix(0.238133,0,0,0.238133,17.7401,55.4842)"
font-family="Helvetica" font-size="40" font-weight="400" font-style="normal" 
clip-path="url(#clip4831)" >
<defs><clipPath id="clip4831"><path vector-effect="non-scaling-stroke" fill-rule="evenodd" d="M-53.5,-212 L2474.5,-212 L2474.5,208 L-53.5,208 L-53.5,-212z "/>
</clipPath></defs></g>

<g fill="none" stroke="#000000" stroke-opacity="1" stroke-width="1" stroke-linecap="square" stroke-linejoin="bevel" transform="matrix(0.238133,0,0,0.238133,17.7401,55.4842)"
font-family="Helvetica" font-size="40" font-weight="400" font-style="normal" 
clip-path="url(#clip4831)" >
</g>

<g fill="none" stroke="#000000" stroke-opacity="1" stroke-width="1" stroke-linecap="square" stroke-linejoin="bevel" transform="matrix(0.238133,0,0,0.238133,17.7401,55.4842)"
font-family="Helvetica" font-size="40" font-weight="400" font-style="normal" 
clip-path="url(#clip4832)" >
<defs><clipPath id="clip4832"><path vector-effect="non-scaling-stroke" fill-rule="evenodd" d="M0,0 L61,0 L61,60 L0,60 L0,0z "/>
</clipPath></defs><text textLength="53" fill="#000000" fill-opacity="1" stroke="none" xml:space="preserve" x="4" y="41" font-family="Helvetica" font-size="40" font-weight="400" font-style="normal" 
 >In1</text>
</g>

<g fill="none" stroke="#000000" stroke-opacity="1" stroke-width="1" stroke-linecap="square" stroke-linejoin="bevel" transform="matrix(0.238133,0,0,0.238133,17.7401,55.4842)"
font-family="Helvetica" font-size="40" font-weight="400" font-style="normal" 
clip-path="url(#clip4833)" >
<defs><clipPath id="clip4833"><path vector-effect="non-scaling-stroke" fill-rule="evenodd" d="M-53.5,-212 L2474.5,-212 L2474.5,208 L-53.5,208 L-53.5,-212z "/>
</clipPath></defs></g>

<g fill="none" stroke="#000000" stroke-opacity="1" stroke-width="1" stroke-linecap="square" stroke-linejoin="bevel" transform="matrix(1,0,0,1,0,0)"
font-family="Helvetica" font-size="40" font-weight="400" font-style="normal" 
clip-path="url(#clip4833)" >
</g>

<g fill="none" stroke="#000000" stroke-opacity="1" stroke-width="1" stroke-linecap="square" stroke-linejoin="bevel" transform="matrix(0.238133,0,0,0.238133,17.7401,55.4842)"
font-family="Helvetica" font-size="40" font-weight="400" font-style="normal" 
clip-path="url(#clip4833)" >
</g>

<g fill="none" stroke="#000000" stroke-opacity="1" stroke-width="1" stroke-linecap="square" stroke-linejoin="bevel" transform="matrix(0.238133,0,0,0.238133,17.7401,55.4842)"
font-family="Helvetica" font-size="40" font-weight="400" font-style="normal" 
clip-path="url(#clip4833)" >
</g>

<g fill="none" stroke="#000000" stroke-opacity="1" stroke-width="1" stroke-linecap="square" stroke-linejoin="bevel" transform="matrix(0.952532,0,0,0.952532,25.0032,55.4842)"
font-family="Helvetica" font-size="12" font-weight="400" font-style="normal" 
clip-path="url(#clip4834)" >
<defs><clipPath id="clip4834"><path vector-effect="non-scaling-stroke" fill-rule="evenodd" d="M-21,-53 L611,-53 L611,52 L-21,52 L-21,-53z "/>
</clipPath></defs></g>

<g fill="none" stroke="#000000" stroke-opacity="1" stroke-width="1" stroke-linecap="square" stroke-linejoin="bevel" transform="matrix(0.952532,0,0,0.952532,572.709,40.2437)"
font-family="Helvetica" font-size="12" font-weight="400" font-style="normal" 
clip-path="url(#clip4835)" >
<defs><clipPath id="clip4835"><path vector-effect="non-scaling-stroke" fill-rule="evenodd" d="M-596,-37 L36,-37 L36,68 L-596,68 L-596,-37z "/>
</clipPath></defs></g>

<g fill="#ffffff" fill-opacity="1" stroke="none" transform="matrix(0.952532,0,0,0.952532,572.709,40.2437)"
font-family="Helvetica" font-size="12" font-weight="400" font-style="normal" 
clip-path="url(#clip4835)" >
<path vector-effect="none" fill-rule="nonzero" d="M7,0 L23,0 C26.866,0 30,3.13401 30,7 C30,10.866 26.866,14 23,14 L7,14 C3.13401,14 0,10.866 0,7 C0,3.13401 3.13401,0 7,0 z "/>
</g>

<g fill="none" stroke="#000000" stroke-opacity="1" stroke-width="1" stroke-linecap="square" stroke-linejoin="bevel" transform="matrix(0.952532,0,0,0.952532,572.709,40.2437)"
font-family="Helvetica" font-size="12" font-weight="400" font-style="normal" 
clip-path="url(#clip4835)" >
</g>

<g fill="none" stroke="#000000" stroke-opacity="1" stroke-width="1" stroke-linecap="square" stroke-linejoin="bevel" transform="matrix(0.952532,0,0,0.952532,572.709,40.2437)"
font-family="Helvetica" font-size="12" font-weight="400" font-style="normal" 
clip-path="url(#clip4835)" >
</g>

<g fill="none" stroke="#000000" stroke-opacity="1" stroke-width="1" stroke-linecap="square" stroke-linejoin="bevel" transform="matrix(0.952532,0,0,0.952532,572.709,40.2437)"
font-family="Helvetica" font-size="12" font-weight="400" font-style="normal" 
clip-path="url(#clip4836)" >
<defs><clipPath id="clip4836"><path vector-effect="non-scaling-stroke" fill-rule="evenodd" d="M0,0 L30,0 L30,14 L0,14 L0,0z "/>
</clipPath></defs></g>

<g fill="none" stroke="#000000" stroke-opacity="1" stroke-width="1" stroke-linecap="square" stroke-linejoin="bevel" transform="matrix(0.952532,0,0,0.952532,586.997,46.9114)"
font-family="Helvetica" font-size="7.5" font-weight="400" font-style="normal" 
clip-path="url(#clip4837)" >
<defs><clipPath id="clip4837"><path vector-effect="none" fill-rule="evenodd" d="M-15,-7 L15,-7 L15,7 L-15,7 L-15,-7z "/>
</clipPath></defs></g>

<g fill="none" stroke="#000000" stroke-opacity="1" stroke-width="1" stroke-linecap="square" stroke-linejoin="bevel" transform="matrix(1.27004,0,0,1.27004,586.997,46.9114)"
font-family="Helvetica" font-size="7.5" font-weight="400" font-style="normal" 
clip-path="url(#clip4838)" >
<defs><clipPath id="clip4838"><path vector-effect="none" fill-rule="evenodd" d="M-11,-5 L12,-5 L12,6 L-11,6 L-11,-5z "/>
</clipPath></defs><text textLength="4" fill="#000000" fill-opacity="1" stroke="none" xml:space="preserve" x="-2.25" y="2.25" font-family="Helvetica" font-size="7.5" font-weight="400" font-style="normal" 
 >1</text>
</g>

<g fill="none" stroke="#000000" stroke-opacity="1" stroke-width="1" stroke-linecap="square" stroke-linejoin="bevel" transform="matrix(0.952532,0,0,0.952532,586.997,46.9114)"
font-family="Helvetica" font-size="7.5" font-weight="400" font-style="normal" 
clip-path="url(#clip4839)" >
<defs><clipPath id="clip4839"><path vector-effect="none" fill-rule="evenodd" d="M-15,-7 L15,-7 L15,7 L-15,7 L-15,-7z "/>
</clipPath></defs></g>

<g fill="none" stroke="#000000" stroke-opacity="1" stroke-width="1" stroke-linecap="square" stroke-linejoin="bevel" transform="matrix(0.714399,0,0,0.714399,586.997,46.9114)"
font-family="Helvetica" font-size="7.5" font-weight="400" font-style="normal" 
clip-path="url(#clip4840)" >
<defs><clipPath id="clip4840"><path vector-effect="none" fill-rule="evenodd" d="M-596,-37 L36,-37 L36,68 L-596,68 L-596,-37z "/>
</clipPath></defs></g>

<g fill="none" stroke="#000000" stroke-opacity="1" stroke-width="1" stroke-linecap="square" stroke-linejoin="bevel" transform="matrix(1,0,0,1,0,0)"
font-family="Helvetica" font-size="7.5" font-weight="400" font-style="normal" 
clip-path="url(#clip4840)" >
</g>

<g fill="none" stroke="#000000" stroke-opacity="1" stroke-width="1" stroke-linecap="square" stroke-linejoin="bevel" transform="matrix(0.952532,0,0,0.952532,572.709,40.2437)"
font-family="Helvetica" font-size="12" font-weight="400" font-style="normal" 
clip-path="url(#clip4840)" >
</g>

<g fill="none" stroke="#000000" stroke-opacity="1" stroke-width="1" stroke-linecap="square" stroke-linejoin="bevel" transform="matrix(0.952532,0,0,0.952532,572.709,40.2437)"
font-family="Helvetica" font-size="12" font-weight="400" font-style="normal" 
clip-path="url(#clip4840)" >
</g>

<g fill="none" stroke="#000000" stroke-opacity="1" stroke-width="1" stroke-linecap="butt" stroke-linejoin="miter" stroke-miterlimit="2" transform="matrix(0.952532,0,0,0.952532,572.709,40.2437)"
font-family="Helvetica" font-size="12" font-weight="400" font-style="normal" 
clip-path="url(#clip4840)" >
<path vector-effect="none" fill-rule="nonzero" d="M7,0 L23,0 C26.866,0 30,3.13401 30,7 C30,10.866 26.866,14 23,14 L7,14 C3.13401,14 0,10.866 0,7 C0,3.13401 3.13401,0 7,0 z "/>
</g>

<g fill="none" stroke="#000000" stroke-opacity="1" stroke-width="1" stroke-linecap="square" stroke-linejoin="bevel" transform="matrix(0.952532,0,0,0.952532,572.709,40.2437)"
font-family="Helvetica" font-size="12" font-weight="400" font-style="normal" 
clip-path="url(#clip4840)" >
</g>

<g fill="none" stroke="#000000" stroke-opacity="1" stroke-width="1" stroke-linecap="square" stroke-linejoin="bevel" transform="matrix(0.952532,0,0,0.952532,586.997,55.4842)"
font-family="Helvetica" font-size="12" font-weight="400" font-style="normal" 
clip-path="url(#clip4841)" >
<defs><clipPath id="clip4841"><path vector-effect="non-scaling-stroke" fill-rule="evenodd" d="M-611,-53 L21,-53 L21,52 L-611,52 L-611,-53z "/>
</clipPath></defs></g>

<g fill="none" stroke="none" transform="matrix(0.952532,0,0,0.952532,586.997,55.4842)"
font-family="Helvetica" font-size="12" font-weight="400" font-style="normal" 
clip-path="url(#clip4841)" >
<path vector-effect="none" fill-rule="evenodd" d="M-11.625,0 L11.625,0 L11.625,15 L-11.625,15 L-11.625,0z "/>
</g>

<g fill="none" stroke="#000000" stroke-opacity="1" stroke-width="1" stroke-linecap="square" stroke-linejoin="bevel" transform="matrix(0.238133,0,0,0.238133,575.924,55.4842)"
font-family="Helvetica" font-size="40" font-weight="400" font-style="normal" 
clip-path="url(#clip4842)" >
<defs><clipPath id="clip4842"><path vector-effect="non-scaling-stroke" fill-rule="evenodd" d="M-2397.5,-212 L130.5,-212 L130.5,208 L-2397.5,208 L-2397.5,-212z "/>
</clipPath></defs></g>

<g fill="none" stroke="#000000" stroke-opacity="1" stroke-width="1" stroke-linecap="square" stroke-linejoin="bevel" transform="matrix(0.238133,0,0,0.238133,575.924,55.4842)"
font-family="Helvetica" font-size="40" font-weight="400" font-style="normal" 
clip-path="url(#clip4842)" >
</g>

<g fill="none" stroke="#000000" stroke-opacity="1" stroke-width="1" stroke-linecap="square" stroke-linejoin="bevel" transform="matrix(0.238133,0,0,0.238133,575.924,55.4842)"
font-family="Helvetica" font-size="40" font-weight="400" font-style="normal" 
clip-path="url(#clip4843)" >
<defs><clipPath id="clip4843"><path vector-effect="non-scaling-stroke" fill-rule="evenodd" d="M0,0 L93,0 L93,60 L0,60 L0,0z "/>
</clipPath></defs><text textLength="85" fill="#000000" fill-opacity="1" stroke="none" xml:space="preserve" x="4" y="41" font-family="Helvetica" font-size="40" font-weight="400" font-style="normal" 
 >Out1</text>
</g>

<g fill="none" stroke="#000000" stroke-opacity="1" stroke-width="1" stroke-linecap="square" stroke-linejoin="bevel" transform="matrix(0.238133,0,0,0.238133,575.924,55.4842)"
font-family="Helvetica" font-size="40" font-weight="400" font-style="normal" 
clip-path="url(#clip4844)" >
<defs><clipPath id="clip4844"><path vector-effect="non-scaling-stroke" fill-rule="evenodd" d="M-2397.5,-212 L130.5,-212 L130.5,208 L-2397.5,208 L-2397.5,-212z "/>
</clipPath></defs></g>

<g fill="none" stroke="#000000" stroke-opacity="1" stroke-width="1" stroke-linecap="square" stroke-linejoin="bevel" transform="matrix(1,0,0,1,0,0)"
font-family="Helvetica" font-size="40" font-weight="400" font-style="normal" 
clip-path="url(#clip4844)" >
</g>

<g fill="none" stroke="#000000" stroke-opacity="1" stroke-width="1" stroke-linecap="square" stroke-linejoin="bevel" transform="matrix(0.238133,0,0,0.238133,575.924,55.4842)"
font-family="Helvetica" font-size="40" font-weight="400" font-style="normal" 
clip-path="url(#clip4844)" >
</g>

<g fill="none" stroke="#000000" stroke-opacity="1" stroke-width="1" stroke-linecap="square" stroke-linejoin="bevel" transform="matrix(0.238133,0,0,0.238133,575.924,55.4842)"
font-family="Helvetica" font-size="40" font-weight="400" font-style="normal" 
clip-path="url(#clip4844)" >
</g>

<g fill="none" stroke="#000000" stroke-opacity="1" stroke-width="1" stroke-linecap="square" stroke-linejoin="bevel" transform="matrix(0.952532,0,0,0.952532,586.997,55.4842)"
font-family="Helvetica" font-size="12" font-weight="400" font-style="normal" 
clip-path="url(#clip4845)" >
<defs><clipPath id="clip4845"><path vector-effect="non-scaling-stroke" fill-rule="evenodd" d="M-611,-53 L21,-53 L21,52 L-611,52 L-611,-53z "/>
</clipPath></defs></g>

<g fill="none" stroke="#000000" stroke-opacity="1" stroke-width="1" stroke-linecap="square" stroke-linejoin="bevel" transform="matrix(0.952532,0,0,0.952532,205.984,10.7152)"
font-family="Helvetica" font-size="12" font-weight="400" font-style="normal" 
clip-path="url(#clip4846)" >
<defs><clipPath id="clip4846"><path vector-effect="non-scaling-stroke" fill-rule="evenodd" d="M-211,-6 L421,-6 L421,99 L-211,99 L-211,-6z "/>
</clipPath></defs></g>

<g fill="#ffffff" fill-opacity="1" stroke="none" transform="matrix(0.952532,0,0,0.952532,205.984,10.7152)"
font-family="Helvetica" font-size="12" font-weight="400" font-style="normal" 
clip-path="url(#clip4846)" >
<path vector-effect="none" fill-rule="evenodd" d="M0,0 L200,0 L200,76 L0,76 L0,0z "/>
</g>

<g fill="none" stroke="#000000" stroke-opacity="1" stroke-width="1" stroke-linecap="square" stroke-linejoin="bevel" transform="matrix(0.952532,0,0,0.952532,205.984,10.7152)"
font-family="Helvetica" font-size="12" font-weight="400" font-style="normal" 
clip-path="url(#clip4846)" >
</g>

<g fill="none" stroke="#000000" stroke-opacity="1" stroke-width="1" stroke-linecap="square" stroke-linejoin="bevel" transform="matrix(0.952532,0,0,0.952532,205.984,10.7152)"
font-family="Helvetica" font-size="12" font-weight="400" font-style="normal" 
clip-path="url(#clip4846)" >
</g>

<g fill="none" stroke="#000000" stroke-opacity="1" stroke-width="1" stroke-linecap="square" stroke-linejoin="bevel" transform="matrix(0.952532,0,0,0.952532,205.984,10.7152)"
font-family="Helvetica" font-size="12" font-weight="400" font-style="normal" 
clip-path="url(#clip4847)" >
<defs><clipPath id="clip4847"><path vector-effect="non-scaling-stroke" fill-rule="evenodd" d="M0,0 L200,0 L200,76 L0,76 L0,0z "/>
</clipPath></defs></g>

<g fill="none" stroke="#e8d152" stroke-opacity="1" stroke-width="1" stroke-linecap="square" stroke-linejoin="bevel" transform="matrix(0.952532,0,0,0.952532,301.237,46.9114)"
font-family="Helvetica" font-size="7.5" font-weight="400" font-style="normal" 
clip-path="url(#clip4848)" >
<defs><clipPath id="clip4848"><path vector-effect="none" fill-rule="evenodd" d="M-100,-38 L100,-38 L100,38 L-100,38 L-100,-38z "/>
</clipPath></defs></g>

<g fill="none" stroke="#e8d152" stroke-opacity="1" stroke-width="1" stroke-linecap="square" stroke-linejoin="bevel" transform="matrix(1.27004,0,0,1.27004,301.237,46.9114)"
font-family="Helvetica" font-size="7.5" font-weight="400" font-style="normal" 
clip-path="url(#clip4849)" >
<defs><clipPath id="clip4849"><path vector-effect="none" fill-rule="evenodd" d="M-75,-28 L75,-28 L75,29 L-75,29 L-75,-28z "/>
</clipPath></defs><text textLength="28" fill="#e8d152" fill-opacity="1" stroke="none" xml:space="preserve" x="-15" y="2.25" font-family="Helvetica" font-size="7.5" font-weight="400" font-style="normal" 
 >Bad Link</text>
</g>

<g fill="none" stroke="#e8d152" stroke-opacity="1" stroke-width="1" stroke-linecap="square" stroke-linejoin="bevel" transform="matrix(0.952532,0,0,0.952532,301.237,46.9114)"
font-family="Helvetica" font-size="7.5" font-weight="400" font-style="normal" 
clip-path="url(#clip4850)" >
<defs><clipPath id="clip4850"><path vector-effect="none" fill-rule="evenodd" d="M-100,-38 L100,-38 L100,38 L-100,38 L-100,-38z "/>
</clipPath></defs></g>

<g fill="none" stroke="#e8d152" stroke-opacity="1" stroke-width="1" stroke-linecap="square" stroke-linejoin="bevel" transform="matrix(0.714399,0,0,0.714399,301.237,46.9114)"
font-family="Helvetica" font-size="7.5" font-weight="400" font-style="normal" 
clip-path="url(#clip4851)" >
<defs><clipPath id="clip4851"><path vector-effect="none" fill-rule="evenodd" d="M-211,-6 L421,-6 L421,99 L-211,99 L-211,-6z "/>
</clipPath></defs></g>

<g fill="none" stroke="#e8d152" stroke-opacity="1" stroke-width="1" stroke-linecap="square" stroke-linejoin="bevel" transform="matrix(1,0,0,1,0,0)"
font-family="Helvetica" font-size="7.5" font-weight="400" font-style="normal" 
clip-path="url(#clip4851)" >
</g>

<g fill="none" stroke="#000000" stroke-opacity="1" stroke-width="1" stroke-linecap="square" stroke-linejoin="bevel" transform="matrix(0.952532,0,0,0.952532,205.984,10.7152)"
font-family="Helvetica" font-size="12" font-weight="400" font-style="normal" 
clip-path="url(#clip4851)" >
</g>

<g fill="none" stroke="#000000" stroke-opacity="1" stroke-width="1" stroke-linecap="square" stroke-linejoin="bevel" transform="matrix(0.952532,0,0,0.952532,205.984,10.7152)"
font-family="Helvetica" font-size="12" font-weight="400" font-style="normal" 
clip-path="url(#clip4851)" >
</g>

<g fill="none" stroke="#ff0000" stroke-opacity="1" stroke-dasharray="4,2" stroke-dashoffset="0" stroke-width="1" stroke-linecap="butt" stroke-linejoin="miter" stroke-miterlimit="2" transform="matrix(0.952532,0,0,0.952532,205.984,10.7152)"
font-family="Helvetica" font-size="12" font-weight="400" font-style="normal" 
clip-path="url(#clip4851)" >
<path vector-effect="none" fill-rule="evenodd" d="M0,0 L200,0 L200,76 L0,76 L0,0z "/>
</g>

<g fill="none" stroke="#000000" stroke-opacity="1" stroke-width="1" stroke-linecap="square" stroke-linejoin="bevel" transform="matrix(0.952532,0,0,0.952532,205.984,10.7152)"
font-family="Helvetica" font-size="12" font-weight="400" font-style="normal" 
clip-path="url(#clip4851)" >
</g>

<g fill="none" stroke="#000000" stroke-opacity="1" stroke-width="1" stroke-linecap="square" stroke-linejoin="bevel" transform="matrix(0.952532,0,0,0.952532,301.237,85.0127)"
font-family="Helvetica" font-size="12" font-weight="400" font-style="normal" 
clip-path="url(#clip4852)" >
<defs><clipPath id="clip4852"><path vector-effect="non-scaling-stroke" fill-rule="evenodd" d="M-311,-84 L321,-84 L321,21 L-311,21 L-311,-84z "/>
</clipPath></defs></g>

<g fill="none" stroke="none" transform="matrix(0.952532,0,0,0.952532,301.237,85.0127)"
font-family="Helvetica" font-size="12" font-weight="400" font-style="normal" 
clip-path="url(#clip4852)" >
<path vector-effect="none" fill-rule="evenodd" d="M-54.25,0 L54.25,0 L54.25,15 L-54.25,15 L-54.25,0z "/>
</g>

<g fill="none" stroke="#e8d152" stroke-opacity="1" stroke-width="1" stroke-linecap="square" stroke-linejoin="bevel" transform="matrix(0.238133,0,0,0.238133,249.563,85.0127)"
font-family="Helvetica" font-size="40" font-weight="400" font-style="normal" 
clip-path="url(#clip4853)" >
<defs><clipPath id="clip4853"><path vector-effect="non-scaling-stroke" fill-rule="evenodd" d="M-1027,-336 L1501,-336 L1501,84 L-1027,84 L-1027,-336z "/>
</clipPath></defs></g>

<g fill="none" stroke="#e8d152" stroke-opacity="1" stroke-width="1" stroke-linecap="square" stroke-linejoin="bevel" transform="matrix(0.238133,0,0,0.238133,249.563,85.0127)"
font-family="Helvetica" font-size="40" font-weight="400" font-style="normal" 
clip-path="url(#clip4853)" >
</g>

<g fill="none" stroke="#e8d152" stroke-opacity="1" stroke-width="1" stroke-linecap="square" stroke-linejoin="bevel" transform="matrix(0.238133,0,0,0.238133,249.563,85.0127)"
font-family="Helvetica" font-size="40" font-weight="400" font-style="normal" 
clip-path="url(#clip4854)" >
<defs><clipPath id="clip4854"><path vector-effect="non-scaling-stroke" fill-rule="evenodd" d="M0,0 L434,0 L434,60 L0,60 L0,0z "/>
</clipPath></defs><text textLength="426" fill="#e8d152" fill-opacity="1" stroke="none" xml:space="preserve" x="4" y="41" font-family="Helvetica" font-size="40" font-weight="400" font-style="normal" 
 >Sensor_DataConversion</text>
</g>

<g fill="none" stroke="#e8d152" stroke-opacity="1" stroke-width="1" stroke-linecap="square" stroke-linejoin="bevel" transform="matrix(0.238133,0,0,0.238133,249.563,85.0127)"
font-family="Helvetica" font-size="40" font-weight="400" font-style="normal" 
clip-path="url(#clip4855)" >
<defs><clipPath id="clip4855"><path vector-effect="non-scaling-stroke" fill-rule="evenodd" d="M-1027,-336 L1501,-336 L1501,84 L-1027,84 L-1027,-336z "/>
</clipPath></defs></g>

<g fill="none" stroke="#e8d152" stroke-opacity="1" stroke-width="1" stroke-linecap="square" stroke-linejoin="bevel" transform="matrix(1,0,0,1,0,0)"
font-family="Helvetica" font-size="40" font-weight="400" font-style="normal" 
clip-path="url(#clip4855)" >
</g>

<g fill="none" stroke="#e8d152" stroke-opacity="1" stroke-width="1" stroke-linecap="square" stroke-linejoin="bevel" transform="matrix(0.238133,0,0,0.238133,249.563,85.0127)"
font-family="Helvetica" font-size="40" font-weight="400" font-style="normal" 
clip-path="url(#clip4855)" >
</g>

<g fill="none" stroke="#e8d152" stroke-opacity="1" stroke-width="1" stroke-linecap="square" stroke-linejoin="bevel" transform="matrix(0.238133,0,0,0.238133,249.563,85.0127)"
font-family="Helvetica" font-size="40" font-weight="400" font-style="normal" 
clip-path="url(#clip4855)" >
</g>

<g fill="none" stroke="#000000" stroke-opacity="1" stroke-width="1" stroke-linecap="square" stroke-linejoin="bevel" transform="matrix(0.952532,0,0,0.952532,301.237,85.0127)"
font-family="Helvetica" font-size="12" font-weight="400" font-style="normal" 
clip-path="url(#clip4856)" >
<defs><clipPath id="clip4856"><path vector-effect="non-scaling-stroke" fill-rule="evenodd" d="M-311,-84 L321,-84 L321,21 L-311,21 L-311,-84z "/>
</clipPath></defs></g>

<g fill="none" stroke="#000000" stroke-opacity="1" stroke-width="1" stroke-linecap="square" stroke-linejoin="bevel" transform="matrix(0.952532,0,0,0.952532,572.709,46.9114)"
font-family="Helvetica" font-size="12" font-weight="400" font-style="normal" 
clip-path="url(#clip4857)" >
<defs><clipPath id="clip4857"><path vector-effect="non-scaling-stroke" fill-rule="evenodd" d="M-596,-44 L36,-44 L36,61 L-596,61 L-596,-44z "/>
</clipPath></defs></g>

<g fill="#e8d152" fill-opacity="1" stroke="none" transform="matrix(0.952532,0,0,0.952532,572.709,46.9114)"
font-family="Helvetica" font-size="12" font-weight="400" font-style="normal" 
clip-path="url(#clip4857)" >
<path vector-effect="none" fill-rule="nonzero" d="M0,0 L-8,-4 L-8,4 L0,0z "/>
</g>

<g fill="none" stroke="#000000" stroke-opacity="1" stroke-width="1" stroke-linecap="square" stroke-linejoin="bevel" transform="matrix(0.952532,0,0,0.952532,572.709,46.9114)"
font-family="Helvetica" font-size="12" font-weight="400" font-style="normal" 
clip-path="url(#clip4857)" >
</g>

<g fill="none" stroke="#000000" stroke-opacity="1" stroke-width="1" stroke-linecap="square" stroke-linejoin="bevel" transform="matrix(0.952532,0,0,0.952532,-398.873,-105.494)"
font-family="Helvetica" font-size="12" font-weight="400" font-style="normal" 
clip-path="url(#clip4858)" >
<defs><clipPath id="clip4858"><path vector-effect="non-scaling-stroke" fill-rule="evenodd" d="M424,116 L1056,116 L1056,221 L424,221 L424,116z "/>
</clipPath></defs></g>

<g fill="none" stroke="#e8d152" stroke-opacity="1" stroke-width="1" stroke-linecap="butt" stroke-linejoin="miter" stroke-miterlimit="2" transform="matrix(0.952532,0,0,0.952532,-398.873,-105.494)"
font-family="Helvetica" font-size="12" font-weight="400" font-style="normal" 
clip-path="url(#clip4858)" >
<path vector-effect="none" fill-rule="evenodd" d="M835,160 L1012,160"/>
</g>

<g fill="none" stroke="#000000" stroke-opacity="1" stroke-width="1" stroke-linecap="square" stroke-linejoin="bevel" transform="matrix(0.952532,0,0,0.952532,-398.873,-105.494)"
font-family="Helvetica" font-size="12" font-weight="400" font-style="normal" 
clip-path="url(#clip4858)" >
</g>

<g fill="none" stroke="#000000" stroke-opacity="1" stroke-width="1" stroke-linecap="square" stroke-linejoin="bevel" transform="matrix(0.952532,0,0,0.952532,401.253,48.3402)"
font-family="Helvetica" font-size="12" font-weight="400" font-style="normal" 
clip-path="url(#clip4859)" >
<defs><clipPath id="clip4859"><path vector-effect="non-scaling-stroke" fill-rule="evenodd" d="M-416,-45.5 L216,-45.5 L216,59.5 L-416,59.5 L-416,-45.5z "/>
</clipPath></defs></g>

<g fill="none" stroke="none" transform="matrix(0.952532,0,0,0.952532,401.253,48.3402)"
font-family="Helvetica" font-size="12" font-weight="400" font-style="normal" 
clip-path="url(#clip4859)" >
<path vector-effect="none" fill-rule="evenodd" d="M0,0 L45.25,0 L45.25,14 L0,14 L0,0z "/>
</g>

<g fill="none" stroke="#e8d152" stroke-opacity="1" stroke-width="1" stroke-linecap="square" stroke-linejoin="bevel" transform="matrix(0.238133,0,0,0.238133,401.253,48.3402)"
font-family="Helvetica" font-size="36" font-weight="400" font-style="normal" 
clip-path="url(#clip4860)" >
<defs><clipPath id="clip4860"><path vector-effect="non-scaling-stroke" fill-rule="evenodd" d="M-1664,-182 L864,-182 L864,238 L-1664,238 L-1664,-182z "/>
</clipPath></defs></g>

<g fill="none" stroke="#e8d152" stroke-opacity="1" stroke-width="1" stroke-linecap="square" stroke-linejoin="bevel" transform="matrix(0.238133,0,0,0.238133,401.253,48.3402)"
font-family="Helvetica" font-size="36" font-weight="400" font-style="normal" 
clip-path="url(#clip4860)" >
</g>

<g fill="none" stroke="#e8d152" stroke-opacity="1" stroke-width="1" stroke-linecap="square" stroke-linejoin="bevel" transform="matrix(0.238133,0,0,0.238133,401.253,48.3402)"
font-family="Helvetica" font-size="36" font-weight="400" font-style="normal" 
clip-path="url(#clip4861)" >
<defs><clipPath id="clip4861"><path vector-effect="non-scaling-stroke" fill-rule="evenodd" d="M0,0 L181,0 L181,56 L0,56 L0,0z "/>
</clipPath></defs><text textLength="173" fill="#e8d152" fill-opacity="1" stroke="none" xml:space="preserve" x="4" y="38" font-family="Helvetica" font-size="36" font-weight="400" font-style="normal" 
 >oilpressure</text>
</g>

<g fill="none" stroke="#e8d152" stroke-opacity="1" stroke-width="1" stroke-linecap="square" stroke-linejoin="bevel" transform="matrix(0.238133,0,0,0.238133,401.253,48.3402)"
font-family="Helvetica" font-size="36" font-weight="400" font-style="normal" 
clip-path="url(#clip4862)" >
<defs><clipPath id="clip4862"><path vector-effect="non-scaling-stroke" fill-rule="evenodd" d="M-1664,-182 L864,-182 L864,238 L-1664,238 L-1664,-182z "/>
</clipPath></defs></g>

<g fill="none" stroke="#e8d152" stroke-opacity="1" stroke-width="1" stroke-linecap="square" stroke-linejoin="bevel" transform="matrix(1,0,0,1,0,0)"
font-family="Helvetica" font-size="36" font-weight="400" font-style="normal" 
clip-path="url(#clip4862)" >
</g>

<g fill="none" stroke="#e8d152" stroke-opacity="1" stroke-width="1" stroke-linecap="square" stroke-linejoin="bevel" transform="matrix(0.238133,0,0,0.238133,401.253,48.3402)"
font-family="Helvetica" font-size="36" font-weight="400" font-style="normal" 
clip-path="url(#clip4862)" >
</g>

<g fill="none" stroke="#e8d152" stroke-opacity="1" stroke-width="1" stroke-linecap="square" stroke-linejoin="bevel" transform="matrix(0.238133,0,0,0.238133,401.253,48.3402)"
font-family="Helvetica" font-size="36" font-weight="400" font-style="normal" 
clip-path="url(#clip4862)" >
</g>

<g fill="none" stroke="#000000" stroke-opacity="1" stroke-width="1" stroke-linecap="square" stroke-linejoin="bevel" transform="matrix(0.952532,0,0,0.952532,401.253,48.3402)"
font-family="Helvetica" font-size="12" font-weight="400" font-style="normal" 
clip-path="url(#clip4863)" >
<defs><clipPath id="clip4863"><path vector-effect="non-scaling-stroke" fill-rule="evenodd" d="M-416,-45.5 L216,-45.5 L216,59.5 L-416,59.5 L-416,-45.5z "/>
</clipPath></defs></g>

<g fill="none" stroke="#000000" stroke-opacity="1" stroke-width="1" stroke-linecap="square" stroke-linejoin="bevel" transform="matrix(0.952532,0,0,0.952532,205.984,46.9114)"
font-family="Helvetica" font-size="12" font-weight="400" font-style="normal" 
clip-path="url(#clip4864)" >
<defs><clipPath id="clip4864"><path vector-effect="non-scaling-stroke" fill-rule="evenodd" d="M-211,-44 L421,-44 L421,61 L-211,61 L-211,-44z "/>
</clipPath></defs></g>

<g fill="#000000" fill-opacity="1" stroke="none" transform="matrix(0.952532,0,0,0.952532,205.984,46.9114)"
font-family="Helvetica" font-size="12" font-weight="400" font-style="normal" 
clip-path="url(#clip4864)" >
<path vector-effect="none" fill-rule="nonzero" d="M0,0 L-8,-4 L-8,4 L0,0z "/>
</g>

<g fill="none" stroke="#000000" stroke-opacity="1" stroke-width="1" stroke-linecap="square" stroke-linejoin="bevel" transform="matrix(0.952532,0,0,0.952532,205.984,46.9114)"
font-family="Helvetica" font-size="12" font-weight="400" font-style="normal" 
clip-path="url(#clip4864)" >
</g>

<g fill="none" stroke="#000000" stroke-opacity="1" stroke-width="1" stroke-linecap="square" stroke-linejoin="bevel" transform="matrix(0.952532,0,0,0.952532,-398.873,-105.494)"
font-family="Helvetica" font-size="12" font-weight="400" font-style="normal" 
clip-path="url(#clip4865)" >
<defs><clipPath id="clip4865"><path vector-effect="non-scaling-stroke" fill-rule="evenodd" d="M424,116 L1056,116 L1056,221 L424,221 L424,116z "/>
</clipPath></defs></g>

<g fill="none" stroke="#000000" stroke-opacity="1" stroke-width="1" stroke-linecap="butt" stroke-linejoin="miter" stroke-miterlimit="2" transform="matrix(0.952532,0,0,0.952532,-398.873,-105.494)"
font-family="Helvetica" font-size="12" font-weight="400" font-style="normal" 
clip-path="url(#clip4865)" >
<path vector-effect="none" fill-rule="evenodd" d="M460,160 L627,160"/>
</g>

<g fill="none" stroke="#000000" stroke-opacity="1" stroke-width="1" stroke-linecap="square" stroke-linejoin="bevel" transform="matrix(0.952532,0,0,0.952532,-398.873,-105.494)"
font-family="Helvetica" font-size="12" font-weight="400" font-style="normal" 
clip-path="url(#clip4865)" >
</g>

<g fill="none" stroke="#000000" stroke-opacity="1" stroke-width="1" stroke-linecap="square" stroke-linejoin="bevel" transform="matrix(1,0,0,1,0,0)"
font-family="Helvetica" font-size="12" font-weight="400" font-style="normal" 
>
</g>

<g fill="none" stroke="#000000" stroke-opacity="1" stroke-width="1" stroke-linecap="square" stroke-linejoin="bevel" transform="matrix(1,0,0,1,0,0)"
font-family="Helvetica" font-size="12" font-weight="400" font-style="normal" 
>
</g>

<g fill="none" stroke="#000000" stroke-opacity="1" stroke-width="1" stroke-linecap="square" stroke-linejoin="bevel" transform="matrix(1,0,0,1,0,0)"
font-family="Helvetica" font-size="12" font-weight="400" font-style="normal" 
clip-path="url(#clip4866)" >
<defs><clipPath id="clip4866"><path vector-effect="non-scaling-stroke" fill-rule="evenodd" d="M0,0 L612,0 L612,110 L0,110 L0,0z "/>
</clipPath></defs></g>

<g fill="none" stroke="#000000" stroke-opacity="1" stroke-width="1" stroke-linecap="square" stroke-linejoin="bevel" transform="matrix(1,0,0,1,0,0)"
font-family="Helvetica" font-size="12" font-weight="400" font-style="normal" 
clip-path="url(#clip4866)" >
</g>

<g fill="#000000" fill-opacity="0" stroke="none" transform="matrix(1,0,0,1,0,0)"
font-family="Helvetica" font-size="12" font-weight="400" font-style="normal" 
clip-path="url(#clip4866)" >
<path vector-effect="non-scaling-stroke" fill-rule="evenodd" d="M0,0 L612,0 L612,110 L0,110 L0,0z "/>
</g>

<g fill="none" stroke="#000000" stroke-opacity="1" stroke-width="1" stroke-linecap="square" stroke-linejoin="bevel" transform="matrix(1,0,0,1,0,0)"
font-family="Helvetica" font-size="12" font-weight="400" font-style="normal" 
clip-path="url(#clip4866)" >
</g>

<g fill="none" stroke="#000000" stroke-opacity="1" stroke-width="1" stroke-linecap="square" stroke-linejoin="bevel" transform="matrix(1,0,0,1,0,0)"
font-family="Helvetica" font-size="12" font-weight="400" font-style="normal" 
>
</g>

<g fill="none" stroke="#000000" stroke-opacity="1" stroke-width="1" stroke-linecap="square" stroke-linejoin="bevel" transform="matrix(1,0,0,1,0,0)"
font-family="Helvetica" font-size="12" font-weight="400" font-style="normal" 
>
</g>

<g fill="none" stroke="#000000" stroke-opacity="1" stroke-width="1" stroke-linecap="square" stroke-linejoin="bevel" transform="matrix(1,0,0,1,0,0)"
font-family="Helvetica" font-size="12" font-weight="400" font-style="normal" 
clip-path="url(#clip4867)" >
<defs><clipPath id="clip4867"><path vector-effect="non-scaling-stroke" fill-rule="evenodd" d="M0,0 L1,0 L1,1 L0,1 L0,0z "/>
</clipPath></defs></g>

<g fill="none" stroke="#000000" stroke-opacity="1" stroke-width="1" stroke-linecap="square" stroke-linejoin="bevel" transform="matrix(1,0,0,1,0,0)"
font-family="Helvetica" font-size="12" font-weight="400" font-style="normal" 
clip-path="url(#clip4867)" >
</g>

<g fill="#000000" fill-opacity="0" stroke="none" transform="matrix(1,0,0,1,0,0)"
font-family="Helvetica" font-size="12" font-weight="400" font-style="normal" 
clip-path="url(#clip4867)" >
<path vector-effect="non-scaling-stroke" fill-rule="evenodd" d="M0,0 L1,0 L1,1 L0,1 L0,0z "/>
</g>

<g fill="none" stroke="#000000" stroke-opacity="1" stroke-width="1" stroke-linecap="square" stroke-linejoin="bevel" transform="matrix(1,0,0,1,0,0)"
font-family="Helvetica" font-size="12" font-weight="400" font-style="normal" 
clip-path="url(#clip4867)" >
</g>

<g fill="none" stroke="#000000" stroke-opacity="1" stroke-width="1" stroke-linecap="square" stroke-linejoin="bevel" transform="matrix(1,0,0,1,0,0)"
font-family="Helvetica" font-size="12" font-weight="400" font-style="normal" 
>
</g>

<g fill="none" stroke="#000000" stroke-opacity="1" stroke-width="1" stroke-linecap="square" stroke-linejoin="bevel" transform="matrix(1,0,0,1,0,0)"
font-family="Helvetica" font-size="12" font-weight="400" font-style="normal" 
>
</g>
</g>
</svg>
