<?xml version="1.0" encoding="UTF-8" standalone="no"?>
<svg width="79.0222mm" height="18.6972mm"
 viewBox="0 0 224 53"
 xmlns="http://www.w3.org/2000/svg" xmlns:xlink="http://www.w3.org/1999/xlink"  version="1.2" baseProfile="tiny">
<defs>
</defs>
<g fill="none" stroke="black" stroke-width="1" fill-rule="evenodd" stroke-linecap="square" stroke-linejoin="bevel" >

<g fill="#ffffff" fill-opacity="1" stroke="none" transform="matrix(1,0,0,1,0,0)"
font-family="Helvetica" font-size="12" font-weight="400" font-style="normal" 
>
<path vector-effect="non-scaling-stroke" fill-rule="evenodd" d="M0,0 L224,0 L224,53 L0,53 L0,0z "/>
</g>

<g fill="none" stroke="#000000" stroke-opacity="1" stroke-width="1" stroke-linecap="square" stroke-linejoin="bevel" transform="matrix(1,0,0,1,0,0)"
font-family="Helvetica" font-size="12" font-weight="400" font-style="normal" 
>
</g>

<g fill="none" stroke="#000000" stroke-opacity="1" stroke-width="1" stroke-linecap="square" stroke-linejoin="bevel" transform="matrix(1,0,0,1,0,0)"
font-family="Helvetica" font-size="12" font-weight="400" font-style="normal" 
clip-path="url(#clip4537)" >
<defs><clipPath id="clip4537"><path vector-effect="non-scaling-stroke" fill-rule="evenodd" d="M5,5 L219.625,5 L219.625,48 L5,48 L5,5z "/>
</clipPath></defs></g>

<g fill="none" stroke="#000000" stroke-opacity="1" stroke-width="1" stroke-linecap="square" stroke-linejoin="bevel" transform="matrix(1,0,0,1,-26.375,-57)"
font-family="Helvetica" font-size="12" font-weight="400" font-style="normal" 
clip-path="url(#clip4538)" >
<defs><clipPath id="clip4538"><path vector-effect="non-scaling-stroke" fill-rule="evenodd" d="M31.375,62 L246,62 L246,105 L31.375,105 L31.375,62z "/>
</clipPath></defs></g>

<g fill="#000000" fill-opacity="0" stroke="none" transform="matrix(1,0,0,1,-26.375,-57)"
font-family="Helvetica" font-size="12" font-weight="400" font-style="normal" 
clip-path="url(#clip4538)" >
<path vector-effect="non-scaling-stroke" fill-rule="evenodd" d="M31.375,62 L246,62 L246,105 L31.375,105 L31.375,62z "/>
</g>

<g fill="none" stroke="#000000" stroke-opacity="1" stroke-width="1" stroke-linecap="square" stroke-linejoin="bevel" transform="matrix(1,0,0,1,-26.375,-57)"
font-family="Helvetica" font-size="12" font-weight="400" font-style="normal" 
clip-path="url(#clip4538)" >
</g>

<g fill="none" stroke="#000000" stroke-opacity="1" stroke-width="1" stroke-linecap="square" stroke-linejoin="bevel" transform="matrix(1,0,0,1,183.625,11)"
font-family="Helvetica" font-size="12" font-weight="400" font-style="normal" 
clip-path="url(#clip4539)" >
<defs><clipPath id="clip4539"><path vector-effect="non-scaling-stroke" fill-rule="evenodd" d="M-178.625,-6 L36,-6 L36,37 L-178.625,37 L-178.625,-6z "/>
</clipPath></defs></g>

<g fill="#ffffff" fill-opacity="1" stroke="none" transform="matrix(1,0,0,1,184,11)"
font-family="Helvetica" font-size="12" font-weight="400" font-style="normal" 
clip-path="url(#clip4540)" >
<defs><clipPath id="clip4540"><path vector-effect="none" fill-rule="evenodd" d="M-179,-6 L35.625,-6 L35.625,37 L-179,37 L-179,-6z "/>
</clipPath></defs><path vector-effect="none" fill-rule="nonzero" d="M7,0 L23,0 C26.866,0 30,3.13401 30,7 C30,10.866 26.866,14 23,14 L7,14 C3.13401,14 0,10.866 0,7 C0,3.13401 3.13401,0 7,0 z "/>
</g>

<g fill="none" stroke="#000000" stroke-opacity="1" stroke-width="1" stroke-linecap="square" stroke-linejoin="bevel" transform="matrix(1,0,0,1,183.625,11)"
font-family="Helvetica" font-size="12" font-weight="400" font-style="normal" 
clip-path="url(#clip4541)" >
<defs><clipPath id="clip4541"><path vector-effect="non-scaling-stroke" fill-rule="evenodd" d="M-178.625,-6 L36,-6 L36,37 L-178.625,37 L-178.625,-6z "/>
</clipPath></defs></g>

<g fill="none" stroke="#000000" stroke-opacity="1" stroke-width="1" stroke-linecap="square" stroke-linejoin="bevel" transform="matrix(1,0,0,1,183.625,11)"
font-family="Helvetica" font-size="12" font-weight="400" font-style="normal" 
clip-path="url(#clip4541)" >
</g>

<g fill="none" stroke="#000000" stroke-opacity="1" stroke-width="1" stroke-linecap="square" stroke-linejoin="bevel" transform="matrix(1,0,0,1,184,11)"
font-family="Helvetica" font-size="12" font-weight="400" font-style="normal" 
clip-path="url(#clip4542)" >
<defs><clipPath id="clip4542"><path vector-effect="non-scaling-stroke" fill-rule="evenodd" d="M0,0 L30,0 L30,14 L0,14 L0,0z "/>
</clipPath></defs></g>

<g fill="none" stroke="#000000" stroke-opacity="1" stroke-width="1" stroke-linecap="square" stroke-linejoin="bevel" transform="matrix(1,0,0,1,199,18)"
font-family="Helvetica" font-size="7.5" font-weight="400" font-style="normal" 
clip-path="url(#clip4543)" >
<defs><clipPath id="clip4543"><path vector-effect="none" fill-rule="evenodd" d="M-15,-7 L15,-7 L15,7 L-15,7 L-15,-7z "/>
</clipPath></defs></g>

<g fill="none" stroke="#000000" stroke-opacity="1" stroke-width="1" stroke-linecap="square" stroke-linejoin="bevel" transform="matrix(1.33333,0,0,1.33333,199,18)"
font-family="Helvetica" font-size="7.5" font-weight="400" font-style="normal" 
clip-path="url(#clip4544)" >
<defs><clipPath id="clip4544"><path vector-effect="none" fill-rule="evenodd" d="M-11,-5 L12,-5 L12,6 L-11,6 L-11,-5z "/>
</clipPath></defs><text textLength="4" fill="#000000" fill-opacity="1" stroke="none" xml:space="preserve" x="-2.25" y="2.25" font-family="Helvetica" font-size="7.5" font-weight="400" font-style="normal" 
 >1</text>
</g>

<g fill="none" stroke="#000000" stroke-opacity="1" stroke-width="1" stroke-linecap="square" stroke-linejoin="bevel" transform="matrix(1,0,0,1,199,18)"
font-family="Helvetica" font-size="7.5" font-weight="400" font-style="normal" 
clip-path="url(#clip4545)" >
<defs><clipPath id="clip4545"><path vector-effect="none" fill-rule="evenodd" d="M-15,-7 L15,-7 L15,7 L-15,7 L-15,-7z "/>
</clipPath></defs></g>

<g fill="none" stroke="#000000" stroke-opacity="1" stroke-width="1" stroke-linecap="square" stroke-linejoin="bevel" transform="matrix(0.75,0,0,0.75,199,18)"
font-family="Helvetica" font-size="7.5" font-weight="400" font-style="normal" 
clip-path="url(#clip4546)" >
<defs><clipPath id="clip4546"><path vector-effect="none" fill-rule="evenodd" d="M-178.625,-6 L36,-6 L36,37 L-178.625,37 L-178.625,-6z "/>
</clipPath></defs></g>

<g fill="none" stroke="#000000" stroke-opacity="1" stroke-width="1" stroke-linecap="square" stroke-linejoin="bevel" transform="matrix(1,0,0,1,0,0)"
font-family="Helvetica" font-size="7.5" font-weight="400" font-style="normal" 
clip-path="url(#clip4546)" >
</g>

<g fill="none" stroke="#000000" stroke-opacity="1" stroke-width="1" stroke-linecap="square" stroke-linejoin="bevel" transform="matrix(1,0,0,1,183.625,11)"
font-family="Helvetica" font-size="12" font-weight="400" font-style="normal" 
clip-path="url(#clip4546)" >
</g>

<g fill="none" stroke="#000000" stroke-opacity="1" stroke-width="1" stroke-linecap="square" stroke-linejoin="bevel" transform="matrix(1,0,0,1,183.625,11)"
font-family="Helvetica" font-size="12" font-weight="400" font-style="normal" 
clip-path="url(#clip4546)" >
</g>

<g fill="none" stroke="#000000" stroke-opacity="1" stroke-width="1" stroke-linecap="butt" stroke-linejoin="miter" stroke-miterlimit="2" transform="matrix(1,0,0,1,183.5,11.5)"
font-family="Helvetica" font-size="12" font-weight="400" font-style="normal" 
clip-path="url(#clip4547)" >
<defs><clipPath id="clip4547"><path vector-effect="none" fill-rule="evenodd" d="M-178.5,-6.5 L36.125,-6.5 L36.125,36.5 L-178.5,36.5 L-178.5,-6.5z "/>
</clipPath></defs><path vector-effect="none" fill-rule="nonzero" d="M7,0 L23,0 C26.866,0 30,3.13401 30,7 C30,10.866 26.866,14 23,14 L7,14 C3.13401,14 0,10.866 0,7 C0,3.13401 3.13401,0 7,0 z "/>
</g>

<g fill="none" stroke="#000000" stroke-opacity="1" stroke-width="1" stroke-linecap="square" stroke-linejoin="bevel" transform="matrix(1,0,0,1,183.625,11)"
font-family="Helvetica" font-size="12" font-weight="400" font-style="normal" 
clip-path="url(#clip4548)" >
<defs><clipPath id="clip4548"><path vector-effect="non-scaling-stroke" fill-rule="evenodd" d="M-178.625,-6 L36,-6 L36,37 L-178.625,37 L-178.625,-6z "/>
</clipPath></defs></g>

<g fill="none" stroke="#000000" stroke-opacity="1" stroke-width="1" stroke-linecap="square" stroke-linejoin="bevel" transform="matrix(1,0,0,1,198.625,27)"
font-family="Helvetica" font-size="12" font-weight="400" font-style="normal" 
clip-path="url(#clip4549)" >
<defs><clipPath id="clip4549"><path vector-effect="non-scaling-stroke" fill-rule="evenodd" d="M-193.625,-22 L21,-22 L21,21 L-193.625,21 L-193.625,-22z "/>
</clipPath></defs></g>

<g fill="none" stroke="none" transform="matrix(1,0,0,1,198.625,27)"
font-family="Helvetica" font-size="12" font-weight="400" font-style="normal" 
clip-path="url(#clip4549)" >
<path vector-effect="none" fill-rule="evenodd" d="M-11.625,0 L11.625,0 L11.625,15 L-11.625,15 L-11.625,0z "/>
</g>

<g fill="none" stroke="#000000" stroke-opacity="1" stroke-width="1" stroke-linecap="square" stroke-linejoin="bevel" transform="matrix(0.25,0,0,0.25,187,27)"
font-family="Helvetica" font-size="40" font-weight="400" font-style="normal" 
clip-path="url(#clip4550)" >
<defs><clipPath id="clip4550"><path vector-effect="non-scaling-stroke" fill-rule="evenodd" d="M-728,-88 L130.5,-88 L130.5,84 L-728,84 L-728,-88z "/>
</clipPath></defs></g>

<g fill="none" stroke="#000000" stroke-opacity="1" stroke-width="1" stroke-linecap="square" stroke-linejoin="bevel" transform="matrix(0.25,0,0,0.25,187,27)"
font-family="Helvetica" font-size="40" font-weight="400" font-style="normal" 
clip-path="url(#clip4550)" >
</g>

<g fill="none" stroke="#000000" stroke-opacity="1" stroke-width="1" stroke-linecap="square" stroke-linejoin="bevel" transform="matrix(0.25,0,0,0.25,187,27)"
font-family="Helvetica" font-size="40" font-weight="400" font-style="normal" 
clip-path="url(#clip4551)" >
<defs><clipPath id="clip4551"><path vector-effect="non-scaling-stroke" fill-rule="evenodd" d="M0,0 L93,0 L93,60 L0,60 L0,0z "/>
</clipPath></defs><text textLength="85" fill="#000000" fill-opacity="1" stroke="none" xml:space="preserve" x="4" y="41" font-family="Helvetica" font-size="40" font-weight="400" font-style="normal" 
 >Out1</text>
</g>

<g fill="none" stroke="#000000" stroke-opacity="1" stroke-width="1" stroke-linecap="square" stroke-linejoin="bevel" transform="matrix(0.25,0,0,0.25,187,27)"
font-family="Helvetica" font-size="40" font-weight="400" font-style="normal" 
clip-path="url(#clip4552)" >
<defs><clipPath id="clip4552"><path vector-effect="non-scaling-stroke" fill-rule="evenodd" d="M-728,-88 L130.5,-88 L130.5,84 L-728,84 L-728,-88z "/>
</clipPath></defs></g>

<g fill="none" stroke="#000000" stroke-opacity="1" stroke-width="1" stroke-linecap="square" stroke-linejoin="bevel" transform="matrix(1,0,0,1,0,0)"
font-family="Helvetica" font-size="40" font-weight="400" font-style="normal" 
clip-path="url(#clip4552)" >
</g>

<g fill="none" stroke="#000000" stroke-opacity="1" stroke-width="1" stroke-linecap="square" stroke-linejoin="bevel" transform="matrix(0.25,0,0,0.25,187,27)"
font-family="Helvetica" font-size="40" font-weight="400" font-style="normal" 
clip-path="url(#clip4552)" >
</g>

<g fill="none" stroke="#000000" stroke-opacity="1" stroke-width="1" stroke-linecap="square" stroke-linejoin="bevel" transform="matrix(0.25,0,0,0.25,187,27)"
font-family="Helvetica" font-size="40" font-weight="400" font-style="normal" 
clip-path="url(#clip4552)" >
</g>

<g fill="none" stroke="#000000" stroke-opacity="1" stroke-width="1" stroke-linecap="square" stroke-linejoin="bevel" transform="matrix(1,0,0,1,198.625,27)"
font-family="Helvetica" font-size="12" font-weight="400" font-style="normal" 
clip-path="url(#clip4553)" >
<defs><clipPath id="clip4553"><path vector-effect="non-scaling-stroke" fill-rule="evenodd" d="M-193.625,-22 L21,-22 L21,21 L-193.625,21 L-193.625,-22z "/>
</clipPath></defs></g>

<g fill="none" stroke="#000000" stroke-opacity="1" stroke-width="1" stroke-linecap="square" stroke-linejoin="bevel" transform="matrix(1,0,0,1,13.625,11)"
font-family="Helvetica" font-size="12" font-weight="400" font-style="normal" 
clip-path="url(#clip4554)" >
<defs><clipPath id="clip4554"><path vector-effect="non-scaling-stroke" fill-rule="evenodd" d="M-8.625,-6 L206,-6 L206,37 L-8.625,37 L-8.625,-6z "/>
</clipPath></defs></g>

<g fill="#ffffff" fill-opacity="1" stroke="none" transform="matrix(1,0,0,1,14,11)"
font-family="Helvetica" font-size="12" font-weight="400" font-style="normal" 
clip-path="url(#clip4555)" >
<defs><clipPath id="clip4555"><path vector-effect="none" fill-rule="evenodd" d="M-9,-6 L205.625,-6 L205.625,37 L-9,37 L-9,-6z "/>
</clipPath></defs><path vector-effect="none" fill-rule="nonzero" d="M7,0 L23,0 C26.866,0 30,3.13401 30,7 C30,10.866 26.866,14 23,14 L7,14 C3.13401,14 0,10.866 0,7 C0,3.13401 3.13401,0 7,0 z "/>
</g>

<g fill="none" stroke="#000000" stroke-opacity="1" stroke-width="1" stroke-linecap="square" stroke-linejoin="bevel" transform="matrix(1,0,0,1,13.625,11)"
font-family="Helvetica" font-size="12" font-weight="400" font-style="normal" 
clip-path="url(#clip4556)" >
<defs><clipPath id="clip4556"><path vector-effect="non-scaling-stroke" fill-rule="evenodd" d="M-8.625,-6 L206,-6 L206,37 L-8.625,37 L-8.625,-6z "/>
</clipPath></defs></g>

<g fill="none" stroke="#000000" stroke-opacity="1" stroke-width="1" stroke-linecap="square" stroke-linejoin="bevel" transform="matrix(1,0,0,1,13.625,11)"
font-family="Helvetica" font-size="12" font-weight="400" font-style="normal" 
clip-path="url(#clip4556)" >
</g>

<g fill="none" stroke="#000000" stroke-opacity="1" stroke-width="1" stroke-linecap="square" stroke-linejoin="bevel" transform="matrix(1,0,0,1,14,11)"
font-family="Helvetica" font-size="12" font-weight="400" font-style="normal" 
clip-path="url(#clip4557)" >
<defs><clipPath id="clip4557"><path vector-effect="non-scaling-stroke" fill-rule="evenodd" d="M0,0 L30,0 L30,14 L0,14 L0,0z "/>
</clipPath></defs></g>

<g fill="none" stroke="#000000" stroke-opacity="1" stroke-width="1" stroke-linecap="square" stroke-linejoin="bevel" transform="matrix(1,0,0,1,29,18)"
font-family="Helvetica" font-size="7.5" font-weight="400" font-style="normal" 
clip-path="url(#clip4558)" >
<defs><clipPath id="clip4558"><path vector-effect="none" fill-rule="evenodd" d="M-15,-7 L15,-7 L15,7 L-15,7 L-15,-7z "/>
</clipPath></defs></g>

<g fill="none" stroke="#000000" stroke-opacity="1" stroke-width="1" stroke-linecap="square" stroke-linejoin="bevel" transform="matrix(1.33333,0,0,1.33333,29,18)"
font-family="Helvetica" font-size="7.5" font-weight="400" font-style="normal" 
clip-path="url(#clip4559)" >
<defs><clipPath id="clip4559"><path vector-effect="none" fill-rule="evenodd" d="M-11,-5 L12,-5 L12,6 L-11,6 L-11,-5z "/>
</clipPath></defs><text textLength="4" fill="#000000" fill-opacity="1" stroke="none" xml:space="preserve" x="-2.25" y="2.25" font-family="Helvetica" font-size="7.5" font-weight="400" font-style="normal" 
 >1</text>
</g>

<g fill="none" stroke="#000000" stroke-opacity="1" stroke-width="1" stroke-linecap="square" stroke-linejoin="bevel" transform="matrix(1,0,0,1,29,18)"
font-family="Helvetica" font-size="7.5" font-weight="400" font-style="normal" 
clip-path="url(#clip4560)" >
<defs><clipPath id="clip4560"><path vector-effect="none" fill-rule="evenodd" d="M-15,-7 L15,-7 L15,7 L-15,7 L-15,-7z "/>
</clipPath></defs></g>

<g fill="none" stroke="#000000" stroke-opacity="1" stroke-width="1" stroke-linecap="square" stroke-linejoin="bevel" transform="matrix(0.75,0,0,0.75,29,18)"
font-family="Helvetica" font-size="7.5" font-weight="400" font-style="normal" 
clip-path="url(#clip4561)" >
<defs><clipPath id="clip4561"><path vector-effect="none" fill-rule="evenodd" d="M-8.625,-6 L206,-6 L206,37 L-8.625,37 L-8.625,-6z "/>
</clipPath></defs></g>

<g fill="none" stroke="#000000" stroke-opacity="1" stroke-width="1" stroke-linecap="square" stroke-linejoin="bevel" transform="matrix(1,0,0,1,0,0)"
font-family="Helvetica" font-size="7.5" font-weight="400" font-style="normal" 
clip-path="url(#clip4561)" >
</g>

<g fill="none" stroke="#000000" stroke-opacity="1" stroke-width="1" stroke-linecap="square" stroke-linejoin="bevel" transform="matrix(1,0,0,1,13.625,11)"
font-family="Helvetica" font-size="12" font-weight="400" font-style="normal" 
clip-path="url(#clip4561)" >
</g>

<g fill="none" stroke="#000000" stroke-opacity="1" stroke-width="1" stroke-linecap="square" stroke-linejoin="bevel" transform="matrix(1,0,0,1,13.625,11)"
font-family="Helvetica" font-size="12" font-weight="400" font-style="normal" 
clip-path="url(#clip4561)" >
</g>

<g fill="none" stroke="#000000" stroke-opacity="1" stroke-width="1" stroke-linecap="butt" stroke-linejoin="miter" stroke-miterlimit="2" transform="matrix(1,0,0,1,13.5,11.5)"
font-family="Helvetica" font-size="12" font-weight="400" font-style="normal" 
clip-path="url(#clip4562)" >
<defs><clipPath id="clip4562"><path vector-effect="none" fill-rule="evenodd" d="M-8.5,-6.5 L206.125,-6.5 L206.125,36.5 L-8.5,36.5 L-8.5,-6.5z "/>
</clipPath></defs><path vector-effect="none" fill-rule="nonzero" d="M7,0 L23,0 C26.866,0 30,3.13401 30,7 C30,10.866 26.866,14 23,14 L7,14 C3.13401,14 0,10.866 0,7 C0,3.13401 3.13401,0 7,0 z "/>
</g>

<g fill="none" stroke="#000000" stroke-opacity="1" stroke-width="1" stroke-linecap="square" stroke-linejoin="bevel" transform="matrix(1,0,0,1,13.625,11)"
font-family="Helvetica" font-size="12" font-weight="400" font-style="normal" 
clip-path="url(#clip4563)" >
<defs><clipPath id="clip4563"><path vector-effect="non-scaling-stroke" fill-rule="evenodd" d="M-8.625,-6 L206,-6 L206,37 L-8.625,37 L-8.625,-6z "/>
</clipPath></defs></g>

<g fill="none" stroke="#000000" stroke-opacity="1" stroke-width="1" stroke-linecap="square" stroke-linejoin="bevel" transform="matrix(1,0,0,1,28.625,27)"
font-family="Helvetica" font-size="12" font-weight="400" font-style="normal" 
clip-path="url(#clip4564)" >
<defs><clipPath id="clip4564"><path vector-effect="non-scaling-stroke" fill-rule="evenodd" d="M-23.625,-22 L191,-22 L191,21 L-23.625,21 L-23.625,-22z "/>
</clipPath></defs></g>

<g fill="none" stroke="none" transform="matrix(1,0,0,1,28.625,27)"
font-family="Helvetica" font-size="12" font-weight="400" font-style="normal" 
clip-path="url(#clip4564)" >
<path vector-effect="none" fill-rule="evenodd" d="M-17.625,0 L17.625,0 L17.625,15 L-17.625,15 L-17.625,0z "/>
</g>

<g fill="none" stroke="#000000" stroke-opacity="1" stroke-width="1" stroke-linecap="square" stroke-linejoin="bevel" transform="matrix(0.25,0,0,0.25,11,27)"
font-family="Helvetica" font-size="40" font-weight="400" font-style="normal" 
clip-path="url(#clip4565)" >
<defs><clipPath id="clip4565"><path vector-effect="non-scaling-stroke" fill-rule="evenodd" d="M-24,-88 L834.5,-88 L834.5,84 L-24,84 L-24,-88z "/>
</clipPath></defs></g>

<g fill="none" stroke="#000000" stroke-opacity="1" stroke-width="1" stroke-linecap="square" stroke-linejoin="bevel" transform="matrix(0.25,0,0,0.25,11,27)"
font-family="Helvetica" font-size="40" font-weight="400" font-style="normal" 
clip-path="url(#clip4565)" >
</g>

<g fill="none" stroke="#000000" stroke-opacity="1" stroke-width="1" stroke-linecap="square" stroke-linejoin="bevel" transform="matrix(0.25,0,0,0.25,11,27)"
font-family="Helvetica" font-size="40" font-weight="400" font-style="normal" 
clip-path="url(#clip4566)" >
<defs><clipPath id="clip4566"><path vector-effect="non-scaling-stroke" fill-rule="evenodd" d="M0,0 L141,0 L141,60 L0,60 L0,0z "/>
</clipPath></defs><text textLength="133" fill="#000000" fill-opacity="1" stroke="none" xml:space="preserve" x="4" y="41" font-family="Helvetica" font-size="40" font-weight="400" font-style="normal" 
 >position</text>
</g>

<g fill="none" stroke="#000000" stroke-opacity="1" stroke-width="1" stroke-linecap="square" stroke-linejoin="bevel" transform="matrix(0.25,0,0,0.25,11,27)"
font-family="Helvetica" font-size="40" font-weight="400" font-style="normal" 
clip-path="url(#clip4567)" >
<defs><clipPath id="clip4567"><path vector-effect="non-scaling-stroke" fill-rule="evenodd" d="M-24,-88 L834.5,-88 L834.5,84 L-24,84 L-24,-88z "/>
</clipPath></defs></g>

<g fill="none" stroke="#000000" stroke-opacity="1" stroke-width="1" stroke-linecap="square" stroke-linejoin="bevel" transform="matrix(1,0,0,1,0,0)"
font-family="Helvetica" font-size="40" font-weight="400" font-style="normal" 
clip-path="url(#clip4567)" >
</g>

<g fill="none" stroke="#000000" stroke-opacity="1" stroke-width="1" stroke-linecap="square" stroke-linejoin="bevel" transform="matrix(0.25,0,0,0.25,11,27)"
font-family="Helvetica" font-size="40" font-weight="400" font-style="normal" 
clip-path="url(#clip4567)" >
</g>

<g fill="none" stroke="#000000" stroke-opacity="1" stroke-width="1" stroke-linecap="square" stroke-linejoin="bevel" transform="matrix(0.25,0,0,0.25,11,27)"
font-family="Helvetica" font-size="40" font-weight="400" font-style="normal" 
clip-path="url(#clip4567)" >
</g>

<g fill="none" stroke="#000000" stroke-opacity="1" stroke-width="1" stroke-linecap="square" stroke-linejoin="bevel" transform="matrix(1,0,0,1,28.625,27)"
font-family="Helvetica" font-size="12" font-weight="400" font-style="normal" 
clip-path="url(#clip4568)" >
<defs><clipPath id="clip4568"><path vector-effect="non-scaling-stroke" fill-rule="evenodd" d="M-23.625,-22 L191,-22 L191,21 L-23.625,21 L-23.625,-22z "/>
</clipPath></defs></g>

<g fill="none" stroke="#000000" stroke-opacity="1" stroke-width="1" stroke-linecap="square" stroke-linejoin="bevel" transform="matrix(1,0,0,1,183.625,18)"
font-family="Helvetica" font-size="12" font-weight="400" font-style="normal" 
clip-path="url(#clip4569)" >
<defs><clipPath id="clip4569"><path vector-effect="non-scaling-stroke" fill-rule="evenodd" d="M-178.625,-13 L36,-13 L36,30 L-178.625,30 L-178.625,-13z "/>
</clipPath></defs></g>

<g fill="#000000" fill-opacity="1" stroke="none" transform="matrix(1,0,0,1,184,18)"
font-family="Helvetica" font-size="12" font-weight="400" font-style="normal" 
clip-path="url(#clip4570)" >
<defs><clipPath id="clip4570"><path vector-effect="none" fill-rule="evenodd" d="M-179,-13 L35.625,-13 L35.625,30 L-179,30 L-179,-13z "/>
</clipPath></defs><path vector-effect="none" fill-rule="nonzero" d="M0,0 L-8,-4 L-8,4 L0,0z "/>
</g>

<g fill="none" stroke="#000000" stroke-opacity="1" stroke-width="1" stroke-linecap="square" stroke-linejoin="bevel" transform="matrix(1,0,0,1,183.625,18)"
font-family="Helvetica" font-size="12" font-weight="400" font-style="normal" 
clip-path="url(#clip4571)" >
<defs><clipPath id="clip4571"><path vector-effect="non-scaling-stroke" fill-rule="evenodd" d="M-178.625,-13 L36,-13 L36,30 L-178.625,30 L-178.625,-13z "/>
</clipPath></defs></g>

<g fill="none" stroke="#000000" stroke-opacity="1" stroke-width="1" stroke-linecap="square" stroke-linejoin="bevel" transform="matrix(1,0,0,1,-26.375,-57)"
font-family="Helvetica" font-size="12" font-weight="400" font-style="normal" 
clip-path="url(#clip4572)" >
<defs><clipPath id="clip4572"><path vector-effect="non-scaling-stroke" fill-rule="evenodd" d="M31.375,62 L246,62 L246,105 L31.375,105 L31.375,62z "/>
</clipPath></defs></g>

<g fill="none" stroke="#000000" stroke-opacity="1" stroke-width="1" stroke-linecap="butt" stroke-linejoin="miter" stroke-miterlimit="2" transform="matrix(1,0,0,1,-26,-57)"
font-family="Helvetica" font-size="12" font-weight="400" font-style="normal" 
clip-path="url(#clip4573)" >
<defs><clipPath id="clip4573"><path vector-effect="none" fill-rule="evenodd" d="M31,62 L245.625,62 L245.625,105 L31,105 L31,62z "/>
</clipPath></defs><path vector-effect="none" fill-rule="evenodd" d="M70,75 L202,75"/>
</g>

<g fill="none" stroke="#000000" stroke-opacity="1" stroke-width="1" stroke-linecap="square" stroke-linejoin="bevel" transform="matrix(1,0,0,1,-26.375,-57)"
font-family="Helvetica" font-size="12" font-weight="400" font-style="normal" 
clip-path="url(#clip4574)" >
<defs><clipPath id="clip4574"><path vector-effect="non-scaling-stroke" fill-rule="evenodd" d="M31.375,62 L246,62 L246,105 L31.375,105 L31.375,62z "/>
</clipPath></defs></g>

<g fill="none" stroke="#000000" stroke-opacity="1" stroke-width="1" stroke-linecap="square" stroke-linejoin="bevel" transform="matrix(1,0,0,1,0,0)"
font-family="Helvetica" font-size="12" font-weight="400" font-style="normal" 
>
</g>

<g fill="none" stroke="#000000" stroke-opacity="1" stroke-width="1" stroke-linecap="square" stroke-linejoin="bevel" transform="matrix(1,0,0,1,0,0)"
font-family="Helvetica" font-size="12" font-weight="400" font-style="normal" 
>
</g>

<g fill="none" stroke="#000000" stroke-opacity="1" stroke-width="1" stroke-linecap="square" stroke-linejoin="bevel" transform="matrix(1,0,0,1,0,0)"
font-family="Helvetica" font-size="12" font-weight="400" font-style="normal" 
clip-path="url(#clip4575)" >
<defs><clipPath id="clip4575"><path vector-effect="non-scaling-stroke" fill-rule="evenodd" d="M0,0 L224,0 L224,53 L0,53 L0,0z "/>
</clipPath></defs></g>

<g fill="none" stroke="#000000" stroke-opacity="1" stroke-width="1" stroke-linecap="square" stroke-linejoin="bevel" transform="matrix(1,0,0,1,0,0)"
font-family="Helvetica" font-size="12" font-weight="400" font-style="normal" 
clip-path="url(#clip4575)" >
</g>

<g fill="#000000" fill-opacity="0" stroke="none" transform="matrix(1,0,0,1,0,0)"
font-family="Helvetica" font-size="12" font-weight="400" font-style="normal" 
clip-path="url(#clip4575)" >
<path vector-effect="non-scaling-stroke" fill-rule="evenodd" d="M0,0 L224,0 L224,53 L0,53 L0,0z "/>
</g>

<g fill="none" stroke="#000000" stroke-opacity="1" stroke-width="1" stroke-linecap="square" stroke-linejoin="bevel" transform="matrix(1,0,0,1,0,0)"
font-family="Helvetica" font-size="12" font-weight="400" font-style="normal" 
clip-path="url(#clip4575)" >
</g>

<g fill="none" stroke="#000000" stroke-opacity="1" stroke-width="1" stroke-linecap="square" stroke-linejoin="bevel" transform="matrix(1,0,0,1,0,0)"
font-family="Helvetica" font-size="12" font-weight="400" font-style="normal" 
>
</g>

<g fill="none" stroke="#000000" stroke-opacity="1" stroke-width="1" stroke-linecap="square" stroke-linejoin="bevel" transform="matrix(1,0,0,1,0,0)"
font-family="Helvetica" font-size="12" font-weight="400" font-style="normal" 
>
</g>

<g fill="none" stroke="#000000" stroke-opacity="1" stroke-width="1" stroke-linecap="square" stroke-linejoin="bevel" transform="matrix(1,0,0,1,0,0)"
font-family="Helvetica" font-size="12" font-weight="400" font-style="normal" 
clip-path="url(#clip4576)" >
<defs><clipPath id="clip4576"><path vector-effect="non-scaling-stroke" fill-rule="evenodd" d="M0,0 L1,0 L1,1 L0,1 L0,0z "/>
</clipPath></defs></g>

<g fill="none" stroke="#000000" stroke-opacity="1" stroke-width="1" stroke-linecap="square" stroke-linejoin="bevel" transform="matrix(1,0,0,1,0,0)"
font-family="Helvetica" font-size="12" font-weight="400" font-style="normal" 
clip-path="url(#clip4576)" >
</g>

<g fill="#000000" fill-opacity="0" stroke="none" transform="matrix(1,0,0,1,0,0)"
font-family="Helvetica" font-size="12" font-weight="400" font-style="normal" 
clip-path="url(#clip4576)" >
<path vector-effect="non-scaling-stroke" fill-rule="evenodd" d="M0,0 L1,0 L1,1 L0,1 L0,0z "/>
</g>

<g fill="none" stroke="#000000" stroke-opacity="1" stroke-width="1" stroke-linecap="square" stroke-linejoin="bevel" transform="matrix(1,0,0,1,0,0)"
font-family="Helvetica" font-size="12" font-weight="400" font-style="normal" 
clip-path="url(#clip4576)" >
</g>

<g fill="none" stroke="#000000" stroke-opacity="1" stroke-width="1" stroke-linecap="square" stroke-linejoin="bevel" transform="matrix(1,0,0,1,0,0)"
font-family="Helvetica" font-size="12" font-weight="400" font-style="normal" 
>
</g>

<g fill="none" stroke="#000000" stroke-opacity="1" stroke-width="1" stroke-linecap="square" stroke-linejoin="bevel" transform="matrix(1,0,0,1,0,0)"
font-family="Helvetica" font-size="12" font-weight="400" font-style="normal" 
>
</g>
</g>
</svg>
