<?xml version="1.0" encoding="UTF-8" standalone="no"?>
<svg width="160.514mm" height="119.592mm"
 viewBox="0 0 455 339"
 xmlns="http://www.w3.org/2000/svg" xmlns:xlink="http://www.w3.org/1999/xlink"  version="1.2" baseProfile="tiny">
<defs>
</defs>
<g fill="none" stroke="black" stroke-width="1" fill-rule="evenodd" stroke-linecap="square" stroke-linejoin="bevel" >

<g fill="#fffcec" fill-opacity="1" stroke="none" transform="matrix(1,0,0,1,0,0)"
font-family="Helvetica" font-size="12" font-weight="400" font-style="normal" 
>
<path vector-effect="non-scaling-stroke" fill-rule="evenodd" d="M0,0 L455,0 L455,339 L0,339 L0,0z "/>
</g>

<g fill="none" stroke="#000000" stroke-opacity="1" stroke-width="1" stroke-linecap="square" stroke-linejoin="bevel" transform="matrix(1,0,0,1,0,0)"
font-family="Helvetica" font-size="12" font-weight="400" font-style="normal" 
>
</g>

<g fill="none" stroke="#000000" stroke-opacity="1" stroke-width="1" stroke-linecap="square" stroke-linejoin="bevel" transform="matrix(1,0,0,1,0,0)"
font-family="Helvetica" font-size="12" font-weight="400" font-style="normal" 
clip-path="url(#clip6277)" >
<defs><clipPath id="clip6277"><path vector-effect="non-scaling-stroke" fill-rule="evenodd" d="M48,48 L407.678,48 L407.678,291.042 L48,291.042 L48,48z "/>
</clipPath></defs></g>

<g fill="none" stroke="#000000" stroke-opacity="1" stroke-width="1" stroke-linecap="square" stroke-linejoin="bevel" transform="matrix(1,0,0,1,24,20)"
font-family="Helvetica" font-size="12" font-weight="400" font-style="normal" 
clip-path="url(#clip6278)" >
<defs><clipPath id="clip6278"><path vector-effect="non-scaling-stroke" fill-rule="evenodd" d="M24,28 L383.678,28 L383.678,271.042 L24,271.042 L24,28z "/>
</clipPath></defs></g>

<g fill="#000000" fill-opacity="0" stroke="none" transform="matrix(1,0,0,1,24,20)"
font-family="Helvetica" font-size="12" font-weight="400" font-style="normal" 
clip-path="url(#clip6278)" >
<path vector-effect="non-scaling-stroke" fill-rule="evenodd" d="M24,28 L383.678,28 L383.678,271.042 L24,271.042 L24,28z "/>
</g>

<g fill="none" stroke="#000000" stroke-opacity="1" stroke-width="1" stroke-linecap="square" stroke-linejoin="bevel" transform="matrix(1,0,0,1,24,20)"
font-family="Helvetica" font-size="12" font-weight="400" font-style="normal" 
clip-path="url(#clip6278)" >
</g>

<g fill="none" stroke="#000000" stroke-opacity="1" stroke-width="1" stroke-linecap="square" stroke-linejoin="bevel" transform="matrix(1,0,0,1,24,20)"
font-family="Helvetica" font-size="12" font-weight="400" font-style="normal" 
clip-path="url(#clip6278)" >
</g>

<g fill="#fffcec" fill-opacity="1" stroke="#61462e" stroke-opacity="1" stroke-width="1" stroke-linecap="butt" stroke-linejoin="miter" stroke-miterlimit="2" transform="matrix(1,0,0,1,24,20)"
font-family="Helvetica" font-size="12" font-weight="400" font-style="normal" 
clip-path="url(#clip6278)" >
<path vector-effect="none" fill-rule="evenodd" d="M30,49 C30,40.7157 36.7157,34 45,34 L362.678,34 C370.962,34 377.678,40.7157 377.678,49 L377.678,250.042 C377.678,258.326 370.962,265.042 362.678,265.042 L45,265.042 C36.7157,265.042 30,258.326 30,250.042 L30,49z "/>
</g>

<g fill="none" stroke="#000000" stroke-opacity="1" stroke-width="1" stroke-linecap="square" stroke-linejoin="bevel" transform="matrix(1,0,0,1,24,20)"
font-family="Helvetica" font-size="12" font-weight="400" font-style="normal" 
clip-path="url(#clip6278)" >
</g>

<g fill="none" stroke="#000000" stroke-opacity="1" stroke-width="1" stroke-linecap="square" stroke-linejoin="bevel" transform="matrix(1,0,0,1,213.795,150.328)"
font-family="Helvetica" font-size="12" font-weight="400" font-style="normal" 
clip-path="url(#clip6279)" >
<defs><clipPath id="clip6279"><path vector-effect="non-scaling-stroke" fill-rule="evenodd" d="M-165.795,-102.328 L193.883,-102.328 L193.883,140.714 L-165.795,140.714 L-165.795,-102.328z "/>
</clipPath></defs></g>

<g fill="none" stroke="#c67f00" stroke-opacity="1" stroke-width="1" stroke-linecap="butt" stroke-linejoin="miter" stroke-miterlimit="2" transform="matrix(1,0,0,1,213.795,150.328)"
font-family="Helvetica" font-size="12" font-weight="400" font-style="normal" 
clip-path="url(#clip6279)" >
<path vector-effect="none" fill-rule="evenodd" d="M14,7 C14,10.866 10.866,14 7,14 C3.13401,14 0,10.866 0,7 C0,3.13401 3.13401,0 7,0 C10.866,0 14,3.13401 14,7 z "/>
</g>

<g fill="none" stroke="#000000" stroke-opacity="1" stroke-width="1" stroke-linecap="square" stroke-linejoin="bevel" transform="matrix(1,0,0,1,213.795,150.328)"
font-family="Helvetica" font-size="12" font-weight="400" font-style="normal" 
clip-path="url(#clip6279)" >
</g>

<g fill="none" stroke="#000000" stroke-opacity="1" stroke-width="1" stroke-linecap="square" stroke-linejoin="bevel" transform="matrix(1,0,0,1,213.795,150.328)"
font-family="Helvetica" font-size="12" font-weight="400" font-style="normal" 
clip-path="url(#clip6279)" >
</g>

<g fill="none" stroke="none" transform="matrix(1,0,0,1,213.795,150.328)"
font-family="Helvetica" font-size="12" font-weight="400" font-style="normal" 
clip-path="url(#clip6279)" >
<path vector-effect="none" fill-rule="evenodd" d="M13,7 C13,10.3137 10.3137,13 7,13 C3.68629,13 1,10.3137 1,7 C1,3.68629 3.68629,1 7,1 C10.3137,1 13,3.68629 13,7 z "/>
</g>

<g fill="none" stroke="#000000" stroke-opacity="1" stroke-width="1" stroke-linecap="square" stroke-linejoin="bevel" transform="matrix(1,0,0,1,213.795,150.328)"
font-family="Helvetica" font-size="12" font-weight="400" font-style="normal" 
clip-path="url(#clip6279)" >
</g>

<g fill="none" stroke="#000000" stroke-opacity="1" stroke-width="1" stroke-linecap="square" stroke-linejoin="bevel" transform="matrix(1,0,0,1,58.3935,58.3935)"
font-family="Helvetica" font-size="12" font-weight="400" font-style="normal" 
clip-path="url(#clip6280)" >
<defs><clipPath id="clip6280"><path vector-effect="non-scaling-stroke" fill-rule="evenodd" d="M-10.3935,-10.3935 L349.284,-10.3935 L349.284,232.649 L-10.3935,232.649 L-10.3935,-10.3935z "/>
</clipPath></defs></g>

<g fill="none" stroke="none" transform="matrix(1,0,0,1,58.3935,58.3935)"
font-family="Helvetica" font-size="12" font-weight="400" font-style="normal" 
clip-path="url(#clip6280)" >
<path vector-effect="none" fill-rule="evenodd" d="M0,0 L25.5,0 L25.5,17 L0,17 L0,0z "/>
</g>

<g fill="none" stroke="#754c24" stroke-opacity="1" stroke-width="1" stroke-linecap="square" stroke-linejoin="bevel" transform="matrix(0.25,0,0,0.25,58.3935,58.3935)"
font-family="Helvetica" font-size="48" font-weight="400" font-style="normal" 
clip-path="url(#clip6281)" >
<defs><clipPath id="clip6281"><path vector-effect="non-scaling-stroke" fill-rule="evenodd" d="M-41.574,-41.574 L1397.14,-41.574 L1397.14,930.594 L-41.574,930.594 L-41.574,-41.574z "/>
</clipPath></defs></g>

<g fill="none" stroke="#754c24" stroke-opacity="1" stroke-width="1" stroke-linecap="square" stroke-linejoin="bevel" transform="matrix(0.25,0,0,0.25,58.3935,58.3935)"
font-family="Helvetica" font-size="48" font-weight="400" font-style="normal" 
clip-path="url(#clip6281)" >
</g>

<g fill="none" stroke="#754c24" stroke-opacity="1" stroke-width="1" stroke-linecap="square" stroke-linejoin="bevel" transform="matrix(0.25,0,0,0.25,58.3935,58.3935)"
font-family="Helvetica" font-size="48" font-weight="400" font-style="normal" 
clip-path="url(#clip6282)" >
<defs><clipPath id="clip6282"><path vector-effect="non-scaling-stroke" fill-rule="evenodd" d="M0,0 L102,0 L102,68 L0,68 L0,0z "/>
</clipPath></defs><text textLength="94" fill="#754c24" fill-opacity="1" stroke="none" xml:space="preserve" x="4" y="51" font-family="Helvetica" font-size="48" font-weight="400" font-style="normal" 
 >zero</text>
</g>

<g fill="none" stroke="#754c24" stroke-opacity="1" stroke-width="1" stroke-linecap="square" stroke-linejoin="bevel" transform="matrix(0.25,0,0,0.25,58.3935,58.3935)"
font-family="Helvetica" font-size="48" font-weight="400" font-style="normal" 
clip-path="url(#clip6283)" >
<defs><clipPath id="clip6283"><path vector-effect="non-scaling-stroke" fill-rule="evenodd" d="M-41.574,-41.574 L1397.14,-41.574 L1397.14,930.594 L-41.574,930.594 L-41.574,-41.574z "/>
</clipPath></defs></g>

<g fill="none" stroke="#754c24" stroke-opacity="1" stroke-width="1" stroke-linecap="square" stroke-linejoin="bevel" transform="matrix(1,0,0,1,0,0)"
font-family="Helvetica" font-size="48" font-weight="400" font-style="normal" 
clip-path="url(#clip6283)" >
</g>

<g fill="none" stroke="#754c24" stroke-opacity="1" stroke-width="1" stroke-linecap="square" stroke-linejoin="bevel" transform="matrix(0.25,0,0,0.25,58.3935,58.3935)"
font-family="Helvetica" font-size="48" font-weight="400" font-style="normal" 
clip-path="url(#clip6283)" >
</g>

<g fill="none" stroke="#754c24" stroke-opacity="1" stroke-width="1" stroke-linecap="square" stroke-linejoin="bevel" transform="matrix(0.25,0,0,0.25,58.3935,58.3935)"
font-family="Helvetica" font-size="48" font-weight="400" font-style="normal" 
clip-path="url(#clip6283)" >
</g>

<g fill="none" stroke="#000000" stroke-opacity="1" stroke-width="1" stroke-linecap="square" stroke-linejoin="bevel" transform="matrix(1,0,0,1,58.3935,58.3935)"
font-family="Helvetica" font-size="12" font-weight="400" font-style="normal" 
clip-path="url(#clip6284)" >
<defs><clipPath id="clip6284"><path vector-effect="non-scaling-stroke" fill-rule="evenodd" d="M-10.3935,-10.3935 L349.284,-10.3935 L349.284,232.649 L-10.3935,232.649 L-10.3935,-10.3935z "/>
</clipPath></defs></g>

<g fill="none" stroke="#000000" stroke-opacity="1" stroke-width="1" stroke-linecap="square" stroke-linejoin="bevel" transform="matrix(1,0,0,1,24,20)"
font-family="Helvetica" font-size="12" font-weight="400" font-style="normal" 
clip-path="url(#clip6285)" >
<defs><clipPath id="clip6285"><path vector-effect="non-scaling-stroke" fill-rule="evenodd" d="M24,28 L383.678,28 L383.678,271.042 L24,271.042 L24,28z "/>
</clipPath></defs></g>

<g fill="none" stroke="#528bc5" stroke-opacity="1" stroke-width="1" stroke-linecap="butt" stroke-linejoin="miter" stroke-miterlimit="2" transform="matrix(1,0,0,1,24,20)"
font-family="Helvetica" font-size="12" font-weight="400" font-style="normal" 
clip-path="url(#clip6285)" >
<path vector-effect="none" fill-rule="evenodd" d="M196.584,100.329 C196.584,100.329 196.588,100.996 196.59,101.36 C196.592,101.725 196.595,102.116 196.597,102.515 C196.599,102.914 196.602,103.333 196.604,103.755 C196.606,104.178 196.609,104.614 196.611,105.048 C196.614,105.483 196.616,105.926 196.619,106.364 C196.621,106.803 196.624,107.244 196.626,107.677 C196.629,108.111 196.631,108.543 196.634,108.965 C196.636,109.387 196.638,109.804 196.641,110.208 C196.643,110.613 196.645,111.01 196.648,111.393 C196.65,111.776 196.652,112.149 196.654,112.508 C196.656,112.867 196.658,113.213 196.66,113.546 C196.662,113.878 196.664,114.197 196.665,114.502 C196.667,114.807 196.669,115.099 196.67,115.378 C196.672,115.656 196.673,115.921 196.675,116.176 C196.676,116.43 196.678,116.671 196.679,116.904 C196.68,117.137 196.682,117.357 196.683,117.573 C196.684,117.789 196.685,117.995 196.686,118.199 C196.687,118.403 196.689,118.599 196.69,118.799 C196.691,118.999 196.692,119.193 196.693,119.396 C196.694,119.599 196.695,119.801 196.697,120.016 C196.698,120.231 196.699,120.45 196.7,120.689 C196.702,120.927 196.703,121.174 196.705,121.447 C196.706,121.72 196.71,122.329 196.71,122.329 "/>
</g>

<g fill="none" stroke="#000000" stroke-opacity="1" stroke-width="1" stroke-linecap="square" stroke-linejoin="bevel" transform="matrix(1,0,0,1,24,20)"
font-family="Helvetica" font-size="12" font-weight="400" font-style="normal" 
clip-path="url(#clip6285)" >
</g>

<g fill="none" stroke="#000000" stroke-opacity="1" stroke-width="1" stroke-linecap="square" stroke-linejoin="bevel" transform="matrix(-0.00569991,-0.999984,0.999984,-0.00569991,220.584,120.329)"
font-family="Helvetica" font-size="12" font-weight="400" font-style="normal" 
clip-path="url(#clip6286)" >
<defs><clipPath id="clip6286"><path vector-effect="non-scaling-stroke" fill-rule="evenodd" d="M73.3116,-172.169 L71.2615,187.503 L-171.777,186.118 L-169.726,-173.555 L73.3116,-172.169z "/>
</clipPath></defs></g>

<g fill="#528bc5" fill-opacity="1" stroke="none" transform="matrix(-0.00569991,-0.999984,0.999984,-0.00569991,220.584,120.329)"
font-family="Helvetica" font-size="12" font-weight="400" font-style="normal" 
clip-path="url(#clip6286)" >
<path vector-effect="none" fill-rule="nonzero" d="M2,0 C2,1.10457 1.10457,2 0,2 C-1.10457,2 -2,1.10457 -2,0 C-2,-1.10457 -1.10457,-2 0,-2 C1.10457,-2 2,-1.10457 2,0 z "/>
</g>

<g fill="none" stroke="#000000" stroke-opacity="1" stroke-width="1" stroke-linecap="square" stroke-linejoin="bevel" transform="matrix(-0.00569991,-0.999984,0.999984,-0.00569991,220.584,120.329)"
font-family="Helvetica" font-size="12" font-weight="400" font-style="normal" 
clip-path="url(#clip6286)" >
</g>

<g fill="none" stroke="#000000" stroke-opacity="1" stroke-width="1" stroke-linecap="square" stroke-linejoin="bevel" transform="matrix(1,0,0,1,230.159,120.152)"
font-family="Helvetica" font-size="12" font-weight="400" font-style="normal" 
clip-path="url(#clip6287)" >
<defs><clipPath id="clip6287"><path vector-effect="non-scaling-stroke" fill-rule="evenodd" d="M-182.159,-72.152 L177.519,-72.152 L177.519,170.89 L-182.159,170.89 L-182.159,-72.152z "/>
</clipPath></defs></g>

<g fill="none" stroke="none" transform="matrix(1,0,0,1,230.159,120.152)"
font-family="Helvetica" font-size="12" font-weight="400" font-style="normal" 
clip-path="url(#clip6287)" >
<path vector-effect="none" fill-rule="evenodd" d="M0,0 L48.25,0 L48.25,17 L0,17 L0,0z "/>
</g>

<g fill="none" stroke="#528bc5" stroke-opacity="1" stroke-width="1" stroke-linecap="square" stroke-linejoin="bevel" transform="matrix(0.25,0,0,0.25,230.159,120.152)"
font-family="Helvetica" font-size="48" font-weight="400" font-style="normal" 
clip-path="url(#clip6288)" >
<defs><clipPath id="clip6288"><path vector-effect="non-scaling-stroke" fill-rule="evenodd" d="M-728.636,-288.608 L710.076,-288.608 L710.076,683.56 L-728.636,683.56 L-728.636,-288.608z "/>
</clipPath></defs></g>

<g fill="none" stroke="#528bc5" stroke-opacity="1" stroke-width="1" stroke-linecap="square" stroke-linejoin="bevel" transform="matrix(0.25,0,0,0.25,230.159,120.152)"
font-family="Helvetica" font-size="48" font-weight="400" font-style="normal" 
clip-path="url(#clip6288)" >
</g>

<g fill="none" stroke="#528bc5" stroke-opacity="1" stroke-width="1" stroke-linecap="square" stroke-linejoin="bevel" transform="matrix(0.25,0,0,0.25,230.159,120.152)"
font-family="Helvetica" font-size="48" font-weight="400" font-style="normal" 
clip-path="url(#clip6289)" >
<defs><clipPath id="clip6289"><path vector-effect="non-scaling-stroke" fill-rule="evenodd" d="M0,0 L193,0 L193,68 L0,68 L0,0z "/>
</clipPath></defs><text textLength="185" fill="#528bc5" fill-opacity="1" stroke="none" xml:space="preserve" x="4" y="51" font-family="Helvetica" font-size="48" font-weight="400" font-style="normal" 
 >{none();}</text>
</g>

<g fill="none" stroke="#528bc5" stroke-opacity="1" stroke-width="1" stroke-linecap="square" stroke-linejoin="bevel" transform="matrix(0.25,0,0,0.25,230.159,120.152)"
font-family="Helvetica" font-size="48" font-weight="400" font-style="normal" 
clip-path="url(#clip6290)" >
<defs><clipPath id="clip6290"><path vector-effect="non-scaling-stroke" fill-rule="evenodd" d="M-728.636,-288.608 L710.076,-288.608 L710.076,683.56 L-728.636,683.56 L-728.636,-288.608z "/>
</clipPath></defs></g>

<g fill="none" stroke="#528bc5" stroke-opacity="1" stroke-width="1" stroke-linecap="square" stroke-linejoin="bevel" transform="matrix(1,0,0,1,0,0)"
font-family="Helvetica" font-size="48" font-weight="400" font-style="normal" 
clip-path="url(#clip6290)" >
</g>

<g fill="none" stroke="#528bc5" stroke-opacity="1" stroke-width="1" stroke-linecap="square" stroke-linejoin="bevel" transform="matrix(0.25,0,0,0.25,230.159,120.152)"
font-family="Helvetica" font-size="48" font-weight="400" font-style="normal" 
clip-path="url(#clip6290)" >
</g>

<g fill="none" stroke="#528bc5" stroke-opacity="1" stroke-width="1" stroke-linecap="square" stroke-linejoin="bevel" transform="matrix(0.25,0,0,0.25,230.159,120.152)"
font-family="Helvetica" font-size="48" font-weight="400" font-style="normal" 
clip-path="url(#clip6290)" >
</g>

<g fill="none" stroke="#000000" stroke-opacity="1" stroke-width="1" stroke-linecap="square" stroke-linejoin="bevel" transform="matrix(1,0,0,1,230.159,120.152)"
font-family="Helvetica" font-size="12" font-weight="400" font-style="normal" 
clip-path="url(#clip6291)" >
<defs><clipPath id="clip6291"><path vector-effect="non-scaling-stroke" fill-rule="evenodd" d="M-182.159,-72.152 L177.519,-72.152 L177.519,170.89 L-182.159,170.89 L-182.159,-72.152z "/>
</clipPath></defs></g>

<g fill="none" stroke="#000000" stroke-opacity="1" stroke-width="1" stroke-linecap="square" stroke-linejoin="bevel" transform="matrix(-0.999984,0.00569991,-0.00569991,-0.999984,220.71,142.329)"
font-family="Helvetica" font-size="12" font-weight="400" font-style="normal" 
clip-path="url(#clip6292)" >
<defs><clipPath id="clip6292"><path vector-effect="non-scaling-stroke" fill-rule="evenodd" d="M172.169,95.3116 L-187.503,93.2615 L-186.118,-149.777 L173.555,-147.726 L172.169,95.3116z "/>
</clipPath></defs></g>

<g fill="none" stroke="#528bc5" stroke-opacity="1" stroke-width="1" stroke-linecap="butt" stroke-linejoin="miter" stroke-miterlimit="2" transform="matrix(-0.999984,0.00569991,-0.00569991,-0.999984,220.71,142.329)"
font-family="Helvetica" font-size="12" font-weight="400" font-style="normal" 
clip-path="url(#clip6292)" >
<path vector-effect="none" fill-rule="nonzero" d="M-2,0 L2,0 L0,-8 L-2,0z "/>
</g>

<g fill="none" stroke="#000000" stroke-opacity="1" stroke-width="1" stroke-linecap="square" stroke-linejoin="bevel" transform="matrix(-0.999984,0.00569991,-0.00569991,-0.999984,220.71,142.329)"
font-family="Helvetica" font-size="12" font-weight="400" font-style="normal" 
clip-path="url(#clip6292)" >
</g>

<g fill="none" stroke="#000000" stroke-opacity="1" stroke-width="1" stroke-linecap="square" stroke-linejoin="bevel" transform="matrix(1,0,0,1,0,0)"
font-family="Helvetica" font-size="12" font-weight="400" font-style="normal" 
>
</g>

<g fill="none" stroke="#000000" stroke-opacity="1" stroke-width="1" stroke-linecap="square" stroke-linejoin="bevel" transform="matrix(1,0,0,1,0,0)"
font-family="Helvetica" font-size="12" font-weight="400" font-style="normal" 
>
</g>

<g fill="none" stroke="#000000" stroke-opacity="1" stroke-width="1" stroke-linecap="square" stroke-linejoin="bevel" transform="matrix(1,0,0,1,0,0)"
font-family="Helvetica" font-size="12" font-weight="400" font-style="normal" 
clip-path="url(#clip6293)" >
<defs><clipPath id="clip6293"><path vector-effect="non-scaling-stroke" fill-rule="evenodd" d="M0,0 L455,0 L455,339 L0,339 L0,0z "/>
</clipPath></defs></g>

<g fill="none" stroke="#000000" stroke-opacity="1" stroke-width="1" stroke-linecap="square" stroke-linejoin="bevel" transform="matrix(1,0,0,1,0,0)"
font-family="Helvetica" font-size="12" font-weight="400" font-style="normal" 
clip-path="url(#clip6293)" >
</g>

<g fill="#000000" fill-opacity="0" stroke="none" transform="matrix(1,0,0,1,0,0)"
font-family="Helvetica" font-size="12" font-weight="400" font-style="normal" 
clip-path="url(#clip6293)" >
<path vector-effect="non-scaling-stroke" fill-rule="evenodd" d="M0,0 L455,0 L455,339 L0,339 L0,0z "/>
</g>

<g fill="none" stroke="#000000" stroke-opacity="1" stroke-width="1" stroke-linecap="square" stroke-linejoin="bevel" transform="matrix(1,0,0,1,0,0)"
font-family="Helvetica" font-size="12" font-weight="400" font-style="normal" 
clip-path="url(#clip6293)" >
</g>

<g fill="none" stroke="#000000" stroke-opacity="1" stroke-width="1" stroke-linecap="square" stroke-linejoin="bevel" transform="matrix(1,0,0,1,0,0)"
font-family="Helvetica" font-size="12" font-weight="400" font-style="normal" 
>
</g>

<g fill="none" stroke="#000000" stroke-opacity="1" stroke-width="1" stroke-linecap="square" stroke-linejoin="bevel" transform="matrix(1,0,0,1,0,0)"
font-family="Helvetica" font-size="12" font-weight="400" font-style="normal" 
>
</g>

<g fill="none" stroke="#000000" stroke-opacity="1" stroke-width="1" stroke-linecap="square" stroke-linejoin="bevel" transform="matrix(1,0,0,1,0,0)"
font-family="Helvetica" font-size="12" font-weight="400" font-style="normal" 
clip-path="url(#clip6294)" >
<defs><clipPath id="clip6294"><path vector-effect="non-scaling-stroke" fill-rule="evenodd" d="M0,0 L225.625,0 L225.625,131 L0,131 L0,0z "/>
</clipPath></defs></g>

<g fill="none" stroke="#000000" stroke-opacity="1" stroke-width="1" stroke-linecap="square" stroke-linejoin="bevel" transform="matrix(1,0,0,1,0,0)"
font-family="Helvetica" font-size="12" font-weight="400" font-style="normal" 
clip-path="url(#clip6294)" >
</g>

<g fill="#000000" fill-opacity="0" stroke="none" transform="matrix(1,0,0,1,0,0)"
font-family="Helvetica" font-size="12" font-weight="400" font-style="normal" 
clip-path="url(#clip6294)" >
<path vector-effect="non-scaling-stroke" fill-rule="evenodd" d="M0,0 L225.625,0 L225.625,131 L0,131 L0,0z "/>
</g>

<g fill="none" stroke="#000000" stroke-opacity="1" stroke-width="1" stroke-linecap="square" stroke-linejoin="bevel" transform="matrix(1,0,0,1,0,0)"
font-family="Helvetica" font-size="12" font-weight="400" font-style="normal" 
clip-path="url(#clip6294)" >
</g>

<g fill="none" stroke="#000000" stroke-opacity="1" stroke-width="1" stroke-linecap="square" stroke-linejoin="bevel" transform="matrix(1,0,0,1,0,0)"
font-family="Helvetica" font-size="12" font-weight="400" font-style="normal" 
clip-path="url(#clip6294)" >
</g>

<g fill="none" stroke="#999999" stroke-opacity="1" stroke-width="1" stroke-linecap="butt" stroke-linejoin="miter" stroke-miterlimit="2" transform="matrix(1,0,0,1,0,0)"
font-family="Helvetica" font-size="12" font-weight="400" font-style="normal" 
clip-path="url(#clip6294)" >
<polyline fill="none" vector-effect="none" points="220,16 220,130 " />
</g>

<g fill="none" stroke="#000000" stroke-opacity="1" stroke-width="1" stroke-linecap="square" stroke-linejoin="bevel" transform="matrix(1,0,0,1,0,0)"
font-family="Helvetica" font-size="12" font-weight="400" font-style="normal" 
clip-path="url(#clip6294)" >
</g>

<g fill="none" stroke="#000000" stroke-opacity="1" stroke-width="1" stroke-linecap="square" stroke-linejoin="bevel" transform="matrix(6.12323e-17,1,-1,6.12323e-17,220,130)"
font-family="Helvetica" font-size="12" font-weight="400" font-style="normal" 
clip-path="url(#clip6295)" >
<defs><clipPath id="clip6295"><path vector-effect="non-scaling-stroke" fill-rule="evenodd" d="M-130,220 L-130,-5.625 L1,-5.625 L1,220 L-130,220z "/>
</clipPath></defs></g>

<g fill="#999999" fill-opacity="1" stroke="#999999" stroke-opacity="1" stroke-width="1" stroke-linecap="butt" stroke-linejoin="miter" stroke-miterlimit="2" transform="matrix(6.12323e-17,1,-1,6.12323e-17,220,130)"
font-family="Helvetica" font-size="12" font-weight="400" font-style="normal" 
clip-path="url(#clip6295)" >
<path vector-effect="none" fill-rule="nonzero" d="M0,0 L-10,-3 L-8,0 L-10,3 L0,0z "/>
</g>

<g fill="none" stroke="#000000" stroke-opacity="1" stroke-width="1" stroke-linecap="square" stroke-linejoin="bevel" transform="matrix(6.12323e-17,1,-1,6.12323e-17,220,130)"
font-family="Helvetica" font-size="12" font-weight="400" font-style="normal" 
clip-path="url(#clip6295)" >
</g>

<g fill="none" stroke="#000000" stroke-opacity="1" stroke-width="1" stroke-linecap="square" stroke-linejoin="bevel" transform="matrix(1,0,0,1,0,0)"
font-family="Helvetica" font-size="12" font-weight="400" font-style="normal" 
clip-path="url(#clip6296)" >
<defs><clipPath id="clip6296"><path vector-effect="non-scaling-stroke" fill-rule="evenodd" d="M0,0 L225.625,0 L225.625,131 L0,131 L0,0z "/>
</clipPath></defs></g>

<g fill="#ffffff" fill-opacity="1" stroke="#ffffff" stroke-opacity="1" stroke-width="1" stroke-linecap="butt" stroke-linejoin="miter" stroke-miterlimit="2" transform="matrix(1,0,0,1,0,0)"
font-family="Helvetica" font-size="12" font-weight="400" font-style="normal" 
clip-path="url(#clip6296)" >
<path vector-effect="none" fill-rule="evenodd" d="M224.625,11.625 C224.625,14.1793 222.554,16.25 220,16.25 C217.446,16.25 215.375,14.1793 215.375,11.625 C215.375,9.07068 217.446,7 220,7 C222.554,7 224.625,9.07068 224.625,11.625 z "/>
</g>

<g fill="none" stroke="#000000" stroke-opacity="1" stroke-width="1" stroke-linecap="square" stroke-linejoin="bevel" transform="matrix(1,0,0,1,0,0)"
font-family="Helvetica" font-size="12" font-weight="400" font-style="normal" 
clip-path="url(#clip6296)" >
</g>

<g fill="none" stroke="#000000" stroke-opacity="1" stroke-width="1" stroke-linecap="square" stroke-linejoin="bevel" transform="matrix(1,0,0,1,215.375,7)"
font-family="Helvetica" font-size="12" font-weight="400" font-style="normal" 
clip-path="url(#clip6297)" >
<defs><clipPath id="clip6297"><path vector-effect="non-scaling-stroke" fill-rule="evenodd" d="M-215.375,-7 L10.25,-7 L10.25,124 L-215.375,124 L-215.375,-7z "/>
</clipPath></defs></g>

<g fill="none" stroke="none" transform="matrix(1,0,0,1,215.375,7)"
font-family="Helvetica" font-size="12" font-weight="400" font-style="normal" 
clip-path="url(#clip6297)" >
<path vector-effect="none" fill-rule="evenodd" d="M0,0 L9.25,0 L9.25,18 L0,18 L0,0z "/>
</g>

<g fill="none" stroke="#004d00" stroke-opacity="1" stroke-width="1" stroke-linecap="square" stroke-linejoin="bevel" transform="matrix(0.25,0,0,0.25,215.375,7)"
font-family="courier" font-size="48" font-weight="700" font-style="normal" 
clip-path="url(#clip6298)" >
<defs><clipPath id="clip6298"><path vector-effect="non-scaling-stroke" fill-rule="evenodd" d="M-861.5,-28 L41,-28 L41,496 L-861.5,496 L-861.5,-28z "/>
</clipPath></defs></g>

<g fill="none" stroke="#004d00" stroke-opacity="1" stroke-width="1" stroke-linecap="square" stroke-linejoin="bevel" transform="matrix(0.25,0,0,0.25,215.375,7)"
font-family="courier" font-size="48" font-weight="700" font-style="normal" 
clip-path="url(#clip6298)" >
</g>

<g fill="none" stroke="#004d00" stroke-opacity="1" stroke-width="1" stroke-linecap="square" stroke-linejoin="bevel" transform="matrix(0.25,0,0,0.25,215.375,7)"
font-family="courier" font-size="48" font-weight="700" font-style="normal" 
clip-path="url(#clip6299)" >
<defs><clipPath id="clip6299"><path vector-effect="non-scaling-stroke" fill-rule="evenodd" d="M0,0 L37,0 L37,72 L0,72 L0,0z "/>
</clipPath></defs><text textLength="29" fill="#004d00" fill-opacity="1" stroke="none" xml:space="preserve" x="4" y="44" font-family="courier" font-size="48" font-weight="700" font-style="normal" 
 >1</text>
</g>

<g fill="none" stroke="#004d00" stroke-opacity="1" stroke-width="1" stroke-linecap="square" stroke-linejoin="bevel" transform="matrix(0.25,0,0,0.25,215.375,7)"
font-family="courier" font-size="48" font-weight="700" font-style="normal" 
clip-path="url(#clip6300)" >
<defs><clipPath id="clip6300"><path vector-effect="non-scaling-stroke" fill-rule="evenodd" d="M-861.5,-28 L41,-28 L41,496 L-861.5,496 L-861.5,-28z "/>
</clipPath></defs></g>

<g fill="none" stroke="#004d00" stroke-opacity="1" stroke-width="1" stroke-linecap="square" stroke-linejoin="bevel" transform="matrix(1,0,0,1,0,0)"
font-family="courier" font-size="48" font-weight="700" font-style="normal" 
clip-path="url(#clip6300)" >
</g>

<g fill="none" stroke="#004d00" stroke-opacity="1" stroke-width="1" stroke-linecap="square" stroke-linejoin="bevel" transform="matrix(0.25,0,0,0.25,215.375,7)"
font-family="courier" font-size="48" font-weight="700" font-style="normal" 
clip-path="url(#clip6300)" >
</g>

<g fill="none" stroke="#004d00" stroke-opacity="1" stroke-width="1" stroke-linecap="square" stroke-linejoin="bevel" transform="matrix(0.25,0,0,0.25,215.375,7)"
font-family="courier" font-size="48" font-weight="700" font-style="normal" 
clip-path="url(#clip6300)" >
</g>

<g fill="none" stroke="#000000" stroke-opacity="1" stroke-width="1" stroke-linecap="square" stroke-linejoin="bevel" transform="matrix(1,0,0,1,215.375,7)"
font-family="Helvetica" font-size="12" font-weight="400" font-style="normal" 
clip-path="url(#clip6301)" >
<defs><clipPath id="clip6301"><path vector-effect="non-scaling-stroke" fill-rule="evenodd" d="M-215.375,-7 L10.25,-7 L10.25,124 L-215.375,124 L-215.375,-7z "/>
</clipPath></defs></g>

<g fill="none" stroke="#000000" stroke-opacity="1" stroke-width="1" stroke-linecap="square" stroke-linejoin="bevel" transform="matrix(1,0,0,1,0,0)"
font-family="Helvetica" font-size="12" font-weight="400" font-style="normal" 
>
</g>

<g fill="none" stroke="#000000" stroke-opacity="1" stroke-width="1" stroke-linecap="square" stroke-linejoin="bevel" transform="matrix(1,0,0,1,0,0)"
font-family="Helvetica" font-size="12" font-weight="400" font-style="normal" 
>
</g>
</g>
</svg>
