<?xml version="1.0" encoding="UTF-8" standalone="no"?>
<svg width="203.553mm" height="40.5694mm"
 viewBox="0 0 577 115"
 xmlns="http://www.w3.org/2000/svg" xmlns:xlink="http://www.w3.org/1999/xlink"  version="1.2" baseProfile="tiny">
<defs>
</defs>
<g fill="none" stroke="black" stroke-width="1" fill-rule="evenodd" stroke-linecap="square" stroke-linejoin="bevel" >

<g fill="#ffffff" fill-opacity="1" stroke="none" transform="matrix(1,0,0,1,0,0)"
font-family="Helvetica" font-size="12" font-weight="400" font-style="normal" 
>
<path vector-effect="non-scaling-stroke" fill-rule="evenodd" d="M0,0 L577,0 L577,115 L0,115 L0,0z "/>
</g>

<g fill="none" stroke="#000000" stroke-opacity="1" stroke-width="1" stroke-linecap="square" stroke-linejoin="bevel" transform="matrix(1,0,0,1,0,0)"
font-family="Helvetica" font-size="12" font-weight="400" font-style="normal" 
>
</g>

<g fill="none" stroke="#000000" stroke-opacity="1" stroke-width="1" stroke-linecap="square" stroke-linejoin="bevel" transform="matrix(1,0,0,1,0,0)"
font-family="Helvetica" font-size="12" font-weight="400" font-style="normal" 
clip-path="url(#clip1741)" >
<defs><clipPath id="clip1741"><path vector-effect="non-scaling-stroke" fill-rule="evenodd" d="M5,5 L572,5 L572,110 L5,110 L5,5z "/>
</clipPath></defs></g>

<g fill="none" stroke="#000000" stroke-opacity="1" stroke-width="1" stroke-linecap="square" stroke-linejoin="bevel" transform="matrix(1,0,0,1,-154,-46)"
font-family="Helvetica" font-size="12" font-weight="400" font-style="normal" 
clip-path="url(#clip1742)" >
<defs><clipPath id="clip1742"><path vector-effect="non-scaling-stroke" fill-rule="evenodd" d="M159,51 L726,51 L726,156 L159,156 L159,51z "/>
</clipPath></defs></g>

<g fill="#000000" fill-opacity="0" stroke="none" transform="matrix(1,0,0,1,-154,-46)"
font-family="Helvetica" font-size="12" font-weight="400" font-style="normal" 
clip-path="url(#clip1742)" >
<path vector-effect="non-scaling-stroke" fill-rule="evenodd" d="M159,51 L726,51 L726,156 L159,156 L159,51z "/>
</g>

<g fill="none" stroke="#000000" stroke-opacity="1" stroke-width="1" stroke-linecap="square" stroke-linejoin="bevel" transform="matrix(1,0,0,1,-154,-46)"
font-family="Helvetica" font-size="12" font-weight="400" font-style="normal" 
clip-path="url(#clip1742)" >
</g>

<g fill="none" stroke="#000000" stroke-opacity="1" stroke-width="1" stroke-linecap="square" stroke-linejoin="bevel" transform="matrix(1,0,0,1,11,42)"
font-family="Helvetica" font-size="12" font-weight="400" font-style="normal" 
clip-path="url(#clip1743)" >
<defs><clipPath id="clip1743"><path vector-effect="non-scaling-stroke" fill-rule="evenodd" d="M-6,-37 L561,-37 L561,68 L-6,68 L-6,-37z "/>
</clipPath></defs></g>

<g fill="#ffffff" fill-opacity="1" stroke="none" transform="matrix(1,0,0,1,11,42)"
font-family="Helvetica" font-size="12" font-weight="400" font-style="normal" 
clip-path="url(#clip1743)" >
<path vector-effect="none" fill-rule="nonzero" d="M7,0 L23,0 C26.866,0 30,3.13401 30,7 C30,10.866 26.866,14 23,14 L7,14 C3.13401,14 0,10.866 0,7 C0,3.13401 3.13401,0 7,0 z "/>
</g>

<g fill="none" stroke="#000000" stroke-opacity="1" stroke-width="1" stroke-linecap="square" stroke-linejoin="bevel" transform="matrix(1,0,0,1,11,42)"
font-family="Helvetica" font-size="12" font-weight="400" font-style="normal" 
clip-path="url(#clip1743)" >
</g>

<g fill="none" stroke="#000000" stroke-opacity="1" stroke-width="1" stroke-linecap="square" stroke-linejoin="bevel" transform="matrix(1,0,0,1,11,42)"
font-family="Helvetica" font-size="12" font-weight="400" font-style="normal" 
clip-path="url(#clip1743)" >
</g>

<g fill="none" stroke="#000000" stroke-opacity="1" stroke-width="1" stroke-linecap="square" stroke-linejoin="bevel" transform="matrix(1,0,0,1,11,42)"
font-family="Helvetica" font-size="12" font-weight="400" font-style="normal" 
clip-path="url(#clip1744)" >
<defs><clipPath id="clip1744"><path vector-effect="non-scaling-stroke" fill-rule="evenodd" d="M0,0 L30,0 L30,14 L0,14 L0,0z "/>
</clipPath></defs></g>

<g fill="none" stroke="#000000" stroke-opacity="1" stroke-width="1" stroke-linecap="square" stroke-linejoin="bevel" transform="matrix(1,0,0,1,26,49)"
font-family="Helvetica" font-size="7.5" font-weight="400" font-style="normal" 
clip-path="url(#clip1745)" >
<defs><clipPath id="clip1745"><path vector-effect="none" fill-rule="evenodd" d="M-15,-7 L15,-7 L15,7 L-15,7 L-15,-7z "/>
</clipPath></defs></g>

<g fill="none" stroke="#000000" stroke-opacity="1" stroke-width="1" stroke-linecap="square" stroke-linejoin="bevel" transform="matrix(1.33333,0,0,1.33333,26,49)"
font-family="Helvetica" font-size="7.5" font-weight="400" font-style="normal" 
clip-path="url(#clip1746)" >
<defs><clipPath id="clip1746"><path vector-effect="none" fill-rule="evenodd" d="M-11,-5 L12,-5 L12,6 L-11,6 L-11,-5z "/>
</clipPath></defs><text textLength="4" fill="#000000" fill-opacity="1" stroke="none" xml:space="preserve" x="-2.25" y="2.25" font-family="Helvetica" font-size="7.5" font-weight="400" font-style="normal" 
 >1</text>
</g>

<g fill="none" stroke="#000000" stroke-opacity="1" stroke-width="1" stroke-linecap="square" stroke-linejoin="bevel" transform="matrix(1,0,0,1,26,49)"
font-family="Helvetica" font-size="7.5" font-weight="400" font-style="normal" 
clip-path="url(#clip1747)" >
<defs><clipPath id="clip1747"><path vector-effect="none" fill-rule="evenodd" d="M-15,-7 L15,-7 L15,7 L-15,7 L-15,-7z "/>
</clipPath></defs></g>

<g fill="none" stroke="#000000" stroke-opacity="1" stroke-width="1" stroke-linecap="square" stroke-linejoin="bevel" transform="matrix(0.75,0,0,0.75,26,49)"
font-family="Helvetica" font-size="7.5" font-weight="400" font-style="normal" 
clip-path="url(#clip1748)" >
<defs><clipPath id="clip1748"><path vector-effect="none" fill-rule="evenodd" d="M-6,-37 L561,-37 L561,68 L-6,68 L-6,-37z "/>
</clipPath></defs></g>

<g fill="none" stroke="#000000" stroke-opacity="1" stroke-width="1" stroke-linecap="square" stroke-linejoin="bevel" transform="matrix(1,0,0,1,0,0)"
font-family="Helvetica" font-size="7.5" font-weight="400" font-style="normal" 
clip-path="url(#clip1748)" >
</g>

<g fill="none" stroke="#000000" stroke-opacity="1" stroke-width="1" stroke-linecap="square" stroke-linejoin="bevel" transform="matrix(1,0,0,1,11,42)"
font-family="Helvetica" font-size="12" font-weight="400" font-style="normal" 
clip-path="url(#clip1748)" >
</g>

<g fill="none" stroke="#000000" stroke-opacity="1" stroke-width="1" stroke-linecap="square" stroke-linejoin="bevel" transform="matrix(1,0,0,1,11,42)"
font-family="Helvetica" font-size="12" font-weight="400" font-style="normal" 
clip-path="url(#clip1748)" >
</g>

<g fill="none" stroke="#000000" stroke-opacity="1" stroke-width="1" stroke-linecap="butt" stroke-linejoin="miter" stroke-miterlimit="2" transform="matrix(1,0,0,1,11.5,42.5)"
font-family="Helvetica" font-size="12" font-weight="400" font-style="normal" 
clip-path="url(#clip1749)" >
<defs><clipPath id="clip1749"><path vector-effect="none" fill-rule="evenodd" d="M-6.5,-37.5 L560.5,-37.5 L560.5,67.5 L-6.5,67.5 L-6.5,-37.5z "/>
</clipPath></defs><path vector-effect="none" fill-rule="nonzero" d="M7,0 L23,0 C26.866,0 30,3.13401 30,7 C30,10.866 26.866,14 23,14 L7,14 C3.13401,14 0,10.866 0,7 C0,3.13401 3.13401,0 7,0 z "/>
</g>

<g fill="none" stroke="#000000" stroke-opacity="1" stroke-width="1" stroke-linecap="square" stroke-linejoin="bevel" transform="matrix(1,0,0,1,11,42)"
font-family="Helvetica" font-size="12" font-weight="400" font-style="normal" 
clip-path="url(#clip1750)" >
<defs><clipPath id="clip1750"><path vector-effect="non-scaling-stroke" fill-rule="evenodd" d="M-6,-37 L561,-37 L561,68 L-6,68 L-6,-37z "/>
</clipPath></defs></g>

<g fill="none" stroke="#000000" stroke-opacity="1" stroke-width="1" stroke-linecap="square" stroke-linejoin="bevel" transform="matrix(1,0,0,1,26,58)"
font-family="Helvetica" font-size="12" font-weight="400" font-style="normal" 
clip-path="url(#clip1751)" >
<defs><clipPath id="clip1751"><path vector-effect="non-scaling-stroke" fill-rule="evenodd" d="M-21,-53 L546,-53 L546,52 L-21,52 L-21,-53z "/>
</clipPath></defs></g>

<g fill="none" stroke="none" transform="matrix(1,0,0,1,26,58)"
font-family="Helvetica" font-size="12" font-weight="400" font-style="normal" 
clip-path="url(#clip1751)" >
<path vector-effect="none" fill-rule="evenodd" d="M-7.625,0 L7.625,0 L7.625,15 L-7.625,15 L-7.625,0z "/>
</g>

<g fill="none" stroke="#000000" stroke-opacity="1" stroke-width="1" stroke-linecap="square" stroke-linejoin="bevel" transform="matrix(0.25,0,0,0.25,18.375,58)"
font-family="Helvetica" font-size="40" font-weight="400" font-style="normal" 
clip-path="url(#clip1752)" >
<defs><clipPath id="clip1752"><path vector-effect="non-scaling-stroke" fill-rule="evenodd" d="M-53.5,-212 L2214.5,-212 L2214.5,208 L-53.5,208 L-53.5,-212z "/>
</clipPath></defs></g>

<g fill="none" stroke="#000000" stroke-opacity="1" stroke-width="1" stroke-linecap="square" stroke-linejoin="bevel" transform="matrix(0.25,0,0,0.25,18.375,58)"
font-family="Helvetica" font-size="40" font-weight="400" font-style="normal" 
clip-path="url(#clip1752)" >
</g>

<g fill="none" stroke="#000000" stroke-opacity="1" stroke-width="1" stroke-linecap="square" stroke-linejoin="bevel" transform="matrix(0.25,0,0,0.25,18.375,58)"
font-family="Helvetica" font-size="40" font-weight="400" font-style="normal" 
clip-path="url(#clip1753)" >
<defs><clipPath id="clip1753"><path vector-effect="non-scaling-stroke" fill-rule="evenodd" d="M0,0 L61,0 L61,60 L0,60 L0,0z "/>
</clipPath></defs><text textLength="53" fill="#000000" fill-opacity="1" stroke="none" xml:space="preserve" x="4" y="41" font-family="Helvetica" font-size="40" font-weight="400" font-style="normal" 
 >In1</text>
</g>

<g fill="none" stroke="#000000" stroke-opacity="1" stroke-width="1" stroke-linecap="square" stroke-linejoin="bevel" transform="matrix(0.25,0,0,0.25,18.375,58)"
font-family="Helvetica" font-size="40" font-weight="400" font-style="normal" 
clip-path="url(#clip1754)" >
<defs><clipPath id="clip1754"><path vector-effect="non-scaling-stroke" fill-rule="evenodd" d="M-53.5,-212 L2214.5,-212 L2214.5,208 L-53.5,208 L-53.5,-212z "/>
</clipPath></defs></g>

<g fill="none" stroke="#000000" stroke-opacity="1" stroke-width="1" stroke-linecap="square" stroke-linejoin="bevel" transform="matrix(1,0,0,1,0,0)"
font-family="Helvetica" font-size="40" font-weight="400" font-style="normal" 
clip-path="url(#clip1754)" >
</g>

<g fill="none" stroke="#000000" stroke-opacity="1" stroke-width="1" stroke-linecap="square" stroke-linejoin="bevel" transform="matrix(0.25,0,0,0.25,18.375,58)"
font-family="Helvetica" font-size="40" font-weight="400" font-style="normal" 
clip-path="url(#clip1754)" >
</g>

<g fill="none" stroke="#000000" stroke-opacity="1" stroke-width="1" stroke-linecap="square" stroke-linejoin="bevel" transform="matrix(0.25,0,0,0.25,18.375,58)"
font-family="Helvetica" font-size="40" font-weight="400" font-style="normal" 
clip-path="url(#clip1754)" >
</g>

<g fill="none" stroke="#000000" stroke-opacity="1" stroke-width="1" stroke-linecap="square" stroke-linejoin="bevel" transform="matrix(1,0,0,1,26,58)"
font-family="Helvetica" font-size="12" font-weight="400" font-style="normal" 
clip-path="url(#clip1755)" >
<defs><clipPath id="clip1755"><path vector-effect="non-scaling-stroke" fill-rule="evenodd" d="M-21,-53 L546,-53 L546,52 L-21,52 L-21,-53z "/>
</clipPath></defs></g>

<g fill="none" stroke="#000000" stroke-opacity="1" stroke-width="1" stroke-linecap="square" stroke-linejoin="bevel" transform="matrix(1,0,0,1,536,42)"
font-family="Helvetica" font-size="12" font-weight="400" font-style="normal" 
clip-path="url(#clip1756)" >
<defs><clipPath id="clip1756"><path vector-effect="non-scaling-stroke" fill-rule="evenodd" d="M-531,-37 L36,-37 L36,68 L-531,68 L-531,-37z "/>
</clipPath></defs></g>

<g fill="#ffffff" fill-opacity="1" stroke="none" transform="matrix(1,0,0,1,536,42)"
font-family="Helvetica" font-size="12" font-weight="400" font-style="normal" 
clip-path="url(#clip1756)" >
<path vector-effect="none" fill-rule="nonzero" d="M7,0 L23,0 C26.866,0 30,3.13401 30,7 C30,10.866 26.866,14 23,14 L7,14 C3.13401,14 0,10.866 0,7 C0,3.13401 3.13401,0 7,0 z "/>
</g>

<g fill="none" stroke="#000000" stroke-opacity="1" stroke-width="1" stroke-linecap="square" stroke-linejoin="bevel" transform="matrix(1,0,0,1,536,42)"
font-family="Helvetica" font-size="12" font-weight="400" font-style="normal" 
clip-path="url(#clip1756)" >
</g>

<g fill="none" stroke="#000000" stroke-opacity="1" stroke-width="1" stroke-linecap="square" stroke-linejoin="bevel" transform="matrix(1,0,0,1,536,42)"
font-family="Helvetica" font-size="12" font-weight="400" font-style="normal" 
clip-path="url(#clip1756)" >
</g>

<g fill="none" stroke="#000000" stroke-opacity="1" stroke-width="1" stroke-linecap="square" stroke-linejoin="bevel" transform="matrix(1,0,0,1,536,42)"
font-family="Helvetica" font-size="12" font-weight="400" font-style="normal" 
clip-path="url(#clip1757)" >
<defs><clipPath id="clip1757"><path vector-effect="non-scaling-stroke" fill-rule="evenodd" d="M0,0 L30,0 L30,14 L0,14 L0,0z "/>
</clipPath></defs></g>

<g fill="none" stroke="#000000" stroke-opacity="1" stroke-width="1" stroke-linecap="square" stroke-linejoin="bevel" transform="matrix(1,0,0,1,551,49)"
font-family="Helvetica" font-size="7.5" font-weight="400" font-style="normal" 
clip-path="url(#clip1758)" >
<defs><clipPath id="clip1758"><path vector-effect="none" fill-rule="evenodd" d="M-15,-7 L15,-7 L15,7 L-15,7 L-15,-7z "/>
</clipPath></defs></g>

<g fill="none" stroke="#000000" stroke-opacity="1" stroke-width="1" stroke-linecap="square" stroke-linejoin="bevel" transform="matrix(1.33333,0,0,1.33333,551,49)"
font-family="Helvetica" font-size="7.5" font-weight="400" font-style="normal" 
clip-path="url(#clip1759)" >
<defs><clipPath id="clip1759"><path vector-effect="none" fill-rule="evenodd" d="M-11,-5 L12,-5 L12,6 L-11,6 L-11,-5z "/>
</clipPath></defs><text textLength="4" fill="#000000" fill-opacity="1" stroke="none" xml:space="preserve" x="-2.25" y="2.25" font-family="Helvetica" font-size="7.5" font-weight="400" font-style="normal" 
 >1</text>
</g>

<g fill="none" stroke="#000000" stroke-opacity="1" stroke-width="1" stroke-linecap="square" stroke-linejoin="bevel" transform="matrix(1,0,0,1,551,49)"
font-family="Helvetica" font-size="7.5" font-weight="400" font-style="normal" 
clip-path="url(#clip1760)" >
<defs><clipPath id="clip1760"><path vector-effect="none" fill-rule="evenodd" d="M-15,-7 L15,-7 L15,7 L-15,7 L-15,-7z "/>
</clipPath></defs></g>

<g fill="none" stroke="#000000" stroke-opacity="1" stroke-width="1" stroke-linecap="square" stroke-linejoin="bevel" transform="matrix(0.75,0,0,0.75,551,49)"
font-family="Helvetica" font-size="7.5" font-weight="400" font-style="normal" 
clip-path="url(#clip1761)" >
<defs><clipPath id="clip1761"><path vector-effect="none" fill-rule="evenodd" d="M-531,-37 L36,-37 L36,68 L-531,68 L-531,-37z "/>
</clipPath></defs></g>

<g fill="none" stroke="#000000" stroke-opacity="1" stroke-width="1" stroke-linecap="square" stroke-linejoin="bevel" transform="matrix(1,0,0,1,0,0)"
font-family="Helvetica" font-size="7.5" font-weight="400" font-style="normal" 
clip-path="url(#clip1761)" >
</g>

<g fill="none" stroke="#000000" stroke-opacity="1" stroke-width="1" stroke-linecap="square" stroke-linejoin="bevel" transform="matrix(1,0,0,1,536,42)"
font-family="Helvetica" font-size="12" font-weight="400" font-style="normal" 
clip-path="url(#clip1761)" >
</g>

<g fill="none" stroke="#000000" stroke-opacity="1" stroke-width="1" stroke-linecap="square" stroke-linejoin="bevel" transform="matrix(1,0,0,1,536,42)"
font-family="Helvetica" font-size="12" font-weight="400" font-style="normal" 
clip-path="url(#clip1761)" >
</g>

<g fill="none" stroke="#000000" stroke-opacity="1" stroke-width="1" stroke-linecap="butt" stroke-linejoin="miter" stroke-miterlimit="2" transform="matrix(1,0,0,1,536.5,42.5)"
font-family="Helvetica" font-size="12" font-weight="400" font-style="normal" 
clip-path="url(#clip1762)" >
<defs><clipPath id="clip1762"><path vector-effect="none" fill-rule="evenodd" d="M-531.5,-37.5 L35.5,-37.5 L35.5,67.5 L-531.5,67.5 L-531.5,-37.5z "/>
</clipPath></defs><path vector-effect="none" fill-rule="nonzero" d="M7,0 L23,0 C26.866,0 30,3.13401 30,7 C30,10.866 26.866,14 23,14 L7,14 C3.13401,14 0,10.866 0,7 C0,3.13401 3.13401,0 7,0 z "/>
</g>

<g fill="none" stroke="#000000" stroke-opacity="1" stroke-width="1" stroke-linecap="square" stroke-linejoin="bevel" transform="matrix(1,0,0,1,536,42)"
font-family="Helvetica" font-size="12" font-weight="400" font-style="normal" 
clip-path="url(#clip1763)" >
<defs><clipPath id="clip1763"><path vector-effect="non-scaling-stroke" fill-rule="evenodd" d="M-531,-37 L36,-37 L36,68 L-531,68 L-531,-37z "/>
</clipPath></defs></g>

<g fill="none" stroke="#000000" stroke-opacity="1" stroke-width="1" stroke-linecap="square" stroke-linejoin="bevel" transform="matrix(1,0,0,1,551,58)"
font-family="Helvetica" font-size="12" font-weight="400" font-style="normal" 
clip-path="url(#clip1764)" >
<defs><clipPath id="clip1764"><path vector-effect="non-scaling-stroke" fill-rule="evenodd" d="M-546,-53 L21,-53 L21,52 L-546,52 L-546,-53z "/>
</clipPath></defs></g>

<g fill="none" stroke="none" transform="matrix(1,0,0,1,551,58)"
font-family="Helvetica" font-size="12" font-weight="400" font-style="normal" 
clip-path="url(#clip1764)" >
<path vector-effect="none" fill-rule="evenodd" d="M-11.625,0 L11.625,0 L11.625,15 L-11.625,15 L-11.625,0z "/>
</g>

<g fill="none" stroke="#000000" stroke-opacity="1" stroke-width="1" stroke-linecap="square" stroke-linejoin="bevel" transform="matrix(0.25,0,0,0.25,539.375,58)"
font-family="Helvetica" font-size="40" font-weight="400" font-style="normal" 
clip-path="url(#clip1765)" >
<defs><clipPath id="clip1765"><path vector-effect="non-scaling-stroke" fill-rule="evenodd" d="M-2137.5,-212 L130.5,-212 L130.5,208 L-2137.5,208 L-2137.5,-212z "/>
</clipPath></defs></g>

<g fill="none" stroke="#000000" stroke-opacity="1" stroke-width="1" stroke-linecap="square" stroke-linejoin="bevel" transform="matrix(0.25,0,0,0.25,539.375,58)"
font-family="Helvetica" font-size="40" font-weight="400" font-style="normal" 
clip-path="url(#clip1765)" >
</g>

<g fill="none" stroke="#000000" stroke-opacity="1" stroke-width="1" stroke-linecap="square" stroke-linejoin="bevel" transform="matrix(0.25,0,0,0.25,539.375,58)"
font-family="Helvetica" font-size="40" font-weight="400" font-style="normal" 
clip-path="url(#clip1766)" >
<defs><clipPath id="clip1766"><path vector-effect="non-scaling-stroke" fill-rule="evenodd" d="M0,0 L93,0 L93,60 L0,60 L0,0z "/>
</clipPath></defs><text textLength="85" fill="#000000" fill-opacity="1" stroke="none" xml:space="preserve" x="4" y="41" font-family="Helvetica" font-size="40" font-weight="400" font-style="normal" 
 >Out1</text>
</g>

<g fill="none" stroke="#000000" stroke-opacity="1" stroke-width="1" stroke-linecap="square" stroke-linejoin="bevel" transform="matrix(0.25,0,0,0.25,539.375,58)"
font-family="Helvetica" font-size="40" font-weight="400" font-style="normal" 
clip-path="url(#clip1767)" >
<defs><clipPath id="clip1767"><path vector-effect="non-scaling-stroke" fill-rule="evenodd" d="M-2137.5,-212 L130.5,-212 L130.5,208 L-2137.5,208 L-2137.5,-212z "/>
</clipPath></defs></g>

<g fill="none" stroke="#000000" stroke-opacity="1" stroke-width="1" stroke-linecap="square" stroke-linejoin="bevel" transform="matrix(1,0,0,1,0,0)"
font-family="Helvetica" font-size="40" font-weight="400" font-style="normal" 
clip-path="url(#clip1767)" >
</g>

<g fill="none" stroke="#000000" stroke-opacity="1" stroke-width="1" stroke-linecap="square" stroke-linejoin="bevel" transform="matrix(0.25,0,0,0.25,539.375,58)"
font-family="Helvetica" font-size="40" font-weight="400" font-style="normal" 
clip-path="url(#clip1767)" >
</g>

<g fill="none" stroke="#000000" stroke-opacity="1" stroke-width="1" stroke-linecap="square" stroke-linejoin="bevel" transform="matrix(0.25,0,0,0.25,539.375,58)"
font-family="Helvetica" font-size="40" font-weight="400" font-style="normal" 
clip-path="url(#clip1767)" >
</g>

<g fill="none" stroke="#000000" stroke-opacity="1" stroke-width="1" stroke-linecap="square" stroke-linejoin="bevel" transform="matrix(1,0,0,1,551,58)"
font-family="Helvetica" font-size="12" font-weight="400" font-style="normal" 
clip-path="url(#clip1768)" >
<defs><clipPath id="clip1768"><path vector-effect="non-scaling-stroke" fill-rule="evenodd" d="M-546,-53 L21,-53 L21,52 L-546,52 L-546,-53z "/>
</clipPath></defs></g>

<g fill="none" stroke="#000000" stroke-opacity="1" stroke-width="1" stroke-linecap="square" stroke-linejoin="bevel" transform="matrix(1,0,0,1,146,11)"
font-family="Helvetica" font-size="12" font-weight="400" font-style="normal" 
clip-path="url(#clip1769)" >
<defs><clipPath id="clip1769"><path vector-effect="non-scaling-stroke" fill-rule="evenodd" d="M-141,-6 L426,-6 L426,99 L-141,99 L-141,-6z "/>
</clipPath></defs></g>

<g fill="#ffffff" fill-opacity="1" stroke="none" transform="matrix(1,0,0,1,146,11)"
font-family="Helvetica" font-size="12" font-weight="400" font-style="normal" 
clip-path="url(#clip1769)" >
<path vector-effect="none" fill-rule="evenodd" d="M0,0 L200,0 L200,76 L0,76 L0,0z "/>
</g>

<g fill="none" stroke="#000000" stroke-opacity="1" stroke-width="1" stroke-linecap="square" stroke-linejoin="bevel" transform="matrix(1,0,0,1,146,11)"
font-family="Helvetica" font-size="12" font-weight="400" font-style="normal" 
clip-path="url(#clip1769)" >
</g>

<g fill="none" stroke="#000000" stroke-opacity="1" stroke-width="1" stroke-linecap="square" stroke-linejoin="bevel" transform="matrix(1,0,0,1,146,11)"
font-family="Helvetica" font-size="12" font-weight="400" font-style="normal" 
clip-path="url(#clip1769)" >
</g>

<g fill="none" stroke="#000000" stroke-opacity="1" stroke-width="1" stroke-linecap="square" stroke-linejoin="bevel" transform="matrix(1,0,0,1,146,11)"
font-family="Helvetica" font-size="12" font-weight="400" font-style="normal" 
clip-path="url(#clip1770)" >
<defs><clipPath id="clip1770"><path vector-effect="non-scaling-stroke" fill-rule="evenodd" d="M0,0 L200,0 L200,76 L0,76 L0,0z "/>
</clipPath></defs></g>

<g fill="none" stroke="#e8d152" stroke-opacity="1" stroke-width="1" stroke-linecap="square" stroke-linejoin="bevel" transform="matrix(1,0,0,1,246,49)"
font-family="Helvetica" font-size="7.5" font-weight="400" font-style="normal" 
clip-path="url(#clip1771)" >
<defs><clipPath id="clip1771"><path vector-effect="none" fill-rule="evenodd" d="M-100,-38 L100,-38 L100,38 L-100,38 L-100,-38z "/>
</clipPath></defs></g>

<g fill="none" stroke="#e8d152" stroke-opacity="1" stroke-width="1" stroke-linecap="square" stroke-linejoin="bevel" transform="matrix(1.33333,0,0,1.33333,246,49)"
font-family="Helvetica" font-size="7.5" font-weight="400" font-style="normal" 
clip-path="url(#clip1772)" >
<defs><clipPath id="clip1772"><path vector-effect="none" fill-rule="evenodd" d="M-75,-28 L75,-28 L75,29 L-75,29 L-75,-28z "/>
</clipPath></defs><text textLength="28" fill="#e8d152" fill-opacity="1" stroke="none" xml:space="preserve" x="-15" y="2.25" font-family="Helvetica" font-size="7.5" font-weight="400" font-style="normal" 
 >Bad Link</text>
</g>

<g fill="none" stroke="#e8d152" stroke-opacity="1" stroke-width="1" stroke-linecap="square" stroke-linejoin="bevel" transform="matrix(1,0,0,1,246,49)"
font-family="Helvetica" font-size="7.5" font-weight="400" font-style="normal" 
clip-path="url(#clip1773)" >
<defs><clipPath id="clip1773"><path vector-effect="none" fill-rule="evenodd" d="M-100,-38 L100,-38 L100,38 L-100,38 L-100,-38z "/>
</clipPath></defs></g>

<g fill="none" stroke="#e8d152" stroke-opacity="1" stroke-width="1" stroke-linecap="square" stroke-linejoin="bevel" transform="matrix(0.75,0,0,0.75,246,49)"
font-family="Helvetica" font-size="7.5" font-weight="400" font-style="normal" 
clip-path="url(#clip1774)" >
<defs><clipPath id="clip1774"><path vector-effect="none" fill-rule="evenodd" d="M-141,-6 L426,-6 L426,99 L-141,99 L-141,-6z "/>
</clipPath></defs></g>

<g fill="none" stroke="#e8d152" stroke-opacity="1" stroke-width="1" stroke-linecap="square" stroke-linejoin="bevel" transform="matrix(1,0,0,1,0,0)"
font-family="Helvetica" font-size="7.5" font-weight="400" font-style="normal" 
clip-path="url(#clip1774)" >
</g>

<g fill="none" stroke="#000000" stroke-opacity="1" stroke-width="1" stroke-linecap="square" stroke-linejoin="bevel" transform="matrix(1,0,0,1,146,11)"
font-family="Helvetica" font-size="12" font-weight="400" font-style="normal" 
clip-path="url(#clip1774)" >
</g>

<g fill="none" stroke="#000000" stroke-opacity="1" stroke-width="1" stroke-linecap="square" stroke-linejoin="bevel" transform="matrix(1,0,0,1,146,11)"
font-family="Helvetica" font-size="12" font-weight="400" font-style="normal" 
clip-path="url(#clip1774)" >
</g>

<g fill="none" stroke="#ff0000" stroke-opacity="1" stroke-dasharray="4,2" stroke-dashoffset="0" stroke-width="1" stroke-linecap="butt" stroke-linejoin="miter" stroke-miterlimit="2" transform="matrix(1,0,0,1,146.5,11.5)"
font-family="Helvetica" font-size="12" font-weight="400" font-style="normal" 
clip-path="url(#clip1775)" >
<defs><clipPath id="clip1775"><path vector-effect="none" fill-rule="evenodd" d="M-141.5,-6.5 L425.5,-6.5 L425.5,98.5 L-141.5,98.5 L-141.5,-6.5z "/>
</clipPath></defs><path vector-effect="none" fill-rule="evenodd" d="M0,0 L200,0 L200,76 L0,76 L0,0z "/>
</g>

<g fill="none" stroke="#000000" stroke-opacity="1" stroke-width="1" stroke-linecap="square" stroke-linejoin="bevel" transform="matrix(1,0,0,1,146,11)"
font-family="Helvetica" font-size="12" font-weight="400" font-style="normal" 
clip-path="url(#clip1776)" >
<defs><clipPath id="clip1776"><path vector-effect="non-scaling-stroke" fill-rule="evenodd" d="M-141,-6 L426,-6 L426,99 L-141,99 L-141,-6z "/>
</clipPath></defs></g>

<g fill="none" stroke="#000000" stroke-opacity="1" stroke-width="1" stroke-linecap="square" stroke-linejoin="bevel" transform="matrix(1,0,0,1,246,89)"
font-family="Helvetica" font-size="12" font-weight="400" font-style="normal" 
clip-path="url(#clip1777)" >
<defs><clipPath id="clip1777"><path vector-effect="non-scaling-stroke" fill-rule="evenodd" d="M-241,-84 L326,-84 L326,21 L-241,21 L-241,-84z "/>
</clipPath></defs></g>

<g fill="none" stroke="none" transform="matrix(1,0,0,1,246,89)"
font-family="Helvetica" font-size="12" font-weight="400" font-style="normal" 
clip-path="url(#clip1777)" >
<path vector-effect="none" fill-rule="evenodd" d="M-54.25,0 L54.25,0 L54.25,15 L-54.25,15 L-54.25,0z "/>
</g>

<g fill="none" stroke="#e8d152" stroke-opacity="1" stroke-width="1" stroke-linecap="square" stroke-linejoin="bevel" transform="matrix(0.25,0,0,0.25,191.75,89)"
font-family="Helvetica" font-size="40" font-weight="400" font-style="normal" 
clip-path="url(#clip1778)" >
<defs><clipPath id="clip1778"><path vector-effect="non-scaling-stroke" fill-rule="evenodd" d="M-747,-336 L1521,-336 L1521,84 L-747,84 L-747,-336z "/>
</clipPath></defs></g>

<g fill="none" stroke="#e8d152" stroke-opacity="1" stroke-width="1" stroke-linecap="square" stroke-linejoin="bevel" transform="matrix(0.25,0,0,0.25,191.75,89)"
font-family="Helvetica" font-size="40" font-weight="400" font-style="normal" 
clip-path="url(#clip1778)" >
</g>

<g fill="none" stroke="#e8d152" stroke-opacity="1" stroke-width="1" stroke-linecap="square" stroke-linejoin="bevel" transform="matrix(0.25,0,0,0.25,191.75,89)"
font-family="Helvetica" font-size="40" font-weight="400" font-style="normal" 
clip-path="url(#clip1779)" >
<defs><clipPath id="clip1779"><path vector-effect="non-scaling-stroke" fill-rule="evenodd" d="M0,0 L434,0 L434,60 L0,60 L0,0z "/>
</clipPath></defs><text textLength="426" fill="#e8d152" fill-opacity="1" stroke="none" xml:space="preserve" x="4" y="41" font-family="Helvetica" font-size="40" font-weight="400" font-style="normal" 
 >Sensor_DataConversion</text>
</g>

<g fill="none" stroke="#e8d152" stroke-opacity="1" stroke-width="1" stroke-linecap="square" stroke-linejoin="bevel" transform="matrix(0.25,0,0,0.25,191.75,89)"
font-family="Helvetica" font-size="40" font-weight="400" font-style="normal" 
clip-path="url(#clip1780)" >
<defs><clipPath id="clip1780"><path vector-effect="non-scaling-stroke" fill-rule="evenodd" d="M-747,-336 L1521,-336 L1521,84 L-747,84 L-747,-336z "/>
</clipPath></defs></g>

<g fill="none" stroke="#e8d152" stroke-opacity="1" stroke-width="1" stroke-linecap="square" stroke-linejoin="bevel" transform="matrix(1,0,0,1,0,0)"
font-family="Helvetica" font-size="40" font-weight="400" font-style="normal" 
clip-path="url(#clip1780)" >
</g>

<g fill="none" stroke="#e8d152" stroke-opacity="1" stroke-width="1" stroke-linecap="square" stroke-linejoin="bevel" transform="matrix(0.25,0,0,0.25,191.75,89)"
font-family="Helvetica" font-size="40" font-weight="400" font-style="normal" 
clip-path="url(#clip1780)" >
</g>

<g fill="none" stroke="#e8d152" stroke-opacity="1" stroke-width="1" stroke-linecap="square" stroke-linejoin="bevel" transform="matrix(0.25,0,0,0.25,191.75,89)"
font-family="Helvetica" font-size="40" font-weight="400" font-style="normal" 
clip-path="url(#clip1780)" >
</g>

<g fill="none" stroke="#000000" stroke-opacity="1" stroke-width="1" stroke-linecap="square" stroke-linejoin="bevel" transform="matrix(1,0,0,1,246,89)"
font-family="Helvetica" font-size="12" font-weight="400" font-style="normal" 
clip-path="url(#clip1781)" >
<defs><clipPath id="clip1781"><path vector-effect="non-scaling-stroke" fill-rule="evenodd" d="M-241,-84 L326,-84 L326,21 L-241,21 L-241,-84z "/>
</clipPath></defs></g>

<g fill="none" stroke="#000000" stroke-opacity="1" stroke-width="1" stroke-linecap="square" stroke-linejoin="bevel" transform="matrix(1,0,0,1,146,49)"
font-family="Helvetica" font-size="12" font-weight="400" font-style="normal" 
clip-path="url(#clip1782)" >
<defs><clipPath id="clip1782"><path vector-effect="non-scaling-stroke" fill-rule="evenodd" d="M-141,-44 L426,-44 L426,61 L-141,61 L-141,-44z "/>
</clipPath></defs></g>

<g fill="#000000" fill-opacity="1" stroke="none" transform="matrix(1,0,0,1,146,49)"
font-family="Helvetica" font-size="12" font-weight="400" font-style="normal" 
clip-path="url(#clip1782)" >
<path vector-effect="none" fill-rule="nonzero" d="M0,0 L-8,-4 L-8,4 L0,0z "/>
</g>

<g fill="none" stroke="#000000" stroke-opacity="1" stroke-width="1" stroke-linecap="square" stroke-linejoin="bevel" transform="matrix(1,0,0,1,146,49)"
font-family="Helvetica" font-size="12" font-weight="400" font-style="normal" 
clip-path="url(#clip1782)" >
</g>

<g fill="none" stroke="#000000" stroke-opacity="1" stroke-width="1" stroke-linecap="square" stroke-linejoin="bevel" transform="matrix(1,0,0,1,-154,-46)"
font-family="Helvetica" font-size="12" font-weight="400" font-style="normal" 
clip-path="url(#clip1783)" >
<defs><clipPath id="clip1783"><path vector-effect="non-scaling-stroke" fill-rule="evenodd" d="M159,51 L726,51 L726,156 L159,156 L159,51z "/>
</clipPath></defs></g>

<g fill="none" stroke="#000000" stroke-opacity="1" stroke-width="1" stroke-linecap="butt" stroke-linejoin="miter" stroke-miterlimit="2" transform="matrix(1,0,0,1,-154,-46)"
font-family="Helvetica" font-size="12" font-weight="400" font-style="normal" 
clip-path="url(#clip1783)" >
<path vector-effect="none" fill-rule="evenodd" d="M195,95 L292,95"/>
</g>

<g fill="none" stroke="#000000" stroke-opacity="1" stroke-width="1" stroke-linecap="square" stroke-linejoin="bevel" transform="matrix(1,0,0,1,-154,-46)"
font-family="Helvetica" font-size="12" font-weight="400" font-style="normal" 
clip-path="url(#clip1783)" >
</g>

<g fill="none" stroke="#000000" stroke-opacity="1" stroke-width="1" stroke-linecap="square" stroke-linejoin="bevel" transform="matrix(1,0,0,1,88.5,50.5)"
font-family="Helvetica" font-size="12" font-weight="400" font-style="normal" 
clip-path="url(#clip1784)" >
<defs><clipPath id="clip1784"><path vector-effect="non-scaling-stroke" fill-rule="evenodd" d="M-83.5,-45.5 L483.5,-45.5 L483.5,59.5 L-83.5,59.5 L-83.5,-45.5z "/>
</clipPath></defs></g>

<g fill="none" stroke="none" transform="matrix(1,0,0,1,88.5,50.5)"
font-family="Helvetica" font-size="12" font-weight="400" font-style="normal" 
clip-path="url(#clip1784)" >
<path vector-effect="none" fill-rule="evenodd" d="M-10.125,0 L10.125,0 L10.125,14 L-10.125,14 L-10.125,0z "/>
</g>

<g fill="none" stroke="#000000" stroke-opacity="1" stroke-width="1" stroke-linecap="square" stroke-linejoin="bevel" transform="matrix(0.25,0,0,0.25,78.375,50.5)"
font-family="Helvetica" font-size="36" font-weight="400" font-style="normal" 
clip-path="url(#clip1785)" >
<defs><clipPath id="clip1785"><path vector-effect="non-scaling-stroke" fill-rule="evenodd" d="M-293.5,-182 L1974.5,-182 L1974.5,238 L-293.5,238 L-293.5,-182z "/>
</clipPath></defs></g>

<g fill="none" stroke="#000000" stroke-opacity="1" stroke-width="1" stroke-linecap="square" stroke-linejoin="bevel" transform="matrix(0.25,0,0,0.25,78.375,50.5)"
font-family="Helvetica" font-size="36" font-weight="400" font-style="normal" 
clip-path="url(#clip1785)" >
</g>

<g fill="none" stroke="#000000" stroke-opacity="1" stroke-width="1" stroke-linecap="square" stroke-linejoin="bevel" transform="matrix(0.25,0,0,0.25,78.375,50.5)"
font-family="Helvetica" font-size="36" font-weight="400" font-style="normal" 
clip-path="url(#clip1786)" >
<defs><clipPath id="clip1786"><path vector-effect="non-scaling-stroke" fill-rule="evenodd" d="M0,0 L81,0 L81,56 L0,56 L0,0z "/>
</clipPath></defs><text textLength="73" fill="#000000" fill-opacity="1" stroke="none" xml:space="preserve" x="4" y="38" font-family="Helvetica" font-size="36" font-weight="400" font-style="normal" 
 >EGT</text>
</g>

<g fill="none" stroke="#000000" stroke-opacity="1" stroke-width="1" stroke-linecap="square" stroke-linejoin="bevel" transform="matrix(0.25,0,0,0.25,78.375,50.5)"
font-family="Helvetica" font-size="36" font-weight="400" font-style="normal" 
clip-path="url(#clip1787)" >
<defs><clipPath id="clip1787"><path vector-effect="non-scaling-stroke" fill-rule="evenodd" d="M-293.5,-182 L1974.5,-182 L1974.5,238 L-293.5,238 L-293.5,-182z "/>
</clipPath></defs></g>

<g fill="none" stroke="#000000" stroke-opacity="1" stroke-width="1" stroke-linecap="square" stroke-linejoin="bevel" transform="matrix(1,0,0,1,0,0)"
font-family="Helvetica" font-size="36" font-weight="400" font-style="normal" 
clip-path="url(#clip1787)" >
</g>

<g fill="none" stroke="#000000" stroke-opacity="1" stroke-width="1" stroke-linecap="square" stroke-linejoin="bevel" transform="matrix(0.25,0,0,0.25,78.375,50.5)"
font-family="Helvetica" font-size="36" font-weight="400" font-style="normal" 
clip-path="url(#clip1787)" >
</g>

<g fill="none" stroke="#000000" stroke-opacity="1" stroke-width="1" stroke-linecap="square" stroke-linejoin="bevel" transform="matrix(0.25,0,0,0.25,78.375,50.5)"
font-family="Helvetica" font-size="36" font-weight="400" font-style="normal" 
clip-path="url(#clip1787)" >
</g>

<g fill="none" stroke="#000000" stroke-opacity="1" stroke-width="1" stroke-linecap="square" stroke-linejoin="bevel" transform="matrix(1,0,0,1,88.5,50.5)"
font-family="Helvetica" font-size="12" font-weight="400" font-style="normal" 
clip-path="url(#clip1788)" >
<defs><clipPath id="clip1788"><path vector-effect="non-scaling-stroke" fill-rule="evenodd" d="M-83.5,-45.5 L483.5,-45.5 L483.5,59.5 L-83.5,59.5 L-83.5,-45.5z "/>
</clipPath></defs></g>

<g fill="none" stroke="#000000" stroke-opacity="1" stroke-width="1" stroke-linecap="square" stroke-linejoin="bevel" transform="matrix(1,0,0,1,536,49)"
font-family="Helvetica" font-size="12" font-weight="400" font-style="normal" 
clip-path="url(#clip1789)" >
<defs><clipPath id="clip1789"><path vector-effect="non-scaling-stroke" fill-rule="evenodd" d="M-531,-44 L36,-44 L36,61 L-531,61 L-531,-44z "/>
</clipPath></defs></g>

<g fill="#e8d152" fill-opacity="1" stroke="none" transform="matrix(1,0,0,1,536,49)"
font-family="Helvetica" font-size="12" font-weight="400" font-style="normal" 
clip-path="url(#clip1789)" >
<path vector-effect="none" fill-rule="nonzero" d="M0,0 L-8,-4 L-8,4 L0,0z "/>
</g>

<g fill="none" stroke="#000000" stroke-opacity="1" stroke-width="1" stroke-linecap="square" stroke-linejoin="bevel" transform="matrix(1,0,0,1,536,49)"
font-family="Helvetica" font-size="12" font-weight="400" font-style="normal" 
clip-path="url(#clip1789)" >
</g>

<g fill="none" stroke="#000000" stroke-opacity="1" stroke-width="1" stroke-linecap="square" stroke-linejoin="bevel" transform="matrix(1,0,0,1,-154,-46)"
font-family="Helvetica" font-size="12" font-weight="400" font-style="normal" 
clip-path="url(#clip1790)" >
<defs><clipPath id="clip1790"><path vector-effect="non-scaling-stroke" fill-rule="evenodd" d="M159,51 L726,51 L726,156 L159,156 L159,51z "/>
</clipPath></defs></g>

<g fill="none" stroke="#e8d152" stroke-opacity="1" stroke-width="1" stroke-linecap="butt" stroke-linejoin="miter" stroke-miterlimit="2" transform="matrix(1,0,0,1,-154,-46)"
font-family="Helvetica" font-size="12" font-weight="400" font-style="normal" 
clip-path="url(#clip1790)" >
<path vector-effect="none" fill-rule="evenodd" d="M500,95 L682,95"/>
</g>

<g fill="none" stroke="#000000" stroke-opacity="1" stroke-width="1" stroke-linecap="square" stroke-linejoin="bevel" transform="matrix(1,0,0,1,-154,-46)"
font-family="Helvetica" font-size="12" font-weight="400" font-style="normal" 
clip-path="url(#clip1790)" >
</g>

<g fill="none" stroke="#000000" stroke-opacity="1" stroke-width="1" stroke-linecap="square" stroke-linejoin="bevel" transform="matrix(1,0,0,1,0,0)"
font-family="Helvetica" font-size="12" font-weight="400" font-style="normal" 
>
</g>

<g fill="none" stroke="#000000" stroke-opacity="1" stroke-width="1" stroke-linecap="square" stroke-linejoin="bevel" transform="matrix(1,0,0,1,0,0)"
font-family="Helvetica" font-size="12" font-weight="400" font-style="normal" 
>
</g>

<g fill="none" stroke="#000000" stroke-opacity="1" stroke-width="1" stroke-linecap="square" stroke-linejoin="bevel" transform="matrix(1,0,0,1,0,0)"
font-family="Helvetica" font-size="12" font-weight="400" font-style="normal" 
clip-path="url(#clip1791)" >
<defs><clipPath id="clip1791"><path vector-effect="non-scaling-stroke" fill-rule="evenodd" d="M0,0 L577,0 L577,115 L0,115 L0,0z "/>
</clipPath></defs></g>

<g fill="none" stroke="#000000" stroke-opacity="1" stroke-width="1" stroke-linecap="square" stroke-linejoin="bevel" transform="matrix(1,0,0,1,0,0)"
font-family="Helvetica" font-size="12" font-weight="400" font-style="normal" 
clip-path="url(#clip1791)" >
</g>

<g fill="#000000" fill-opacity="0" stroke="none" transform="matrix(1,0,0,1,0,0)"
font-family="Helvetica" font-size="12" font-weight="400" font-style="normal" 
clip-path="url(#clip1791)" >
<path vector-effect="non-scaling-stroke" fill-rule="evenodd" d="M0,0 L577,0 L577,115 L0,115 L0,0z "/>
</g>

<g fill="none" stroke="#000000" stroke-opacity="1" stroke-width="1" stroke-linecap="square" stroke-linejoin="bevel" transform="matrix(1,0,0,1,0,0)"
font-family="Helvetica" font-size="12" font-weight="400" font-style="normal" 
clip-path="url(#clip1791)" >
</g>

<g fill="none" stroke="#000000" stroke-opacity="1" stroke-width="1" stroke-linecap="square" stroke-linejoin="bevel" transform="matrix(1,0,0,1,0,0)"
font-family="Helvetica" font-size="12" font-weight="400" font-style="normal" 
>
</g>

<g fill="none" stroke="#000000" stroke-opacity="1" stroke-width="1" stroke-linecap="square" stroke-linejoin="bevel" transform="matrix(1,0,0,1,0,0)"
font-family="Helvetica" font-size="12" font-weight="400" font-style="normal" 
>
</g>

<g fill="none" stroke="#000000" stroke-opacity="1" stroke-width="1" stroke-linecap="square" stroke-linejoin="bevel" transform="matrix(1,0,0,1,0,0)"
font-family="Helvetica" font-size="12" font-weight="400" font-style="normal" 
clip-path="url(#clip1792)" >
<defs><clipPath id="clip1792"><path vector-effect="non-scaling-stroke" fill-rule="evenodd" d="M0,0 L1,0 L1,1 L0,1 L0,0z "/>
</clipPath></defs></g>

<g fill="none" stroke="#000000" stroke-opacity="1" stroke-width="1" stroke-linecap="square" stroke-linejoin="bevel" transform="matrix(1,0,0,1,0,0)"
font-family="Helvetica" font-size="12" font-weight="400" font-style="normal" 
clip-path="url(#clip1792)" >
</g>

<g fill="#000000" fill-opacity="0" stroke="none" transform="matrix(1,0,0,1,0,0)"
font-family="Helvetica" font-size="12" font-weight="400" font-style="normal" 
clip-path="url(#clip1792)" >
<path vector-effect="non-scaling-stroke" fill-rule="evenodd" d="M0,0 L1,0 L1,1 L0,1 L0,0z "/>
</g>

<g fill="none" stroke="#000000" stroke-opacity="1" stroke-width="1" stroke-linecap="square" stroke-linejoin="bevel" transform="matrix(1,0,0,1,0,0)"
font-family="Helvetica" font-size="12" font-weight="400" font-style="normal" 
clip-path="url(#clip1792)" >
</g>

<g fill="none" stroke="#000000" stroke-opacity="1" stroke-width="1" stroke-linecap="square" stroke-linejoin="bevel" transform="matrix(1,0,0,1,0,0)"
font-family="Helvetica" font-size="12" font-weight="400" font-style="normal" 
>
</g>

<g fill="none" stroke="#000000" stroke-opacity="1" stroke-width="1" stroke-linecap="square" stroke-linejoin="bevel" transform="matrix(1,0,0,1,0,0)"
font-family="Helvetica" font-size="12" font-weight="400" font-style="normal" 
>
</g>
</g>
</svg>
