<?xml version="1.0" encoding="UTF-8" standalone="no"?>
<svg width="145.344mm" height="40.5694mm"
 viewBox="0 0 412 115"
 xmlns="http://www.w3.org/2000/svg" xmlns:xlink="http://www.w3.org/1999/xlink"  version="1.2" baseProfile="tiny">
<defs>
</defs>
<g fill="none" stroke="black" stroke-width="1" fill-rule="evenodd" stroke-linecap="square" stroke-linejoin="bevel" >

<g fill="#ffffff" fill-opacity="1" stroke="none" transform="matrix(1,0,0,1,0,0)"
font-family="Helvetica" font-size="12" font-weight="400" font-style="normal" 
>
<path vector-effect="non-scaling-stroke" fill-rule="evenodd" d="M0,0 L412,0 L412,115 L0,115 L0,0z "/>
</g>

<g fill="none" stroke="#000000" stroke-opacity="1" stroke-width="1" stroke-linecap="square" stroke-linejoin="bevel" transform="matrix(1,0,0,1,0,0)"
font-family="Helvetica" font-size="12" font-weight="400" font-style="normal" 
>
</g>

<g fill="none" stroke="#000000" stroke-opacity="1" stroke-width="1" stroke-linecap="square" stroke-linejoin="bevel" transform="matrix(1,0,0,1,0,0)"
font-family="Helvetica" font-size="12" font-weight="400" font-style="normal" 
clip-path="url(#clip311)" >
<defs><clipPath id="clip311"><path vector-effect="non-scaling-stroke" fill-rule="evenodd" d="M5,5 L407,5 L407,110 L5,110 L5,5z "/>
</clipPath></defs></g>

<g fill="none" stroke="#000000" stroke-opacity="1" stroke-width="1" stroke-linecap="square" stroke-linejoin="bevel" transform="matrix(1,0,0,1,-9,-71)"
font-family="Helvetica" font-size="12" font-weight="400" font-style="normal" 
clip-path="url(#clip312)" >
<defs><clipPath id="clip312"><path vector-effect="non-scaling-stroke" fill-rule="evenodd" d="M14,76 L416,76 L416,181 L14,181 L14,76z "/>
</clipPath></defs></g>

<g fill="#000000" fill-opacity="0" stroke="none" transform="matrix(1,0,0,1,-9,-71)"
font-family="Helvetica" font-size="12" font-weight="400" font-style="normal" 
clip-path="url(#clip312)" >
<path vector-effect="non-scaling-stroke" fill-rule="evenodd" d="M14,76 L416,76 L416,181 L14,181 L14,76z "/>
</g>

<g fill="none" stroke="#000000" stroke-opacity="1" stroke-width="1" stroke-linecap="square" stroke-linejoin="bevel" transform="matrix(1,0,0,1,-9,-71)"
font-family="Helvetica" font-size="12" font-weight="400" font-style="normal" 
clip-path="url(#clip312)" >
</g>

<g fill="none" stroke="#000000" stroke-opacity="1" stroke-width="1" stroke-linecap="square" stroke-linejoin="bevel" transform="matrix(1,0,0,1,11,42)"
font-family="Helvetica" font-size="12" font-weight="400" font-style="normal" 
clip-path="url(#clip313)" >
<defs><clipPath id="clip313"><path vector-effect="non-scaling-stroke" fill-rule="evenodd" d="M-6,-37 L396,-37 L396,68 L-6,68 L-6,-37z "/>
</clipPath></defs></g>

<g fill="#ffffff" fill-opacity="1" stroke="none" transform="matrix(1,0,0,1,11,42)"
font-family="Helvetica" font-size="12" font-weight="400" font-style="normal" 
clip-path="url(#clip313)" >
<path vector-effect="none" fill-rule="nonzero" d="M7,0 L23,0 C26.866,0 30,3.13401 30,7 C30,10.866 26.866,14 23,14 L7,14 C3.13401,14 0,10.866 0,7 C0,3.13401 3.13401,0 7,0 z "/>
</g>

<g fill="none" stroke="#000000" stroke-opacity="1" stroke-width="1" stroke-linecap="square" stroke-linejoin="bevel" transform="matrix(1,0,0,1,11,42)"
font-family="Helvetica" font-size="12" font-weight="400" font-style="normal" 
clip-path="url(#clip313)" >
</g>

<g fill="none" stroke="#000000" stroke-opacity="1" stroke-width="1" stroke-linecap="square" stroke-linejoin="bevel" transform="matrix(1,0,0,1,11,42)"
font-family="Helvetica" font-size="12" font-weight="400" font-style="normal" 
clip-path="url(#clip313)" >
</g>

<g fill="none" stroke="#000000" stroke-opacity="1" stroke-width="1" stroke-linecap="square" stroke-linejoin="bevel" transform="matrix(1,0,0,1,11,42)"
font-family="Helvetica" font-size="12" font-weight="400" font-style="normal" 
clip-path="url(#clip314)" >
<defs><clipPath id="clip314"><path vector-effect="non-scaling-stroke" fill-rule="evenodd" d="M0,0 L30,0 L30,14 L0,14 L0,0z "/>
</clipPath></defs></g>

<g fill="none" stroke="#000000" stroke-opacity="1" stroke-width="1" stroke-linecap="square" stroke-linejoin="bevel" transform="matrix(1,0,0,1,26,49)"
font-family="Helvetica" font-size="7.5" font-weight="400" font-style="normal" 
clip-path="url(#clip315)" >
<defs><clipPath id="clip315"><path vector-effect="none" fill-rule="evenodd" d="M-15,-7 L15,-7 L15,7 L-15,7 L-15,-7z "/>
</clipPath></defs></g>

<g fill="none" stroke="#000000" stroke-opacity="1" stroke-width="1" stroke-linecap="square" stroke-linejoin="bevel" transform="matrix(1.33333,0,0,1.33333,26,49)"
font-family="Helvetica" font-size="7.5" font-weight="400" font-style="normal" 
clip-path="url(#clip316)" >
<defs><clipPath id="clip316"><path vector-effect="none" fill-rule="evenodd" d="M-11,-5 L12,-5 L12,6 L-11,6 L-11,-5z "/>
</clipPath></defs><text textLength="4" fill="#000000" fill-opacity="1" stroke="none" xml:space="preserve" x="-2.25" y="2.25" font-family="Helvetica" font-size="7.5" font-weight="400" font-style="normal" 
 >1</text>
</g>

<g fill="none" stroke="#000000" stroke-opacity="1" stroke-width="1" stroke-linecap="square" stroke-linejoin="bevel" transform="matrix(1,0,0,1,26,49)"
font-family="Helvetica" font-size="7.5" font-weight="400" font-style="normal" 
clip-path="url(#clip317)" >
<defs><clipPath id="clip317"><path vector-effect="none" fill-rule="evenodd" d="M-15,-7 L15,-7 L15,7 L-15,7 L-15,-7z "/>
</clipPath></defs></g>

<g fill="none" stroke="#000000" stroke-opacity="1" stroke-width="1" stroke-linecap="square" stroke-linejoin="bevel" transform="matrix(0.75,0,0,0.75,26,49)"
font-family="Helvetica" font-size="7.5" font-weight="400" font-style="normal" 
clip-path="url(#clip318)" >
<defs><clipPath id="clip318"><path vector-effect="none" fill-rule="evenodd" d="M-6,-37 L396,-37 L396,68 L-6,68 L-6,-37z "/>
</clipPath></defs></g>

<g fill="none" stroke="#000000" stroke-opacity="1" stroke-width="1" stroke-linecap="square" stroke-linejoin="bevel" transform="matrix(1,0,0,1,0,0)"
font-family="Helvetica" font-size="7.5" font-weight="400" font-style="normal" 
clip-path="url(#clip318)" >
</g>

<g fill="none" stroke="#000000" stroke-opacity="1" stroke-width="1" stroke-linecap="square" stroke-linejoin="bevel" transform="matrix(1,0,0,1,11,42)"
font-family="Helvetica" font-size="12" font-weight="400" font-style="normal" 
clip-path="url(#clip318)" >
</g>

<g fill="none" stroke="#000000" stroke-opacity="1" stroke-width="1" stroke-linecap="square" stroke-linejoin="bevel" transform="matrix(1,0,0,1,11,42)"
font-family="Helvetica" font-size="12" font-weight="400" font-style="normal" 
clip-path="url(#clip318)" >
</g>

<g fill="none" stroke="#000000" stroke-opacity="1" stroke-width="1" stroke-linecap="butt" stroke-linejoin="miter" stroke-miterlimit="2" transform="matrix(1,0,0,1,11.5,42.5)"
font-family="Helvetica" font-size="12" font-weight="400" font-style="normal" 
clip-path="url(#clip319)" >
<defs><clipPath id="clip319"><path vector-effect="none" fill-rule="evenodd" d="M-6.5,-37.5 L395.5,-37.5 L395.5,67.5 L-6.5,67.5 L-6.5,-37.5z "/>
</clipPath></defs><path vector-effect="none" fill-rule="nonzero" d="M7,0 L23,0 C26.866,0 30,3.13401 30,7 C30,10.866 26.866,14 23,14 L7,14 C3.13401,14 0,10.866 0,7 C0,3.13401 3.13401,0 7,0 z "/>
</g>

<g fill="none" stroke="#000000" stroke-opacity="1" stroke-width="1" stroke-linecap="square" stroke-linejoin="bevel" transform="matrix(1,0,0,1,11,42)"
font-family="Helvetica" font-size="12" font-weight="400" font-style="normal" 
clip-path="url(#clip320)" >
<defs><clipPath id="clip320"><path vector-effect="non-scaling-stroke" fill-rule="evenodd" d="M-6,-37 L396,-37 L396,68 L-6,68 L-6,-37z "/>
</clipPath></defs></g>

<g fill="none" stroke="#000000" stroke-opacity="1" stroke-width="1" stroke-linecap="square" stroke-linejoin="bevel" transform="matrix(1,0,0,1,26,58)"
font-family="Helvetica" font-size="12" font-weight="400" font-style="normal" 
clip-path="url(#clip321)" >
<defs><clipPath id="clip321"><path vector-effect="non-scaling-stroke" fill-rule="evenodd" d="M-21,-53 L381,-53 L381,52 L-21,52 L-21,-53z "/>
</clipPath></defs></g>

<g fill="none" stroke="none" transform="matrix(1,0,0,1,26,58)"
font-family="Helvetica" font-size="12" font-weight="400" font-style="normal" 
clip-path="url(#clip321)" >
<path vector-effect="none" fill-rule="evenodd" d="M-7.625,0 L7.625,0 L7.625,15 L-7.625,15 L-7.625,0z "/>
</g>

<g fill="none" stroke="#000000" stroke-opacity="1" stroke-width="1" stroke-linecap="square" stroke-linejoin="bevel" transform="matrix(0.25,0,0,0.25,18.375,58)"
font-family="Helvetica" font-size="40" font-weight="400" font-style="normal" 
clip-path="url(#clip322)" >
<defs><clipPath id="clip322"><path vector-effect="non-scaling-stroke" fill-rule="evenodd" d="M-53.5,-212 L1554.5,-212 L1554.5,208 L-53.5,208 L-53.5,-212z "/>
</clipPath></defs></g>

<g fill="none" stroke="#000000" stroke-opacity="1" stroke-width="1" stroke-linecap="square" stroke-linejoin="bevel" transform="matrix(0.25,0,0,0.25,18.375,58)"
font-family="Helvetica" font-size="40" font-weight="400" font-style="normal" 
clip-path="url(#clip322)" >
</g>

<g fill="none" stroke="#000000" stroke-opacity="1" stroke-width="1" stroke-linecap="square" stroke-linejoin="bevel" transform="matrix(0.25,0,0,0.25,18.375,58)"
font-family="Helvetica" font-size="40" font-weight="400" font-style="normal" 
clip-path="url(#clip323)" >
<defs><clipPath id="clip323"><path vector-effect="non-scaling-stroke" fill-rule="evenodd" d="M0,0 L61,0 L61,60 L0,60 L0,0z "/>
</clipPath></defs><text textLength="53" fill="#000000" fill-opacity="1" stroke="none" xml:space="preserve" x="4" y="41" font-family="Helvetica" font-size="40" font-weight="400" font-style="normal" 
 >In1</text>
</g>

<g fill="none" stroke="#000000" stroke-opacity="1" stroke-width="1" stroke-linecap="square" stroke-linejoin="bevel" transform="matrix(0.25,0,0,0.25,18.375,58)"
font-family="Helvetica" font-size="40" font-weight="400" font-style="normal" 
clip-path="url(#clip324)" >
<defs><clipPath id="clip324"><path vector-effect="non-scaling-stroke" fill-rule="evenodd" d="M-53.5,-212 L1554.5,-212 L1554.5,208 L-53.5,208 L-53.5,-212z "/>
</clipPath></defs></g>

<g fill="none" stroke="#000000" stroke-opacity="1" stroke-width="1" stroke-linecap="square" stroke-linejoin="bevel" transform="matrix(1,0,0,1,0,0)"
font-family="Helvetica" font-size="40" font-weight="400" font-style="normal" 
clip-path="url(#clip324)" >
</g>

<g fill="none" stroke="#000000" stroke-opacity="1" stroke-width="1" stroke-linecap="square" stroke-linejoin="bevel" transform="matrix(0.25,0,0,0.25,18.375,58)"
font-family="Helvetica" font-size="40" font-weight="400" font-style="normal" 
clip-path="url(#clip324)" >
</g>

<g fill="none" stroke="#000000" stroke-opacity="1" stroke-width="1" stroke-linecap="square" stroke-linejoin="bevel" transform="matrix(0.25,0,0,0.25,18.375,58)"
font-family="Helvetica" font-size="40" font-weight="400" font-style="normal" 
clip-path="url(#clip324)" >
</g>

<g fill="none" stroke="#000000" stroke-opacity="1" stroke-width="1" stroke-linecap="square" stroke-linejoin="bevel" transform="matrix(1,0,0,1,26,58)"
font-family="Helvetica" font-size="12" font-weight="400" font-style="normal" 
clip-path="url(#clip325)" >
<defs><clipPath id="clip325"><path vector-effect="non-scaling-stroke" fill-rule="evenodd" d="M-21,-53 L381,-53 L381,52 L-21,52 L-21,-53z "/>
</clipPath></defs></g>

<g fill="none" stroke="#000000" stroke-opacity="1" stroke-width="1" stroke-linecap="square" stroke-linejoin="bevel" transform="matrix(1,0,0,1,371,42)"
font-family="Helvetica" font-size="12" font-weight="400" font-style="normal" 
clip-path="url(#clip326)" >
<defs><clipPath id="clip326"><path vector-effect="non-scaling-stroke" fill-rule="evenodd" d="M-366,-37 L36,-37 L36,68 L-366,68 L-366,-37z "/>
</clipPath></defs></g>

<g fill="#ffffff" fill-opacity="1" stroke="none" transform="matrix(1,0,0,1,371,42)"
font-family="Helvetica" font-size="12" font-weight="400" font-style="normal" 
clip-path="url(#clip326)" >
<path vector-effect="none" fill-rule="nonzero" d="M7,0 L23,0 C26.866,0 30,3.13401 30,7 C30,10.866 26.866,14 23,14 L7,14 C3.13401,14 0,10.866 0,7 C0,3.13401 3.13401,0 7,0 z "/>
</g>

<g fill="none" stroke="#000000" stroke-opacity="1" stroke-width="1" stroke-linecap="square" stroke-linejoin="bevel" transform="matrix(1,0,0,1,371,42)"
font-family="Helvetica" font-size="12" font-weight="400" font-style="normal" 
clip-path="url(#clip326)" >
</g>

<g fill="none" stroke="#000000" stroke-opacity="1" stroke-width="1" stroke-linecap="square" stroke-linejoin="bevel" transform="matrix(1,0,0,1,371,42)"
font-family="Helvetica" font-size="12" font-weight="400" font-style="normal" 
clip-path="url(#clip326)" >
</g>

<g fill="none" stroke="#000000" stroke-opacity="1" stroke-width="1" stroke-linecap="square" stroke-linejoin="bevel" transform="matrix(1,0,0,1,371,42)"
font-family="Helvetica" font-size="12" font-weight="400" font-style="normal" 
clip-path="url(#clip327)" >
<defs><clipPath id="clip327"><path vector-effect="non-scaling-stroke" fill-rule="evenodd" d="M0,0 L30,0 L30,14 L0,14 L0,0z "/>
</clipPath></defs></g>

<g fill="none" stroke="#000000" stroke-opacity="1" stroke-width="1" stroke-linecap="square" stroke-linejoin="bevel" transform="matrix(1,0,0,1,386,49)"
font-family="Helvetica" font-size="7.5" font-weight="400" font-style="normal" 
clip-path="url(#clip328)" >
<defs><clipPath id="clip328"><path vector-effect="none" fill-rule="evenodd" d="M-15,-7 L15,-7 L15,7 L-15,7 L-15,-7z "/>
</clipPath></defs></g>

<g fill="none" stroke="#000000" stroke-opacity="1" stroke-width="1" stroke-linecap="square" stroke-linejoin="bevel" transform="matrix(1.33333,0,0,1.33333,386,49)"
font-family="Helvetica" font-size="7.5" font-weight="400" font-style="normal" 
clip-path="url(#clip329)" >
<defs><clipPath id="clip329"><path vector-effect="none" fill-rule="evenodd" d="M-11,-5 L12,-5 L12,6 L-11,6 L-11,-5z "/>
</clipPath></defs><text textLength="4" fill="#000000" fill-opacity="1" stroke="none" xml:space="preserve" x="-2.25" y="2.25" font-family="Helvetica" font-size="7.5" font-weight="400" font-style="normal" 
 >1</text>
</g>

<g fill="none" stroke="#000000" stroke-opacity="1" stroke-width="1" stroke-linecap="square" stroke-linejoin="bevel" transform="matrix(1,0,0,1,386,49)"
font-family="Helvetica" font-size="7.5" font-weight="400" font-style="normal" 
clip-path="url(#clip330)" >
<defs><clipPath id="clip330"><path vector-effect="none" fill-rule="evenodd" d="M-15,-7 L15,-7 L15,7 L-15,7 L-15,-7z "/>
</clipPath></defs></g>

<g fill="none" stroke="#000000" stroke-opacity="1" stroke-width="1" stroke-linecap="square" stroke-linejoin="bevel" transform="matrix(0.75,0,0,0.75,386,49)"
font-family="Helvetica" font-size="7.5" font-weight="400" font-style="normal" 
clip-path="url(#clip331)" >
<defs><clipPath id="clip331"><path vector-effect="none" fill-rule="evenodd" d="M-366,-37 L36,-37 L36,68 L-366,68 L-366,-37z "/>
</clipPath></defs></g>

<g fill="none" stroke="#000000" stroke-opacity="1" stroke-width="1" stroke-linecap="square" stroke-linejoin="bevel" transform="matrix(1,0,0,1,0,0)"
font-family="Helvetica" font-size="7.5" font-weight="400" font-style="normal" 
clip-path="url(#clip331)" >
</g>

<g fill="none" stroke="#000000" stroke-opacity="1" stroke-width="1" stroke-linecap="square" stroke-linejoin="bevel" transform="matrix(1,0,0,1,371,42)"
font-family="Helvetica" font-size="12" font-weight="400" font-style="normal" 
clip-path="url(#clip331)" >
</g>

<g fill="none" stroke="#000000" stroke-opacity="1" stroke-width="1" stroke-linecap="square" stroke-linejoin="bevel" transform="matrix(1,0,0,1,371,42)"
font-family="Helvetica" font-size="12" font-weight="400" font-style="normal" 
clip-path="url(#clip331)" >
</g>

<g fill="none" stroke="#000000" stroke-opacity="1" stroke-width="1" stroke-linecap="butt" stroke-linejoin="miter" stroke-miterlimit="2" transform="matrix(1,0,0,1,371.5,42.5)"
font-family="Helvetica" font-size="12" font-weight="400" font-style="normal" 
clip-path="url(#clip332)" >
<defs><clipPath id="clip332"><path vector-effect="none" fill-rule="evenodd" d="M-366.5,-37.5 L35.5,-37.5 L35.5,67.5 L-366.5,67.5 L-366.5,-37.5z "/>
</clipPath></defs><path vector-effect="none" fill-rule="nonzero" d="M7,0 L23,0 C26.866,0 30,3.13401 30,7 C30,10.866 26.866,14 23,14 L7,14 C3.13401,14 0,10.866 0,7 C0,3.13401 3.13401,0 7,0 z "/>
</g>

<g fill="none" stroke="#000000" stroke-opacity="1" stroke-width="1" stroke-linecap="square" stroke-linejoin="bevel" transform="matrix(1,0,0,1,371,42)"
font-family="Helvetica" font-size="12" font-weight="400" font-style="normal" 
clip-path="url(#clip333)" >
<defs><clipPath id="clip333"><path vector-effect="non-scaling-stroke" fill-rule="evenodd" d="M-366,-37 L36,-37 L36,68 L-366,68 L-366,-37z "/>
</clipPath></defs></g>

<g fill="none" stroke="#000000" stroke-opacity="1" stroke-width="1" stroke-linecap="square" stroke-linejoin="bevel" transform="matrix(1,0,0,1,386,58)"
font-family="Helvetica" font-size="12" font-weight="400" font-style="normal" 
clip-path="url(#clip334)" >
<defs><clipPath id="clip334"><path vector-effect="non-scaling-stroke" fill-rule="evenodd" d="M-381,-53 L21,-53 L21,52 L-381,52 L-381,-53z "/>
</clipPath></defs></g>

<g fill="none" stroke="none" transform="matrix(1,0,0,1,386,58)"
font-family="Helvetica" font-size="12" font-weight="400" font-style="normal" 
clip-path="url(#clip334)" >
<path vector-effect="none" fill-rule="evenodd" d="M-11.625,0 L11.625,0 L11.625,15 L-11.625,15 L-11.625,0z "/>
</g>

<g fill="none" stroke="#000000" stroke-opacity="1" stroke-width="1" stroke-linecap="square" stroke-linejoin="bevel" transform="matrix(0.25,0,0,0.25,374.375,58)"
font-family="Helvetica" font-size="40" font-weight="400" font-style="normal" 
clip-path="url(#clip335)" >
<defs><clipPath id="clip335"><path vector-effect="non-scaling-stroke" fill-rule="evenodd" d="M-1477.5,-212 L130.5,-212 L130.5,208 L-1477.5,208 L-1477.5,-212z "/>
</clipPath></defs></g>

<g fill="none" stroke="#000000" stroke-opacity="1" stroke-width="1" stroke-linecap="square" stroke-linejoin="bevel" transform="matrix(0.25,0,0,0.25,374.375,58)"
font-family="Helvetica" font-size="40" font-weight="400" font-style="normal" 
clip-path="url(#clip335)" >
</g>

<g fill="none" stroke="#000000" stroke-opacity="1" stroke-width="1" stroke-linecap="square" stroke-linejoin="bevel" transform="matrix(0.25,0,0,0.25,374.375,58)"
font-family="Helvetica" font-size="40" font-weight="400" font-style="normal" 
clip-path="url(#clip336)" >
<defs><clipPath id="clip336"><path vector-effect="non-scaling-stroke" fill-rule="evenodd" d="M0,0 L93,0 L93,60 L0,60 L0,0z "/>
</clipPath></defs><text textLength="85" fill="#000000" fill-opacity="1" stroke="none" xml:space="preserve" x="4" y="41" font-family="Helvetica" font-size="40" font-weight="400" font-style="normal" 
 >Out1</text>
</g>

<g fill="none" stroke="#000000" stroke-opacity="1" stroke-width="1" stroke-linecap="square" stroke-linejoin="bevel" transform="matrix(0.25,0,0,0.25,374.375,58)"
font-family="Helvetica" font-size="40" font-weight="400" font-style="normal" 
clip-path="url(#clip337)" >
<defs><clipPath id="clip337"><path vector-effect="non-scaling-stroke" fill-rule="evenodd" d="M-1477.5,-212 L130.5,-212 L130.5,208 L-1477.5,208 L-1477.5,-212z "/>
</clipPath></defs></g>

<g fill="none" stroke="#000000" stroke-opacity="1" stroke-width="1" stroke-linecap="square" stroke-linejoin="bevel" transform="matrix(1,0,0,1,0,0)"
font-family="Helvetica" font-size="40" font-weight="400" font-style="normal" 
clip-path="url(#clip337)" >
</g>

<g fill="none" stroke="#000000" stroke-opacity="1" stroke-width="1" stroke-linecap="square" stroke-linejoin="bevel" transform="matrix(0.25,0,0,0.25,374.375,58)"
font-family="Helvetica" font-size="40" font-weight="400" font-style="normal" 
clip-path="url(#clip337)" >
</g>

<g fill="none" stroke="#000000" stroke-opacity="1" stroke-width="1" stroke-linecap="square" stroke-linejoin="bevel" transform="matrix(0.25,0,0,0.25,374.375,58)"
font-family="Helvetica" font-size="40" font-weight="400" font-style="normal" 
clip-path="url(#clip337)" >
</g>

<g fill="none" stroke="#000000" stroke-opacity="1" stroke-width="1" stroke-linecap="square" stroke-linejoin="bevel" transform="matrix(1,0,0,1,386,58)"
font-family="Helvetica" font-size="12" font-weight="400" font-style="normal" 
clip-path="url(#clip338)" >
<defs><clipPath id="clip338"><path vector-effect="non-scaling-stroke" fill-rule="evenodd" d="M-381,-53 L21,-53 L21,52 L-381,52 L-381,-53z "/>
</clipPath></defs></g>

<g fill="none" stroke="#000000" stroke-opacity="1" stroke-width="1" stroke-linecap="square" stroke-linejoin="bevel" transform="matrix(1,0,0,1,101,11)"
font-family="Helvetica" font-size="12" font-weight="400" font-style="normal" 
clip-path="url(#clip339)" >
<defs><clipPath id="clip339"><path vector-effect="non-scaling-stroke" fill-rule="evenodd" d="M-96,-6 L306,-6 L306,99 L-96,99 L-96,-6z "/>
</clipPath></defs></g>

<g fill="#ffffff" fill-opacity="1" stroke="none" transform="matrix(1,0,0,1,101,11)"
font-family="Helvetica" font-size="12" font-weight="400" font-style="normal" 
clip-path="url(#clip339)" >
<path vector-effect="none" fill-rule="evenodd" d="M0,0 L200,0 L200,76 L0,76 L0,0z "/>
</g>

<g fill="none" stroke="#000000" stroke-opacity="1" stroke-width="1" stroke-linecap="square" stroke-linejoin="bevel" transform="matrix(1,0,0,1,101,11)"
font-family="Helvetica" font-size="12" font-weight="400" font-style="normal" 
clip-path="url(#clip339)" >
</g>

<g fill="none" stroke="#000000" stroke-opacity="1" stroke-width="1" stroke-linecap="square" stroke-linejoin="bevel" transform="matrix(1,0,0,1,101,11)"
font-family="Helvetica" font-size="12" font-weight="400" font-style="normal" 
clip-path="url(#clip339)" >
</g>

<g fill="none" stroke="#000000" stroke-opacity="1" stroke-width="1" stroke-linecap="square" stroke-linejoin="bevel" transform="matrix(1,0,0,1,101,11)"
font-family="Helvetica" font-size="12" font-weight="400" font-style="normal" 
clip-path="url(#clip340)" >
<defs><clipPath id="clip340"><path vector-effect="non-scaling-stroke" fill-rule="evenodd" d="M0,0 L200,0 L200,76 L0,76 L0,0z "/>
</clipPath></defs></g>

<g fill="none" stroke="#e8d152" stroke-opacity="1" stroke-width="1" stroke-linecap="square" stroke-linejoin="bevel" transform="matrix(1,0,0,1,201,49)"
font-family="Helvetica" font-size="7.5" font-weight="400" font-style="normal" 
clip-path="url(#clip341)" >
<defs><clipPath id="clip341"><path vector-effect="none" fill-rule="evenodd" d="M-100,-38 L100,-38 L100,38 L-100,38 L-100,-38z "/>
</clipPath></defs></g>

<g fill="none" stroke="#e8d152" stroke-opacity="1" stroke-width="1" stroke-linecap="square" stroke-linejoin="bevel" transform="matrix(1.33333,0,0,1.33333,201,49)"
font-family="Helvetica" font-size="7.5" font-weight="400" font-style="normal" 
clip-path="url(#clip342)" >
<defs><clipPath id="clip342"><path vector-effect="none" fill-rule="evenodd" d="M-75,-28 L75,-28 L75,29 L-75,29 L-75,-28z "/>
</clipPath></defs><text textLength="28" fill="#e8d152" fill-opacity="1" stroke="none" xml:space="preserve" x="-15" y="2.25" font-family="Helvetica" font-size="7.5" font-weight="400" font-style="normal" 
 >Bad Link</text>
</g>

<g fill="none" stroke="#e8d152" stroke-opacity="1" stroke-width="1" stroke-linecap="square" stroke-linejoin="bevel" transform="matrix(1,0,0,1,201,49)"
font-family="Helvetica" font-size="7.5" font-weight="400" font-style="normal" 
clip-path="url(#clip343)" >
<defs><clipPath id="clip343"><path vector-effect="none" fill-rule="evenodd" d="M-100,-38 L100,-38 L100,38 L-100,38 L-100,-38z "/>
</clipPath></defs></g>

<g fill="none" stroke="#e8d152" stroke-opacity="1" stroke-width="1" stroke-linecap="square" stroke-linejoin="bevel" transform="matrix(0.75,0,0,0.75,201,49)"
font-family="Helvetica" font-size="7.5" font-weight="400" font-style="normal" 
clip-path="url(#clip344)" >
<defs><clipPath id="clip344"><path vector-effect="none" fill-rule="evenodd" d="M-96,-6 L306,-6 L306,99 L-96,99 L-96,-6z "/>
</clipPath></defs></g>

<g fill="none" stroke="#e8d152" stroke-opacity="1" stroke-width="1" stroke-linecap="square" stroke-linejoin="bevel" transform="matrix(1,0,0,1,0,0)"
font-family="Helvetica" font-size="7.5" font-weight="400" font-style="normal" 
clip-path="url(#clip344)" >
</g>

<g fill="none" stroke="#000000" stroke-opacity="1" stroke-width="1" stroke-linecap="square" stroke-linejoin="bevel" transform="matrix(1,0,0,1,101,11)"
font-family="Helvetica" font-size="12" font-weight="400" font-style="normal" 
clip-path="url(#clip344)" >
</g>

<g fill="none" stroke="#000000" stroke-opacity="1" stroke-width="1" stroke-linecap="square" stroke-linejoin="bevel" transform="matrix(1,0,0,1,101,11)"
font-family="Helvetica" font-size="12" font-weight="400" font-style="normal" 
clip-path="url(#clip344)" >
</g>

<g fill="none" stroke="#ff0000" stroke-opacity="1" stroke-dasharray="4,2" stroke-dashoffset="0" stroke-width="1" stroke-linecap="butt" stroke-linejoin="miter" stroke-miterlimit="2" transform="matrix(1,0,0,1,101.5,11.5)"
font-family="Helvetica" font-size="12" font-weight="400" font-style="normal" 
clip-path="url(#clip345)" >
<defs><clipPath id="clip345"><path vector-effect="none" fill-rule="evenodd" d="M-96.5,-6.5 L305.5,-6.5 L305.5,98.5 L-96.5,98.5 L-96.5,-6.5z "/>
</clipPath></defs><path vector-effect="none" fill-rule="evenodd" d="M0,0 L200,0 L200,76 L0,76 L0,0z "/>
</g>

<g fill="none" stroke="#000000" stroke-opacity="1" stroke-width="1" stroke-linecap="square" stroke-linejoin="bevel" transform="matrix(1,0,0,1,101,11)"
font-family="Helvetica" font-size="12" font-weight="400" font-style="normal" 
clip-path="url(#clip346)" >
<defs><clipPath id="clip346"><path vector-effect="non-scaling-stroke" fill-rule="evenodd" d="M-96,-6 L306,-6 L306,99 L-96,99 L-96,-6z "/>
</clipPath></defs></g>

<g fill="none" stroke="#000000" stroke-opacity="1" stroke-width="1" stroke-linecap="square" stroke-linejoin="bevel" transform="matrix(1,0,0,1,201,89)"
font-family="Helvetica" font-size="12" font-weight="400" font-style="normal" 
clip-path="url(#clip347)" >
<defs><clipPath id="clip347"><path vector-effect="non-scaling-stroke" fill-rule="evenodd" d="M-196,-84 L206,-84 L206,21 L-196,21 L-196,-84z "/>
</clipPath></defs></g>

<g fill="none" stroke="none" transform="matrix(1,0,0,1,201,89)"
font-family="Helvetica" font-size="12" font-weight="400" font-style="normal" 
clip-path="url(#clip347)" >
<path vector-effect="none" fill-rule="evenodd" d="M-54.25,0 L54.25,0 L54.25,15 L-54.25,15 L-54.25,0z "/>
</g>

<g fill="none" stroke="#e8d152" stroke-opacity="1" stroke-width="1" stroke-linecap="square" stroke-linejoin="bevel" transform="matrix(0.25,0,0,0.25,146.75,89)"
font-family="Helvetica" font-size="40" font-weight="400" font-style="normal" 
clip-path="url(#clip348)" >
<defs><clipPath id="clip348"><path vector-effect="non-scaling-stroke" fill-rule="evenodd" d="M-567,-336 L1041,-336 L1041,84 L-567,84 L-567,-336z "/>
</clipPath></defs></g>

<g fill="none" stroke="#e8d152" stroke-opacity="1" stroke-width="1" stroke-linecap="square" stroke-linejoin="bevel" transform="matrix(0.25,0,0,0.25,146.75,89)"
font-family="Helvetica" font-size="40" font-weight="400" font-style="normal" 
clip-path="url(#clip348)" >
</g>

<g fill="none" stroke="#e8d152" stroke-opacity="1" stroke-width="1" stroke-linecap="square" stroke-linejoin="bevel" transform="matrix(0.25,0,0,0.25,146.75,89)"
font-family="Helvetica" font-size="40" font-weight="400" font-style="normal" 
clip-path="url(#clip349)" >
<defs><clipPath id="clip349"><path vector-effect="non-scaling-stroke" fill-rule="evenodd" d="M0,0 L434,0 L434,60 L0,60 L0,0z "/>
</clipPath></defs><text textLength="426" fill="#e8d152" fill-opacity="1" stroke="none" xml:space="preserve" x="4" y="41" font-family="Helvetica" font-size="40" font-weight="400" font-style="normal" 
 >Sensor_DataConversion</text>
</g>

<g fill="none" stroke="#e8d152" stroke-opacity="1" stroke-width="1" stroke-linecap="square" stroke-linejoin="bevel" transform="matrix(0.25,0,0,0.25,146.75,89)"
font-family="Helvetica" font-size="40" font-weight="400" font-style="normal" 
clip-path="url(#clip350)" >
<defs><clipPath id="clip350"><path vector-effect="non-scaling-stroke" fill-rule="evenodd" d="M-567,-336 L1041,-336 L1041,84 L-567,84 L-567,-336z "/>
</clipPath></defs></g>

<g fill="none" stroke="#e8d152" stroke-opacity="1" stroke-width="1" stroke-linecap="square" stroke-linejoin="bevel" transform="matrix(1,0,0,1,0,0)"
font-family="Helvetica" font-size="40" font-weight="400" font-style="normal" 
clip-path="url(#clip350)" >
</g>

<g fill="none" stroke="#e8d152" stroke-opacity="1" stroke-width="1" stroke-linecap="square" stroke-linejoin="bevel" transform="matrix(0.25,0,0,0.25,146.75,89)"
font-family="Helvetica" font-size="40" font-weight="400" font-style="normal" 
clip-path="url(#clip350)" >
</g>

<g fill="none" stroke="#e8d152" stroke-opacity="1" stroke-width="1" stroke-linecap="square" stroke-linejoin="bevel" transform="matrix(0.25,0,0,0.25,146.75,89)"
font-family="Helvetica" font-size="40" font-weight="400" font-style="normal" 
clip-path="url(#clip350)" >
</g>

<g fill="none" stroke="#000000" stroke-opacity="1" stroke-width="1" stroke-linecap="square" stroke-linejoin="bevel" transform="matrix(1,0,0,1,201,89)"
font-family="Helvetica" font-size="12" font-weight="400" font-style="normal" 
clip-path="url(#clip351)" >
<defs><clipPath id="clip351"><path vector-effect="non-scaling-stroke" fill-rule="evenodd" d="M-196,-84 L206,-84 L206,21 L-196,21 L-196,-84z "/>
</clipPath></defs></g>

<g fill="none" stroke="#000000" stroke-opacity="1" stroke-width="1" stroke-linecap="square" stroke-linejoin="bevel" transform="matrix(1,0,0,1,101,49)"
font-family="Helvetica" font-size="12" font-weight="400" font-style="normal" 
clip-path="url(#clip352)" >
<defs><clipPath id="clip352"><path vector-effect="non-scaling-stroke" fill-rule="evenodd" d="M-96,-44 L306,-44 L306,61 L-96,61 L-96,-44z "/>
</clipPath></defs></g>

<g fill="#000000" fill-opacity="1" stroke="none" transform="matrix(1,0,0,1,101,49)"
font-family="Helvetica" font-size="12" font-weight="400" font-style="normal" 
clip-path="url(#clip352)" >
<path vector-effect="none" fill-rule="nonzero" d="M0,0 L-8,-4 L-8,4 L0,0z "/>
</g>

<g fill="none" stroke="#000000" stroke-opacity="1" stroke-width="1" stroke-linecap="square" stroke-linejoin="bevel" transform="matrix(1,0,0,1,101,49)"
font-family="Helvetica" font-size="12" font-weight="400" font-style="normal" 
clip-path="url(#clip352)" >
</g>

<g fill="none" stroke="#000000" stroke-opacity="1" stroke-width="1" stroke-linecap="square" stroke-linejoin="bevel" transform="matrix(1,0,0,1,-9,-71)"
font-family="Helvetica" font-size="12" font-weight="400" font-style="normal" 
clip-path="url(#clip353)" >
<defs><clipPath id="clip353"><path vector-effect="non-scaling-stroke" fill-rule="evenodd" d="M14,76 L416,76 L416,181 L14,181 L14,76z "/>
</clipPath></defs></g>

<g fill="none" stroke="#000000" stroke-opacity="1" stroke-width="1" stroke-linecap="butt" stroke-linejoin="miter" stroke-miterlimit="2" transform="matrix(1,0,0,1,-9,-71)"
font-family="Helvetica" font-size="12" font-weight="400" font-style="normal" 
clip-path="url(#clip353)" >
<path vector-effect="none" fill-rule="evenodd" d="M50,120 L102,120"/>
</g>

<g fill="none" stroke="#000000" stroke-opacity="1" stroke-width="1" stroke-linecap="square" stroke-linejoin="bevel" transform="matrix(1,0,0,1,-9,-71)"
font-family="Helvetica" font-size="12" font-weight="400" font-style="normal" 
clip-path="url(#clip353)" >
</g>

<g fill="none" stroke="#000000" stroke-opacity="1" stroke-width="1" stroke-linecap="square" stroke-linejoin="bevel" transform="matrix(1,0,0,1,46,50.5)"
font-family="Helvetica" font-size="12" font-weight="400" font-style="normal" 
clip-path="url(#clip354)" >
<defs><clipPath id="clip354"><path vector-effect="non-scaling-stroke" fill-rule="evenodd" d="M-41,-45.5 L361,-45.5 L361,59.5 L-41,59.5 L-41,-45.5z "/>
</clipPath></defs></g>

<g fill="none" stroke="none" transform="matrix(1,0,0,1,46,50.5)"
font-family="Helvetica" font-size="12" font-weight="400" font-style="normal" 
clip-path="url(#clip354)" >
<path vector-effect="none" fill-rule="evenodd" d="M0,0 L39.25,0 L39.25,14 L0,14 L0,0z "/>
</g>

<g fill="none" stroke="#000000" stroke-opacity="1" stroke-width="1" stroke-linecap="square" stroke-linejoin="bevel" transform="matrix(0.25,0,0,0.25,46,50.5)"
font-family="Helvetica" font-size="36" font-weight="400" font-style="normal" 
clip-path="url(#clip355)" >
<defs><clipPath id="clip355"><path vector-effect="non-scaling-stroke" fill-rule="evenodd" d="M-164,-182 L1444,-182 L1444,238 L-164,238 L-164,-182z "/>
</clipPath></defs></g>

<g fill="none" stroke="#000000" stroke-opacity="1" stroke-width="1" stroke-linecap="square" stroke-linejoin="bevel" transform="matrix(0.25,0,0,0.25,46,50.5)"
font-family="Helvetica" font-size="36" font-weight="400" font-style="normal" 
clip-path="url(#clip355)" >
</g>

<g fill="none" stroke="#000000" stroke-opacity="1" stroke-width="1" stroke-linecap="square" stroke-linejoin="bevel" transform="matrix(0.25,0,0,0.25,46,50.5)"
font-family="Helvetica" font-size="36" font-weight="400" font-style="normal" 
clip-path="url(#clip356)" >
<defs><clipPath id="clip356"><path vector-effect="non-scaling-stroke" fill-rule="evenodd" d="M0,0 L157,0 L157,56 L0,56 L0,0z "/>
</clipPath></defs><text textLength="149" fill="#000000" fill-opacity="1" stroke="none" xml:space="preserve" x="4" y="38" font-family="Helvetica" font-size="36" font-weight="400" font-style="normal" 
 >APUData</text>
</g>

<g fill="none" stroke="#000000" stroke-opacity="1" stroke-width="1" stroke-linecap="square" stroke-linejoin="bevel" transform="matrix(0.25,0,0,0.25,46,50.5)"
font-family="Helvetica" font-size="36" font-weight="400" font-style="normal" 
clip-path="url(#clip357)" >
<defs><clipPath id="clip357"><path vector-effect="non-scaling-stroke" fill-rule="evenodd" d="M-164,-182 L1444,-182 L1444,238 L-164,238 L-164,-182z "/>
</clipPath></defs></g>

<g fill="none" stroke="#000000" stroke-opacity="1" stroke-width="1" stroke-linecap="square" stroke-linejoin="bevel" transform="matrix(1,0,0,1,0,0)"
font-family="Helvetica" font-size="36" font-weight="400" font-style="normal" 
clip-path="url(#clip357)" >
</g>

<g fill="none" stroke="#000000" stroke-opacity="1" stroke-width="1" stroke-linecap="square" stroke-linejoin="bevel" transform="matrix(0.25,0,0,0.25,46,50.5)"
font-family="Helvetica" font-size="36" font-weight="400" font-style="normal" 
clip-path="url(#clip357)" >
</g>

<g fill="none" stroke="#000000" stroke-opacity="1" stroke-width="1" stroke-linecap="square" stroke-linejoin="bevel" transform="matrix(0.25,0,0,0.25,46,50.5)"
font-family="Helvetica" font-size="36" font-weight="400" font-style="normal" 
clip-path="url(#clip357)" >
</g>

<g fill="none" stroke="#000000" stroke-opacity="1" stroke-width="1" stroke-linecap="square" stroke-linejoin="bevel" transform="matrix(1,0,0,1,46,50.5)"
font-family="Helvetica" font-size="12" font-weight="400" font-style="normal" 
clip-path="url(#clip358)" >
<defs><clipPath id="clip358"><path vector-effect="non-scaling-stroke" fill-rule="evenodd" d="M-41,-45.5 L361,-45.5 L361,59.5 L-41,59.5 L-41,-45.5z "/>
</clipPath></defs></g>

<g fill="none" stroke="#000000" stroke-opacity="1" stroke-width="1" stroke-linecap="square" stroke-linejoin="bevel" transform="matrix(1,0,0,1,371,49)"
font-family="Helvetica" font-size="12" font-weight="400" font-style="normal" 
clip-path="url(#clip359)" >
<defs><clipPath id="clip359"><path vector-effect="non-scaling-stroke" fill-rule="evenodd" d="M-366,-44 L36,-44 L36,61 L-366,61 L-366,-44z "/>
</clipPath></defs></g>

<g fill="#e8d152" fill-opacity="1" stroke="none" transform="matrix(1,0,0,1,371,49)"
font-family="Helvetica" font-size="12" font-weight="400" font-style="normal" 
clip-path="url(#clip359)" >
<path vector-effect="none" fill-rule="nonzero" d="M0,0 L-8,-4 L-8,4 L0,0z "/>
</g>

<g fill="none" stroke="#000000" stroke-opacity="1" stroke-width="1" stroke-linecap="square" stroke-linejoin="bevel" transform="matrix(1,0,0,1,371,49)"
font-family="Helvetica" font-size="12" font-weight="400" font-style="normal" 
clip-path="url(#clip359)" >
</g>

<g fill="none" stroke="#000000" stroke-opacity="1" stroke-width="1" stroke-linecap="square" stroke-linejoin="bevel" transform="matrix(1,0,0,1,-9,-71)"
font-family="Helvetica" font-size="12" font-weight="400" font-style="normal" 
clip-path="url(#clip360)" >
<defs><clipPath id="clip360"><path vector-effect="non-scaling-stroke" fill-rule="evenodd" d="M14,76 L416,76 L416,181 L14,181 L14,76z "/>
</clipPath></defs></g>

<g fill="none" stroke="#e8d152" stroke-opacity="1" stroke-width="1" stroke-linecap="butt" stroke-linejoin="miter" stroke-miterlimit="2" transform="matrix(1,0,0,1,-9,-71)"
font-family="Helvetica" font-size="12" font-weight="400" font-style="normal" 
clip-path="url(#clip360)" >
<path vector-effect="none" fill-rule="evenodd" d="M310,120 L372,120"/>
</g>

<g fill="none" stroke="#000000" stroke-opacity="1" stroke-width="1" stroke-linecap="square" stroke-linejoin="bevel" transform="matrix(1,0,0,1,-9,-71)"
font-family="Helvetica" font-size="12" font-weight="400" font-style="normal" 
clip-path="url(#clip360)" >
</g>

<g fill="none" stroke="#000000" stroke-opacity="1" stroke-width="1" stroke-linecap="square" stroke-linejoin="bevel" transform="matrix(1,0,0,1,0,0)"
font-family="Helvetica" font-size="12" font-weight="400" font-style="normal" 
>
</g>

<g fill="none" stroke="#000000" stroke-opacity="1" stroke-width="1" stroke-linecap="square" stroke-linejoin="bevel" transform="matrix(1,0,0,1,0,0)"
font-family="Helvetica" font-size="12" font-weight="400" font-style="normal" 
>
</g>

<g fill="none" stroke="#000000" stroke-opacity="1" stroke-width="1" stroke-linecap="square" stroke-linejoin="bevel" transform="matrix(1,0,0,1,0,0)"
font-family="Helvetica" font-size="12" font-weight="400" font-style="normal" 
clip-path="url(#clip361)" >
<defs><clipPath id="clip361"><path vector-effect="non-scaling-stroke" fill-rule="evenodd" d="M0,0 L412,0 L412,115 L0,115 L0,0z "/>
</clipPath></defs></g>

<g fill="none" stroke="#000000" stroke-opacity="1" stroke-width="1" stroke-linecap="square" stroke-linejoin="bevel" transform="matrix(1,0,0,1,0,0)"
font-family="Helvetica" font-size="12" font-weight="400" font-style="normal" 
clip-path="url(#clip361)" >
</g>

<g fill="#000000" fill-opacity="0" stroke="none" transform="matrix(1,0,0,1,0,0)"
font-family="Helvetica" font-size="12" font-weight="400" font-style="normal" 
clip-path="url(#clip361)" >
<path vector-effect="non-scaling-stroke" fill-rule="evenodd" d="M0,0 L412,0 L412,115 L0,115 L0,0z "/>
</g>

<g fill="none" stroke="#000000" stroke-opacity="1" stroke-width="1" stroke-linecap="square" stroke-linejoin="bevel" transform="matrix(1,0,0,1,0,0)"
font-family="Helvetica" font-size="12" font-weight="400" font-style="normal" 
clip-path="url(#clip361)" >
</g>

<g fill="none" stroke="#000000" stroke-opacity="1" stroke-width="1" stroke-linecap="square" stroke-linejoin="bevel" transform="matrix(1,0,0,1,0,0)"
font-family="Helvetica" font-size="12" font-weight="400" font-style="normal" 
>
</g>

<g fill="none" stroke="#000000" stroke-opacity="1" stroke-width="1" stroke-linecap="square" stroke-linejoin="bevel" transform="matrix(1,0,0,1,0,0)"
font-family="Helvetica" font-size="12" font-weight="400" font-style="normal" 
>
</g>

<g fill="none" stroke="#000000" stroke-opacity="1" stroke-width="1" stroke-linecap="square" stroke-linejoin="bevel" transform="matrix(1,0,0,1,0,0)"
font-family="Helvetica" font-size="12" font-weight="400" font-style="normal" 
clip-path="url(#clip362)" >
<defs><clipPath id="clip362"><path vector-effect="non-scaling-stroke" fill-rule="evenodd" d="M0,0 L1,0 L1,1 L0,1 L0,0z "/>
</clipPath></defs></g>

<g fill="none" stroke="#000000" stroke-opacity="1" stroke-width="1" stroke-linecap="square" stroke-linejoin="bevel" transform="matrix(1,0,0,1,0,0)"
font-family="Helvetica" font-size="12" font-weight="400" font-style="normal" 
clip-path="url(#clip362)" >
</g>

<g fill="#000000" fill-opacity="0" stroke="none" transform="matrix(1,0,0,1,0,0)"
font-family="Helvetica" font-size="12" font-weight="400" font-style="normal" 
clip-path="url(#clip362)" >
<path vector-effect="non-scaling-stroke" fill-rule="evenodd" d="M0,0 L1,0 L1,1 L0,1 L0,0z "/>
</g>

<g fill="none" stroke="#000000" stroke-opacity="1" stroke-width="1" stroke-linecap="square" stroke-linejoin="bevel" transform="matrix(1,0,0,1,0,0)"
font-family="Helvetica" font-size="12" font-weight="400" font-style="normal" 
clip-path="url(#clip362)" >
</g>

<g fill="none" stroke="#000000" stroke-opacity="1" stroke-width="1" stroke-linecap="square" stroke-linejoin="bevel" transform="matrix(1,0,0,1,0,0)"
font-family="Helvetica" font-size="12" font-weight="400" font-style="normal" 
>
</g>

<g fill="none" stroke="#000000" stroke-opacity="1" stroke-width="1" stroke-linecap="square" stroke-linejoin="bevel" transform="matrix(1,0,0,1,0,0)"
font-family="Helvetica" font-size="12" font-weight="400" font-style="normal" 
>
</g>
</g>
</svg>
